<?xml version="1.0" encoding="UTF-8" standalone="no"?>
<!-- Created with Inkscape (http://www.inkscape.org/) -->

<svg
   xmlns:osb="http://www.openswatchbook.org/uri/2009/osb"
   xmlns:dc="http://purl.org/dc/elements/1.1/"
   xmlns:cc="http://creativecommons.org/ns#"
   xmlns:rdf="http://www.w3.org/1999/02/22-rdf-syntax-ns#"
   xmlns:svg="http://www.w3.org/2000/svg"
   xmlns="http://www.w3.org/2000/svg"
   xmlns:xlink="http://www.w3.org/1999/xlink"
   xmlns:sodipodi="http://sodipodi.sourceforge.net/DTD/sodipodi-0.dtd"
   xmlns:inkscape="http://www.inkscape.org/namespaces/inkscape"
   width="80"
   height="80"
   id="svg3099"
   version="1.1"
   inkscape:version="0.48.4 r9939"
   sodipodi:docname="AmplitudeDial.svg">
  <defs
     id="defs3101">
    <marker
       inkscape:stockid="Arrow1Sstart"
       orient="auto"
       refY="0.0"
       refX="0.0"
       id="Arrow1Sstart"
       style="overflow:visible">
      <path
         id="path6174"
         d="M 0.0,0.0 L 5.0,-5.0 L -12.5,0.0 L 5.0,5.0 L 0.0,0.0 z "
         style="fill-rule:evenodd;stroke:#000000;stroke-width:1.0pt"
         transform="scale(0.2) translate(6,0)" />
    </marker>
    <marker
       inkscape:stockid="Arrow1Mstart"
       orient="auto"
       refY="0.0"
       refX="0.0"
       id="Arrow1Mstart"
       style="overflow:visible">
      <path
         id="path6168"
         d="M 0.0,0.0 L 5.0,-5.0 L -12.5,0.0 L 5.0,5.0 L 0.0,0.0 z "
         style="fill-rule:evenodd;stroke:#000000;stroke-width:1.0pt"
         transform="scale(0.4) translate(10,0)" />
    </marker>
    <marker
       inkscape:stockid="DiamondSend"
       orient="auto"
       refY="0.0"
       refX="0.0"
       id="DiamondSend"
       style="overflow:visible">
      <path
         id="path6265"
         d="M 0,-7.0710768 L -7.0710894,0 L 0,7.0710589 L 7.0710462,0 L 0,-7.0710768 z "
         style="fill-rule:evenodd;stroke:#000000;stroke-width:1.0pt"
         transform="scale(0.2) translate(-6,0)" />
    </marker>
    <marker
       inkscape:stockid="Arrow1Lend"
       orient="auto"
       refY="0.0"
       refX="0.0"
       id="Arrow1Lend"
       style="overflow:visible;">
      <path
         id="path6165"
         d="M 0.0,0.0 L 5.0,-5.0 L -12.5,0.0 L 5.0,5.0 L 0.0,0.0 z "
         style="fill-rule:evenodd;stroke:#000000;stroke-width:1.0pt;"
         transform="scale(0.8) rotate(180) translate(12.5,0)" />
    </marker>
    <linearGradient
       id="linearGradient5329"
       osb:paint="solid">
      <stop
         style="stop-color:#ffed00;stop-opacity:1;"
         offset="0"
         id="stop5331" />
    </linearGradient>
    <linearGradient
       x1="0"
       y1="0"
       x2="1"
       y2="0"
       gradientUnits="userSpaceOnUse"
       gradientTransform="matrix(0,-0.61847875,0.61847875,0,-217.64634,304.02926)"
       spreadMethod="pad"
       id="linearGradient8080-3">
      <stop
         style="stop-opacity:1;stop-color:#37373b"
         offset="0"
         id="stop8082-6" />
      <stop
         style="stop-opacity:1;stop-color:#37373b"
         offset="1"
         id="stop8084-7" />
    </linearGradient>
    <linearGradient
       x1="0"
       y1="0"
       x2="1"
       y2="0"
       gradientUnits="userSpaceOnUse"
       gradientTransform="matrix(0,-0.61847125,0.61847125,0,-219.20459,303.97266)"
       spreadMethod="pad"
       id="linearGradient8064-5">
      <stop
         style="stop-opacity:1;stop-color:#37373b"
         offset="0"
         id="stop8066-3" />
      <stop
         style="stop-opacity:1;stop-color:#37373b"
         offset="1"
         id="stop8068-5" />
    </linearGradient>
    <linearGradient
       inkscape:collect="always"
       xlink:href="#linearGradient8064-5"
       id="linearGradient6053"
       gradientUnits="userSpaceOnUse"
       gradientTransform="matrix(0,-0.27520308,0.27520308,0,-76.040147,1115.4496)"
       spreadMethod="pad"
       x1="0"
       y1="0"
       x2="1"
       y2="0" />
    <linearGradient
       inkscape:collect="always"
       xlink:href="#linearGradient8080-3"
       id="linearGradient6055"
       gradientUnits="userSpaceOnUse"
       gradientTransform="matrix(0,-0.27520642,0.27520642,0,-75.346767,1115.4746)"
       spreadMethod="pad"
       x1="0"
       y1="0"
       x2="1"
       y2="0" />
  </defs>
  <sodipodi:namedview
     id="base"
     pagecolor="#ffffff"
     bordercolor="#666666"
     borderopacity="1.0"
     inkscape:pageopacity="0.0"
     inkscape:pageshadow="2"
     inkscape:zoom="5"
     inkscape:cx="42.833532"
     inkscape:cy="44.811094"
     inkscape:document-units="px"
     inkscape:current-layer="layer1"
     showgrid="false"
     inkscape:window-width="1360"
     inkscape:window-height="716"
     inkscape:window-x="0"
     inkscape:window-y="0"
     inkscape:window-maximized="1"
     showguides="false"
     inkscape:snap-global="false">
    <inkscape:grid
       type="xygrid"
       id="grid5389" />
  </sodipodi:namedview>
  <metadata
     id="metadata3104">
    <rdf:RDF>
      <cc:Work
         rdf:about="">
        <dc:format>image/svg+xml</dc:format>
        <dc:type
           rdf:resource="http://purl.org/dc/dcmitype/StillImage" />
        <dc:title />
      </cc:Work>
    </rdf:RDF>
  </metadata>
  <g
     inkscape:label="Layer 1"
     inkscape:groupmode="layer"
     id="layer1"
     transform="translate(0,-972.36218)">
    <path
       sodipodi:type="arc"
       style="fill:#ffea00;fill-opacity:1;stroke:#000000;stroke-width:0.35078914999999999;stroke-miterlimit:4;stroke-opacity:1;stroke-dasharray:none"
       id="path3107"
       sodipodi:cx="31.375"
       sodipodi:cy="23.25"
       sodipodi:rx="2.625"
       sodipodi:ry="3"
       d="m 34,23.25 c 0,1.656854 -1.175253,3 -2.625,3 -1.449747,0 -2.625,-1.343146 -2.625,-3 0,-1.656854 1.175253,-3 2.625,-3 1.449747,0 2.625,1.343146 2.625,3 z"
       transform="matrix(14.341736,0,0,12.54902,-409.97197,720.59746)" />
    <path
       sodipodi:type="arc"
       style="fill:none;stroke:none;stroke-width:0.40141922000000002;stroke-miterlimit:4;stroke-opacity:1;stroke-dasharray:none"
       id="path5339"
       sodipodi:cx="42.012287"
       sodipodi:cy="38.371735"
       sodipodi:rx="6.0675883"
       sodipodi:ry="8.1413212"
       d="m 48.079875,38.371735 c 0,4.496327 -2.716551,8.141321 -6.067588,8.141321 -3.351036,0 -6.067588,-3.644994 -6.067588,-8.141321 0,-4.496328 2.716552,-8.141322 6.067588,-8.141322 3.351037,0 6.067588,3.644994 6.067588,8.141322 z"
       transform="matrix(5.3798643,0,0,-4.0095214,-186.0204,1166.2145)" />
    <path
       d="m 48.497871,1003.9005 c -2.063008,-0.3337 -3.234955,1.9491 -3.175997,2.3083 0.03116,0.191 2.139766,1.8692 4.15883,1.4285 2.019622,-0.4411 4.765107,-2.6933 4.280642,-3.1404 -0.656892,-0.6062 -3.93245,-0.3654 -5.263475,-0.5964"
       style="fill:#846753;fill-opacity:1;fill-rule:nonzero;stroke:none"
       id="path7996"
       inkscape:connector-curvature="0" />
    <path
       d="m 48.535693,1004.9124 c -1.39221,-0.1529 -2.621448,1.3581 -2.585292,1.5697 0.01891,0.1124 2.478499,0.693 3.695501,0.4366 1.217555,-0.2569 2.66372,-1.1153 2.748821,-1.6737 0.08065,-0.5278 -1.568532,-0.1417 -3.85903,-0.3326"
       style="fill:#6a5241;fill-opacity:1;fill-rule:nonzero;stroke:none"
       id="path7998-6"
       inkscape:connector-curvature="0" />
    <path
       d="m 31.473754,1003.9005 c -1.331025,0.231 -4.606584,-0.011 -5.264031,0.5964 -0.484464,0.4471 2.261575,2.6993 4.280642,3.1404 2.019619,0.4407 4.127682,-1.2375 4.159385,-1.4285 0.05897,-0.3592 -1.112988,-2.642 -3.175996,-2.3083"
       style="fill:#846753;fill-opacity:1;fill-rule:nonzero;stroke:none"
       id="path8000"
       inkscape:connector-curvature="0" />
    <path
       d="m 31.435931,1004.9124 c -2.290497,0.1909 -3.93968,-0.1952 -3.859028,0.3326 0.08454,0.5584 1.531264,1.4168 2.74882,1.6737 1.217002,0.2564 3.676591,-0.3242 3.695502,-0.4366 0.03617,-0.2116 -1.193083,-1.7226 -2.585294,-1.5697"
       style="fill:#6a5241;fill-opacity:1;fill-rule:nonzero;stroke:none"
       id="path8002-2"
       inkscape:connector-curvature="0" />
    <path
       d="m 56.420061,987.50002 c -0.778146,1.37938 -1.781006,2.65696 -2.949616,3.83122 -0.005,-3.32958 -0.607388,-5.5027 -1.629714,-8.81719 -0.332061,-1.07798 -1.076835,-1.88896 -2.424547,-2.28159 -1.270955,-0.36986 -0.175765,1.75709 0.152404,2.73491 0.961697,3.13313 1.776555,7.10453 1.181403,10.78781 -1.754307,-1.0713 -3.044172,-2.18594 -4.251162,-3.71995 -0.455542,-0.57796 -0.931107,-1.55578 -1.448943,-1.28599 -0.485022,0.25191 -0.840444,1.34272 -0.318157,2.11811 0.625744,0.92886 1.499003,1.68024 2.327766,2.46404 -0.794278,-0.0776 -1.430588,-0.25253 -2.062451,-0.57019 -0.490583,-0.24694 -1.153593,-0.80539 -1.268172,-0.15517 -0.06119,0.34765 0.0178,1.03787 0.556772,1.23089 1.480092,0.53171 3.039722,0.89995 4.629389,1.1113 0.421611,0.33933 0.850456,0.67144 1.291534,0.99119 -0.111798,0.3237 -0.235836,0.64359 -0.377114,0.95787 -1.966225,4.30462 -5.970427,7.84442 -15.747043,8.86452 -2.302737,0.1951 -0.778703,1.5039 0.787047,2.3928 1.69479,0.6642 3.423512,1.0836 5.584412,0.016 3.395701,-1.6758 5.861408,-3.1827 7.674675,-4.6572 2.643694,-0.8076 4.751199,-1.6908 6.934349,-3.2567 0.666904,-0.47835 1.074611,-1.81652 0.84656,-2.31664 -0.347634,-0.7626 -1.210882,0.34486 -1.905597,0.92439 -0.785932,0.6558 -1.995704,1.108 -2.964633,1.52635 1.065155,-1.62422 1.770436,-3.51366 2.115291,-5.47205 l 0.01002,-0.0641 c 2.189267,-1.95453 3.782827,-3.77233 5.163912,-6.22182 0.398807,-0.70532 0.0384,-2.25883 -0.428842,-2.62934 -0.675804,-0.53613 -1.123558,0.86664 -1.479536,1.49572"
       style="fill:#624736;fill-opacity:1;fill-rule:nonzero;stroke:none"
       id="path8004-9"
       inkscape:connector-curvature="0" />
    <path
       d="m 45.917583,1005.7618 c -9.776616,-1.0201 -13.781375,-4.5599 -15.747043,-8.86452 -0.141279,-0.31428 -0.265316,-0.63417 -0.377114,-0.95787 0.441079,-0.31975 0.869922,-0.65186 1.291534,-0.99119 1.589666,-0.21135 3.148741,-0.57959 4.62939,-1.1113 0.538971,-0.19302 0.617955,-0.88324 0.556772,-1.23089 -0.114581,-0.65022 -0.777591,-0.0919 -1.268174,0.15517 -0.631862,0.31766 -1.268174,0.49279 -2.063008,0.57019 0.829319,-0.7838 1.702581,-1.53518 2.328324,-2.46404 0.522286,-0.77539 0.166308,-1.8662 -0.318157,-2.11811 -0.517838,-0.26979 -0.993958,0.70803 -1.448943,1.28599 -1.207546,1.53401 -2.496855,2.64865 -4.251161,3.71995 -0.595152,-3.68328 0.219704,-7.65468 1.181403,-10.78781 0.327611,-0.97782 1.423358,-3.10477 0.152403,-2.73491 -1.347712,0.39263 -2.092486,1.20361 -2.424548,2.28159 -1.022324,3.31449 -1.624707,5.48761 -1.629714,8.81719 -1.16861,-1.17426 -2.172025,-2.45184 -2.949616,-3.83122 -0.355977,-0.62918 -0.804288,-2.03195 -1.479536,-1.49571 -0.46722,0.3704 -0.827647,1.92393 -0.428841,2.62923 1.380528,2.44959 2.974644,4.26729 5.163912,6.22182 l 0.0094,0.0641 c 0.345411,1.95843 1.050695,3.84797 2.115847,5.47214 -0.96893,-0.41826 -2.178699,-0.87056 -2.965189,-1.5263 -0.694714,-0.57962 -1.557406,-1.68699 -1.905042,-0.92447 -0.228048,0.50002 0.179659,1.83831 0.846563,2.31667 2.183149,1.5658 4.290652,2.4489 6.934349,3.2566 1.813264,1.4746 4.278972,2.9814 7.674674,4.6572 2.160901,1.0668 3.889622,0.6474 5.584413,-0.017 1.565749,-0.8889 3.089781,-2.1976 0.787047,-2.393"
       style="fill:#624736;fill-opacity:1;fill-rule:nonzero;stroke:none"
       id="path8006-1"
       inkscape:connector-curvature="0" />
    <path
       d="m 40.091216,1002.2543 c -6.144523,0 -11.218328,7.5073 -11.218328,14.8788 0,7.3715 4.980917,13.3474 11.125439,13.3474 6.143968,0 11.124884,-5.9759 11.124884,-13.3474 0,-7.3715 -4.887472,-14.8788 -11.031995,-14.8788"
       style="fill:#a67d62;fill-opacity:1;fill-rule:nonzero;stroke:none"
       id="path8008-2"
       inkscape:connector-curvature="0" />
    <path
       d="m 40.231383,1015.2164 c -7.116234,0 -12.88531,4.4914 -12.88531,10.0312 0,5.54 5.769076,10.0308 12.88531,10.0308 7.116232,0 12.88531,-4.4908 12.88531,-10.0308 0,-5.5398 -5.769078,-10.0312 -12.88531,-10.0312"
       style="fill:#bf9882;fill-opacity:1;fill-rule:nonzero;stroke:none"
       id="path8010-7"
       inkscape:connector-curvature="0" />
    <path
       d="m 41.134678,1000.4533 c 0,0 -0.297019,0.8192 -0.411045,1.4923 -0.439967,-0.8037 -0.718632,-1.95805 -0.718632,-1.95805 0,0 -0.120141,1.02245 -0.127929,1.92355 -0.564003,-0.5636 -1.039567,-1.315 -1.039567,-1.315 0,0 0.398251,2.2233 0.854347,2.7072 0.122368,0.1296 0.346524,0.09 0.591258,-0.029 0.362097,0.046 0.959474,-0.1896 1.318234,-0.3848 0.685258,-0.026 1.418352,-0.2236 0.812076,-0.2108 -0.972266,0.021 -1.278742,-2.2254 -1.278742,-2.2254"
       style="fill:#a67d62;fill-opacity:1;fill-rule:nonzero;stroke:none"
       id="path8012"
       inkscape:connector-curvature="0" />
    <path
       d="m 40.198009,1025.557 -8.95e-4,0 c -0.107353,0 -0.19412,-0.094 -0.193564,0.013 4.46e-4,0.047 0.0027,4.5142 -2.14755,5.4771 -1.178068,0.5283 -2.81835,-0.1386 -4.875794,-1.9969 -0.07954,-0.072 -0.202463,-0.061 -0.274215,0.018 -0.07232,0.08 -0.06564,0.2052 0.01388,0.2768 1.678107,1.5158 3.119818,2.2789 4.301223,2.2789 0.354866,0 0.68637,0.04 0.993958,-0.096 2.378381,-1.0657 2.378381,-5.7574 2.377269,-5.9597 -4.45e-4,-0.1075 -0.08733,-0.011 -0.194119,-0.011"
       style="fill:#2c2c2e;fill-opacity:1;fill-rule:nonzero;stroke:none"
       id="path8014-0"
       inkscape:connector-curvature="0" />
    <path
       d="m 47.305899,1029.476 c -2.106392,1.4968 -3.764472,1.9373 -4.928078,1.3116 -2.089705,-1.124 -1.97123,-5.3525 -1.969562,-5.3954 0.0031,-0.1074 -0.08065,-0.1968 -0.188001,-0.2007 -0.09679,-0.011 -0.1969,0.08 -0.200239,0.1875 -0.0067,0.1836 -0.128484,4.5119 2.173139,5.7506 0.39825,0.2149 0.842111,0.3214 1.330469,0.3214 1.111878,0 2.452914,-0.5545 4.007541,-1.6584 0.08732,-0.062 0.107899,-0.1831 0.0456,-0.2711 -0.06175,-0.087 -0.182994,-0.1073 -0.270876,-0.046"
       style="fill:#2c2c2e;fill-opacity:1;fill-rule:nonzero;stroke:none"
       id="path8016-9"
       inkscape:connector-curvature="0" />
    <path
       d="m 40.237501,1017.6197 c -2.907899,0.016 -5.255689,1.9818 -5.244009,4.3925 0.01224,2.4112 2.379495,4.353 5.287395,4.3379 2.908455,-0.015 5.255131,-1.9813 5.242895,-4.3919 -0.01171,-2.4105 -2.377825,-4.3534 -5.286281,-4.3385"
       style="fill:#c0252a;fill-opacity:1;fill-rule:nonzero;stroke:none"
       id="path8018"
       inkscape:connector-curvature="0" />
    <path
       d="m 41.915606,1019.1583 c -0.975049,0.011 -1.762094,0.6657 -1.7582,1.4755 0.0039,0.8093 0.797614,1.4618 1.772661,1.4574 0.974491,-0.011 1.761538,-0.6659 1.757643,-1.4757 -0.0044,-0.8099 -0.797613,-1.4621 -1.772104,-1.4572"
       style="fill:#f8eedc;fill-opacity:1;fill-rule:nonzero;stroke:none"
       id="path8020-3"
       inkscape:connector-curvature="0" />
    <path
       d="m 36.316175,1010.6492 c -1.289867,-0.047 -2.372819,0.9556 -2.41954,2.2394 -0.0039,0.1173 0.0094,0.2308 0.02225,0.3441 0.27644,-1.0389 1.242032,-1.7886 2.367257,-1.7481 1.125227,0.04 2.034083,0.8588 2.234322,1.9152 0.02113,-0.1119 0.04281,-0.2243 0.04729,-0.3416 0.04672,-1.2838 -0.961142,-2.3616 -2.251563,-2.409"
       style="fill:url(#linearGradient6053);fill-opacity:1;fill-rule:nonzero;stroke:none"
       id="path8070-6"
       inkscape:connector-curvature="0" />
    <path
       d="m 43.24997,1010.9012 c -1.289867,-0.047 -2.37282,0.9556 -2.418987,2.2393 -0.0044,0.1173 0.009,0.231 0.02225,0.3438 0.275883,-1.0391 1.241475,-1.7888 2.366701,-1.7483 1.125225,0.04 2.034639,0.8588 2.234878,1.9156 0.02055,-0.1124 0.04281,-0.224 0.04673,-0.342 0.04672,-1.2837 -0.961141,-2.3617 -2.251564,-2.4084"
       style="fill:url(#linearGradient6055);fill-opacity:1;fill-rule:nonzero;stroke:none"
       id="path8086-0"
       inkscape:connector-curvature="0" />
    <path
       sodipodi:type="star"
       style="fill:none;stroke:none"
       id="path6076"
       sodipodi:sides="5"
       sodipodi:cx="35.911602"
       sodipodi:cy="4.198895"
       sodipodi:r1="9.1579485"
       sodipodi:r2="4.2417741"
       sodipodi:arg1="0.72564034"
       sodipodi:arg2="2.6096934"
       inkscape:flatsided="false"
       inkscape:rounded="0"
       inkscape:randomized="0"
       d="M 42.762431,10.276243 32.255849,6.3502003 32.248723,12.592424 32.735899,1.3868568 26.796989,3.3090331 37.604663,0.3096545 33.941341,-4.7445994 40.133674,4.6072504 43.808526,-0.43862666 36.827925,8.340513 z"
       transform="translate(0,972.36218)"
       inkscape:transform-center-x="0.60884423"
       inkscape:transform-center-y="-0.27498241" />
    <path
       sodipodi:type="star"
       style="fill:none;stroke:none"
       id="path6078"
       sodipodi:sides="5"
       sodipodi:cx="42.762431"
       sodipodi:cy="8.6187845"
       sodipodi:r1="4.7526659"
       sodipodi:r2="2.2013375"
       sodipodi:arg1="-1.5475447"
       sodipodi:arg2="-0.91922617"
       inkscape:flatsided="false"
       inkscape:rounded="0"
       inkscape:randomized="0"
       d="m 42.872929,3.8674036 1.224473,3.0010261 3.218008,0.3871868 -2.475763,2.0919104 0.626183,3.1801551 -2.754578,-1.708155 -2.831006,1.578257 0.77334,-3.1476074 -2.375841,-2.2047384 3.232529,-0.2371743 z"
       transform="translate(0,972.36218)"
       inkscape:transform-center-x="-0.034145524"
       inkscape:transform-center-y="-0.42124221" />
    <path
       sodipodi:type="star"
       style="fill:none;stroke:none"
       id="path6080"
       sodipodi:sides="5"
       sodipodi:cx="51.270718"
       sodipodi:cy="-3.6464088"
       sodipodi:r1="11.713228"
       sodipodi:r2="5.4253275"
       sodipodi:arg1="-3.132159"
       sodipodi:arg2="-2.5038404"
       inkscape:flatsided="false"
       inkscape:rounded="0"
       inkscape:randomized="0"
       d="m 39.558011,-3.7569057 7.353803,-3.1196943 0.844567,-7.943401 5.239456,6.0298445 7.815608,-1.6514145 -4.115641,6.8463425 3.985744,6.92277 -7.783062,-1.7985714 -5.352283,5.929922 -0.694555,-7.95792113 z"
       transform="translate(0,972.36218)"
       inkscape:transform-center-x="1.0859897"
       inkscape:transform-center-y="-0.034145524" />
    <path
       sodipodi:type="arc"
       style="fill:none;stroke:#ff0000;stroke-width:0.35078919;stroke-linecap:butt;stroke-linejoin:miter;stroke-miterlimit:4.80000019;stroke-opacity:1;stroke-dasharray:none;marker-start:none;marker-mid:none;marker-end:none"
       id="path3107-2"
       sodipodi:cx="31.375"
       sodipodi:cy="23.25"
       sodipodi:rx="2.625"
       sodipodi:ry="3"
       d="m 31.603784,20.261416 c 1.44423,0.144404 2.512581,1.599502 2.386227,3.250051 -0.126354,1.65055 -1.399564,2.871521 -2.843795,2.727117 -1.44423,-0.144404 -2.512581,-1.599502 -2.386227,-3.250051 0.111027,-1.450341 1.117179,-2.600229 2.386228,-2.727117"
       transform="matrix(14.341736,0,0,12.54902,-409.96562,720.59111)"
       sodipodi:start="4.7996554"
       sodipodi:end="10.908308"
       sodipodi:open="true" />
    <path
       sodipodi:type="arc"
       style="fill:none;stroke:none;stroke-width:1.00014317000000008;stroke-miterlimit:4;stroke-opacity:1;stroke-dasharray:none"
       id="path3040"
       sodipodi:cx="-38.400002"
       sodipodi:cy="27.700001"
       sodipodi:rx="12"
       sodipodi:ry="14.9"
       d="m -26.400002,27.700001 c 0,8.229042 -5.372583,14.899999 -12,14.899999 -6.627417,0 -12,-6.670957 -12,-14.899999 0,-8.229043 5.372583,-14.9 12,-14.9 6.627417,0 12,6.670957 12,14.9 z"
       transform="matrix(2.715143,0,0,-2.1866924,144.26149,1072.9336)" />
    <g
       transform="matrix(-0.01462709,-0.99989302,0.99989302,-0.01462709,-971.37189,1067.324)"
       inkscape:transform-center-x="-0.31057921"
       inkscape:transform-center-y="25.213058"
       style="font-size:11.56471348px;font-style:normal;font-variant:normal;font-weight:bold;font-stretch:normal;text-align:center;line-height:125%;letter-spacing:0px;word-spacing:0px;text-anchor:middle;fill:#000000;fill-opacity:1;stroke:none;font-family:Ubuntu;-inkscape-font-specification:Sans Bold"
       id="text3969">
      <path
         d="m 14.950329,991.41905 c 0.259406,0.13014 0.532368,0.25724 0.818887,0.3813 0.281205,0.12962 0.562407,0.25925 0.843607,0.38888 l 2.154697,-2.25989 c -0.142875,-0.27471 -0.283091,-0.55221 -0.420648,-0.8325 -0.142875,-0.27471 -0.285491,-0.53851 -0.427849,-0.79142 l 1.292818,-1.35594 c 0.417469,0.81349 0.798147,1.57059 1.142038,2.27132 0.343888,0.70072 0.662408,1.3666 0.95556,1.99764 0.287828,0.63661 0.555869,1.24371 0.804122,1.82129 0.248508,0.58848 0.480538,1.17189 0.696092,1.75026 l -1.189074,1.24712 c -0.582649,-0.19335 -1.173795,-0.40011 -1.77344,-0.6203 -0.594067,-0.21489 -1.213243,-0.45371 -1.85753,-0.71646 -0.649604,-0.25719 -1.33256,-0.54084 -2.04887,-0.85096 -0.716302,-0.31013 -1.490679,-0.65431 -2.323131,-1.03256 l 1.332721,-1.39778 m 5.978632,2.71229 c -0.0571,-0.10771 -0.131588,-0.25863 -0.223463,-0.45275 -0.09188,-0.19413 -0.198095,-0.41791 -0.31865,-0.67133 -0.120557,-0.25343 -0.252663,-0.53385 -0.396318,-0.84125 -0.148976,-0.30184 -0.306451,-0.6171 -0.472426,-0.94578 l -1.572131,1.64888 c 0.336224,0.15012 0.658626,0.29241 0.967209,0.42684 0.308583,0.13443 0.594975,0.25302 0.859178,0.3558 0.258882,0.10834 0.487464,0.20378 0.685747,0.28631 0.19828,0.0825 0.355232,0.14695 0.470854,0.19328"
         style=""
         id="path3035" />
      <path
         d="m 14.348336,998.05278 c 0.492024,0.257 0.874452,0.37413 1.147287,0.35138 0.26926,-0.0159 0.484207,-0.17764 0.644841,-0.48515 0.04997,-0.0957 0.0949,-0.19833 0.134776,-0.30797 0.04671,-0.10608 0.08822,-0.21052 0.124526,-0.31333 l -4.161712,-2.17388 0.797803,-1.52733 5.207265,2.72003 c -0.03366,0.14768 -0.07802,0.31587 -0.133088,0.50457 -0.05181,0.19909 -0.114022,0.40144 -0.186631,0.60707 -0.06935,0.21602 -0.150739,0.43011 -0.244155,0.64226 -0.08659,0.21571 -0.181643,0.42266 -0.285157,0.62084 -0.20347,0.38952 -0.418923,0.67709 -0.646361,0.86274 -0.224179,0.19603 -0.445655,0.33694 -0.664426,0.42273 0.04295,0.30076 0.03566,0.61446 -0.02185,0.94106 -0.06109,0.3334 -0.154097,0.6197 -0.27903,0.8589 -0.224887,0.4305 -0.470223,0.7503 -0.736011,0.9594 -0.262527,0.2195 -0.545964,0.3541 -0.850311,0.4039 -0.304348,0.05 -0.622926,0.027 -0.955734,-0.069 -0.332808,-0.096 -0.683721,-0.2398 -1.05274,-0.4325 l -3.0444053,-1.5903 0.7978028,-1.52729 2.8598955,1.49389 c 0.492025,0.257 0.874454,0.3741 1.147287,0.3514 0.269262,-0.016 0.484209,-0.1777 0.644841,-0.4852 0.04283,-0.082 0.08302,-0.2089 0.120546,-0.3806 0.03396,-0.165 0.04517,-0.3113 0.03365,-0.4391 -0.182163,-0.034 -0.365652,-0.091 -0.550465,-0.17012 -0.177982,-0.0756 -0.366061,-0.16513 -0.564237,-0.26864 l -2.9419,-1.53671 0.797803,-1.52733 2.859895,1.49388"
         style=""
         id="path3037" />
      <path
         d="m 10.859885,1007.0667 c 0.51916,0.116 0.959056,0.092 1.319689,-0.072 0.368152,-0.1626 0.603531,-0.4734 0.706139,-0.9324 0.03364,-0.1505 0.05723,-0.2914 0.07078,-0.4226 0.02107,-0.1296 0.03333,-0.2375 0.03679,-0.3236 l -3.0359694,-0.6787 c -0.091266,0.09 -0.1779735,0.213 -0.2601221,0.3684 -0.083832,0.163 -0.1450911,0.331 -0.1837774,0.5041 -0.1782964,0.7975 0.2705274,1.3166 1.3464729,1.5571 m -0.33836,1.7256 c -0.458971,-0.1026 -0.863942,-0.2524 -1.2149151,-0.4494 -0.3509738,-0.1969 -0.6375045,-0.4348 -0.8595929,-0.7135 -0.2220873,-0.2788 -0.3722082,-0.5968 -0.4503632,-0.9539 -0.078153,-0.3572 -0.070133,-0.7465 0.02406,-1.1678 0.052144,-0.2333 0.1234954,-0.4464 0.2140542,-0.6395 0.09056,-0.193 0.1982478,-0.3744 0.3230632,-0.544 l -2.2346541,-0.4995 0.3759355,-1.6817 7.8212894,1.7485 c 0.0115,0.1606 0.01419,0.3429 0.0081,0.5469 0.0014,0.2057 -0.0064,0.4173 -0.02338,0.6347 -0.01869,0.2249 -0.0449,0.4482 -0.07862,0.6697 -0.02789,0.2308 -0.06455,0.4478 -0.109956,0.6509 -0.109338,0.4891 -0.282137,0.9087 -0.518398,1.2587 -0.228746,0.3518 -0.507986,0.6291 -0.83772,0.8319 -0.322218,0.2045 -0.690327,0.3315 -1.104329,0.3812 -0.41569,0.057 -0.860542,0.033 -1.334557,-0.073"
         style=""
         id="path3039" />
      <path
         d="m 7.2759424,1011.888 c 0.036112,-0.4999 0.1131615,-0.9048 0.2311502,-1.2147 0.1175517,-0.3022 0.2700932,-0.5406 0.457625,-0.7153 0.1947913,-0.1666 0.4211613,-0.2773 0.6791108,-0.3321 0.2652076,-0.047 0.5594573,-0.061 0.88275,-0.043 l 6.6851976,0.3797 0.179407,1.7361 -6.6159213,-0.3757 c -0.1539502,-0.01 -0.293159,-0.01 -0.417627,0.011 -0.1244716,0.016 -0.2307907,0.053 -0.3189578,0.1093 -0.088607,0.064 -0.1633478,0.1568 -0.2242225,0.2769 -0.060877,0.1201 -0.1049139,0.2836 -0.1321103,0.4906 l -1.4064017,-0.3232"
         style=""
         id="path3041" />
      <path
         d="m 7.5004633,1014.8481 -0.084699,-1.7211 6.0756858,-0.299 0.0847,1.7211 -6.0756857,0.299 m 7.8393557,-0.2237 c -0.315727,0.015 -0.571109,-0.076 -0.766145,-0.2749 -0.186972,-0.1915 -0.287275,-0.4259 -0.300911,-0.7031 -0.01365,-0.2772 0.06297,-0.5241 0.229854,-0.7408 0.174952,-0.2093 0.420291,-0.3217 0.736018,-0.3372 0.315712,-0.016 0.567054,0.072 0.754027,0.2639 0.195035,0.1988 0.299378,0.4368 0.31303,0.7141 0.01363,0.2772 -0.06702,0.5204 -0.241974,0.7297 -0.166887,0.2167 -0.408187,0.3328 -0.723899,0.3483"
         style=""
         id="path3043" />
      <path
         d="m 15.093102,1015.0583 0.5796,1.6464 -1.763951,0.3188 0.368178,2.037 -1.411161,0.2551 -0.368178,-2.0371 -2.105361,0.3805 c -0.356587,0.064 -0.6301247,0.1766 -0.8206155,0.3364 -0.1891236,0.1674 -0.2494034,0.4407 -0.1808395,0.8201 0.032908,0.182 0.081677,0.3652 0.1463075,0.5494 0.073585,0.1904 0.1551234,0.3597 0.2446168,0.5081 l -1.2769243,0.4776 c -0.1204801,-0.1898 -0.2336927,-0.4044 -0.3396379,-0.6438 -0.1059466,-0.2394 -0.1918293,-0.5411 -0.2576484,-0.9053 -0.083646,-0.4628 -0.092199,-0.8569 -0.025658,-1.1823 0.074127,-0.3268 0.2047456,-0.6011 0.3918561,-0.823 0.1946959,-0.2232 0.4445124,-0.4015 0.7494505,-0.535 0.3063063,-0.1259 0.6529256,-0.2238 1.0398594,-0.2937 l 5.030106,-0.9092"
         style=""
         id="path3045" />
      <path
         d="m 10.65133,1026.2893 c -0.1834,-0.2437 -0.389733,-0.5694 -0.619001,-0.9771 -0.2364771,-0.405 -0.4451411,-0.8453 -0.6259926,-1.3209 -0.1835938,-0.4829 -0.2721867,-0.9111 -0.265779,-1.2847 0.00915,-0.3664 0.0934,-0.6871 0.2527613,-0.9622 0.1665657,-0.2778 0.3969223,-0.518 0.6910703,-0.7205 0.294145,-0.2026 0.635791,-0.3779 1.024941,-0.5259 l 3.167221,-1.2043 0.612433,1.6107 -2.972648,1.1303 c -0.518865,0.1973 -0.867567,0.4082 -1.046106,0.6328 -0.178544,0.2247 -0.19657,0.5243 -0.05408,0.8991 0.04384,0.1153 0.09403,0.2364 0.15056,0.3634 0.06373,0.1242 0.121989,0.234 0.174767,0.3294 l 4.388711,-1.6687 0.612433,1.6106 -5.491293,2.088"
         style=""
         id="path3047" />
      <path
         d="m 14.583953,1027.3849 c -0.446197,0.2897 -0.74002,0.6229 -0.88147,0.9997 -0.141456,0.3768 -0.08414,0.7624 0.171953,1.1569 0.08396,0.1293 0.164859,0.2468 0.242698,0.3526 0.0843,0.1015 0.156006,0.1836 0.215122,0.2464 l 2.628662,-1.7066 c -5.81e-4,-0.1283 -0.02975,-0.2794 -0.0875,-0.4533 -0.05357,-0.1675 -0.128626,-0.3256 -0.225177,-0.4743 -0.445011,-0.6855 -1.133107,-0.7259 -2.064288,-0.1214 m -0.302792,4.8432 c -0.122766,-0.1042 -0.258123,-0.2277 -0.406072,-0.3707 -0.141488,-0.1471 -0.286037,-0.306 -0.433647,-0.4768 -0.143418,-0.1643 -0.284564,-0.3392 -0.42344,-0.5248 -0.141148,-0.1749 -0.268397,-0.3497 -0.381745,-0.5243 -0.272883,-0.4203 -0.454944,-0.8353 -0.546184,-1.2448 -0.09124,-0.4096 -0.09717,-0.801 -0.01777,-1.1743 0.08586,-0.3774 0.250571,-0.7325 0.494136,-1.0653 0.254226,-0.3305 0.585037,-0.628 0.992434,-0.8925 0.413857,-0.2687 0.81927,-0.4583 1.216239,-0.569 0.403428,-0.1148 0.784515,-0.1508 1.143261,-0.1079 0.358736,0.043 0.6898,0.1634 0.993192,0.3617 0.307577,0.2048 0.578918,0.4882 0.814022,0.8503 0.130136,0.2005 0.226186,0.3909 0.28815,0.5713 0.06615,0.1869 0.116135,0.3842 0.149964,0.5921 l 2.308567,-1.4988 1.171086,1.2942 -7.362192,4.7796"
         style=""
         id="path3049" />
      <path
         d="m 17.065241,1031.2703 c 0.381497,-0.3818 0.771206,-0.6572 1.169129,-0.8263 0.408819,-0.1692 0.804038,-0.2538 1.185658,-0.2539 0.381611,-10e-5 0.744168,0.073 1.087673,0.2205 0.348947,0.1525 0.654302,0.3596 0.916068,0.6212 0.610765,0.6104 0.905358,1.2808 0.883782,2.0114 -0.01614,0.725 -0.386633,1.4502 -1.111475,2.1755 -0.07086,0.071 -0.152608,0.1473 -0.245254,0.2291 -0.08721,0.076 -0.166238,0.1445 -0.237085,0.2045 l -2.764834,-2.7632 c -0.223436,0.2781 -0.305114,0.5944 -0.245035,0.9487 0.06007,0.3543 0.264617,0.7059 0.613633,1.0547 0.223582,0.2234 0.46079,0.4224 0.711624,0.5967 0.261728,0.1744 0.490735,0.2997 0.687023,0.376 l -0.825574,1.1533 c -0.09814,-0.033 -0.218097,-0.087 -0.35986,-0.1635 -0.14177,-0.076 -0.291719,-0.1716 -0.449849,-0.286 -0.158133,-0.1036 -0.321719,-0.2235 -0.490759,-0.3597 -0.169046,-0.1362 -0.329913,-0.2807 -0.482604,-0.4333 -0.387187,-0.3869 -0.668068,-0.7821 -0.842642,-1.1854 -0.169125,-0.398 -0.251019,-0.7905 -0.245684,-1.1775 0.01624,-0.3871 0.114251,-0.7633 0.294045,-1.1286 0.185245,-0.3599 0.435918,-0.698 0.75202,-1.0142 m 3.328968,2.3949 c 0.09809,-0.109 0.179829,-0.229 0.245215,-0.3598 0.07083,-0.1254 0.111674,-0.259 0.12254,-0.4008 0.01631,-0.1363 -9.1e-5,-0.278 -0.04919,-0.4252 -0.04366,-0.1417 -0.136384,-0.2834 -0.278164,-0.4251 -0.136339,-0.1363 -0.27811,-0.2289 -0.425314,-0.2779 -0.141765,-0.054 -0.283515,-0.076 -0.425249,-0.065 -0.141745,0.011 -0.283476,0.049 -0.425195,0.1146 -0.130824,0.065 -0.256189,0.1418 -0.376094,0.2291 l 1.611456,1.6104"
         style=""
         id="path3051" />
    </g>
  </g>
</svg>
