<?xml version="1.0" encoding="UTF-8" standalone="no"?>
<!-- Created with Inkscape (http://www.inkscape.org/) -->

<svg
   xmlns:osb="http://www.openswatchbook.org/uri/2009/osb"
   xmlns:dc="http://purl.org/dc/elements/1.1/"
   xmlns:cc="http://creativecommons.org/ns#"
   xmlns:rdf="http://www.w3.org/1999/02/22-rdf-syntax-ns#"
   xmlns:svg="http://www.w3.org/2000/svg"
   xmlns="http://www.w3.org/2000/svg"
   xmlns:xlink="http://www.w3.org/1999/xlink"
   xmlns:sodipodi="http://sodipodi.sourceforge.net/DTD/sodipodi-0.dtd"
   xmlns:inkscape="http://www.inkscape.org/namespaces/inkscape"
   width="630"
   height="333"
   id="svg2"
   version="1.1"
   inkscape:version="0.48.4 r9939"
   sodipodi:docname="BellsBackground.svg">
  <defs
     id="defs4">
    <linearGradient
       id="linearGradient5391"
       osb:paint="solid">
      <stop
         style="stop-color:#000000;stop-opacity:1;"
         offset="0"
         id="stop5393" />
    </linearGradient>
    <linearGradient
       id="linearGradient3942">
      <stop
         style="stop-color:#000000;stop-opacity:1;"
         offset="0"
         id="stop3944" />
      <stop
         style="stop-color:#000000;stop-opacity:0;"
         offset="1"
         id="stop3946" />
    </linearGradient>
    <path
       style="fill:none;stroke:none"
       d="m 41,100 c 0,0 52.002219,-37.653875 110,-37 78.00145,0.879399 111,39 111,39"
       id="path4135-1"
       inkscape:connector-curvature="0"
       transform="translate(0,652.36218)"
       sodipodi:nodetypes="csc" />
  </defs>
  <sodipodi:namedview
     id="base"
     pagecolor="#ffffff"
     bordercolor="#666666"
     borderopacity="1.0"
     inkscape:pageopacity="0.0"
     inkscape:pageshadow="2"
     inkscape:zoom="1"
     inkscape:cx="417.58454"
     inkscape:cy="150.89748"
     inkscape:document-units="px"
     inkscape:current-layer="layer1"
     showgrid="false"
     inkscape:window-width="1360"
     inkscape:window-height="716"
     inkscape:window-x="0"
     inkscape:window-y="0"
     inkscape:window-maximized="1" />
  <metadata
     id="metadata7">
    <rdf:RDF>
      <cc:Work
         rdf:about="">
        <dc:format>image/svg+xml</dc:format>
        <dc:type
           rdf:resource="http://purl.org/dc/dcmitype/StillImage" />
        <dc:title />
      </cc:Work>
    </rdf:RDF>
  </metadata>
  <g
     inkscape:label="Layer 1"
     inkscape:groupmode="layer"
     id="layer1"
     transform="translate(0,-719.36218)">
    <rect
       style="fill:#0087ff;fill-opacity:1;stroke:none"
       id="rect4129"
       width="315"
       height="334"
       x="315"
       y="718.36218" />
    <rect
       style="fill:#008000"
       id="rect3006"
       width="315"
       height="334"
       x="0"
       y="718.36218" />
    <g
       transform="translate(-1.0000002,67.000026)"
       id="g3038"
       style="fill:#000000;fill-opacity:0.17435901">
      <path
         inkscape:tile-y0="1e-05"
         inkscape:tile-x0="-1.8126909e-09"
         inkscape:tile-h="59.999994"
         inkscape:tile-w="81.440948"
         inkscape:tile-cy="30.000007"
         inkscape:tile-cx="40.720474"
         inkscape:connector-curvature="0"
         id="path3093"
         d="m 38.460343,655.36219 c -2.718423,0 -5.238467,1.45822 -6.587717,3.81691 l -1.34299,2.34671 c -5.671393,0.18893 -11.125784,3.1672 -14.17914,8.3689 -2.110164,3.5952 -4.104281,5.7611 -5.612283,7.1532 -0.619401,0.5717 -0.9263745,1.3942 -0.8340675,2.2336 0.08943,0.8387 0.5725325,1.5949 1.3005795,2.0216 l 27.241481,15.9886 c 0.415747,0.245 0.887683,0.3676 1.357125,0.3676 0.335116,0 0.669725,-0.068 0.989573,-0.1979 0.765404,-0.3087 1.346485,-0.946 1.569176,-1.7388 0.708654,-2.5268 1.862493,-5.9927 3.406952,-8.6235 3.151233,-5.3727 2.982734,-11.8064 0.1131,-16.9216 l 1.286442,-2.2478 c 1.008567,-1.7619 1.266512,-3.8091 0.735111,-5.76774 -0.53535,-1.95663 -1.806083,-3.58948 -3.562457,-4.59444 l -2.120509,-1.20162 c -1.142719,-0.65496 -2.445962,-1.00372 -3.76037,-1.00372 z m 0.02827,5.61228 c 0.329723,0 0.661563,0.0678 0.961298,0.24034 l 2.120511,1.21575 c 0.460286,0.26399 0.793126,0.69895 0.933024,1.21575 0.138824,0.5126 0.06607,1.047 -0.197915,1.5126 l -0.226188,0.3959 c -0.744569,-0.6322 -1.533498,-1.2131 -2.403244,-1.7247 -1.029398,-0.6038 -2.107853,-1.09081 -3.194901,-1.45609 l 0.240324,-0.40997 c 0.360792,-0.6282 1.062028,-0.98778 1.767091,-0.98958 z m 15.578678,9.57054 c -1.733714,-0.016 -3.483444,0.2574 -5.174043,0.82 1.965592,5.3995 1.474616,11.4678 -1.456084,16.4693 -1.27364,2.1654 -2.247043,5.1396 -2.841482,7.2521 -0.369772,1.3115 -1.18412,2.4515 -2.276015,3.2373 0.916799,1.8246 1.437319,3.3454 1.781229,4.552 0.21766,0.7621 0.788662,1.375 1.526768,1.654 0.742596,0.2775 1.569126,0.1859 2.233602,-0.2403 l 24.894779,-16.0311 c 0.65389,-0.4191 1.07989,-1.1079 1.14508,-1.8801 0.065,-0.7711 -0.23542,-1.5418 -0.80579,-2.064 -1.80917,-1.6614 -4.21884,-4.0694 -5.76779,-6.4746 -2.99796,-4.658 -8.05912,-7.2465 -13.260256,-7.2946 z m -48.0366095,10.8994 c -0.590291,-0.038 -1.18763,0.158 -1.653998,0.5655 l -2.4456545,2.1488 c -0.662317,0.5614 -1.001137,1.4098 -0.918886,2.276 0.08046,0.864 0.575304,1.6328 1.328852,2.064 l 12.737194,7.2804 c -1.33362,2.333 -0.514291,5.312 1.837777,6.6584 0.77456,0.4422 1.612545,0.6503 2.445652,0.6503 1.692442,0 3.341105,-0.8625 4.24102,-2.4315 l 12.737195,7.2804 c 0.407485,0.2318 0.855871,0.3534 1.314716,0.3534 0.385396,0 0.771942,-0.086 1.130939,-0.2545 0.785518,-0.3708 1.100167,-1.0062 1.498493,-1.9508 0.199881,-0.4745 0.6927,-1.9367 0.6927,-1.9367 0.369234,-1.0303 -0.03619,-2.1817 -0.975436,-2.7426 L 7.0626625,681.76961 c -0.319281,-0.1901 -0.677807,-0.3024 -1.031981,-0.3252 z m 71.5177235,6.9553 c -0.57245,-0.015 -1.15421,0.1485 -1.654,0.4807 l -28.443103,18.8866 c -0.984685,0.6539 -1.449505,1.8607 -1.187485,3.0112 l 0.607881,2.6718 c 0.19162,0.791 0.756022,1.4411 1.51263,1.7388 0.756783,0.2978 1.608972,0.2083 2.29015,-0.2403 l 11.479027,-7.5773 c 1.38839,2.1003 4.22465,2.6695 6.34739,1.2723 2.11573,-1.397 2.71203,-4.2308 1.32886,-6.3332 l 11.47902,-7.5632 c 0.67759,-0.4483 1.10705,-1.2103 1.13094,-2.0215 0.0257,-0.8134 -0.35181,-1.5921 -1.00371,-2.0781 l -2.26187,-1.6823 c -0.48193,-0.3597 -1.05327,-0.5501 -1.62573,-0.5655 z"
         style="fill:#000000;fill-opacity:0.17435901;fill-rule:nonzero;stroke:none" />
      <use
         height="400"
         width="600"
         id="use5804"
         transform="matrix(-1,0,0,1,83.440948,67.199993)"
         xlink:href="#path3093"
         inkscape:tiled-clone-of="#path3093"
         y="0"
         x="0"
         style="fill:#000000;fill-opacity:0.17435901" />
      <use
         height="400"
         width="600"
         id="use5806"
         transform="translate(0,134.39999)"
         xlink:href="#path3093"
         inkscape:tiled-clone-of="#path3093"
         y="0"
         x="0"
         style="fill:#000000;fill-opacity:0.17435901" />
      <use
         height="400"
         width="600"
         id="use5808"
         transform="matrix(-1,0,0,1,83.440948,201.59998)"
         xlink:href="#path3093"
         inkscape:tiled-clone-of="#path3093"
         y="0"
         x="0"
         style="fill:#000000;fill-opacity:0.17435901" />
      <use
         height="400"
         width="600"
         id="use5810"
         transform="translate(0,268.79997)"
         xlink:href="#path3093"
         inkscape:tiled-clone-of="#path3093"
         y="0"
         x="0"
         style="fill:#000000;fill-opacity:0.17435901" />
      <use
         height="400"
         width="600"
         id="use5814"
         transform="matrix(-1,0,0,1,174.65481,0)"
         xlink:href="#path3093"
         inkscape:tiled-clone-of="#path3093"
         y="0"
         x="0"
         style="fill:#000000;fill-opacity:0.17435901" />
      <use
         height="400"
         width="600"
         id="use5816"
         transform="translate(91.21386,67.199993)"
         xlink:href="#path3093"
         inkscape:tiled-clone-of="#path3093"
         y="0"
         x="0"
         style="fill:#000000;fill-opacity:0.17435901" />
      <use
         height="400"
         width="600"
         id="use5818"
         transform="matrix(-1,0,0,1,174.65481,134.39999)"
         xlink:href="#path3093"
         inkscape:tiled-clone-of="#path3093"
         y="0"
         x="0"
         style="fill:#000000;fill-opacity:0.17435901" />
      <use
         height="400"
         width="600"
         id="use5820"
         transform="translate(91.21386,201.59998)"
         xlink:href="#path3093"
         inkscape:tiled-clone-of="#path3093"
         y="0"
         x="0"
         style="fill:#000000;fill-opacity:0.17435901" />
      <use
         height="400"
         width="600"
         id="use5822"
         transform="matrix(-1,0,0,1,174.65481,268.79997)"
         xlink:href="#path3093"
         inkscape:tiled-clone-of="#path3093"
         y="0"
         x="0"
         style="fill:#000000;fill-opacity:0.17435901" />
      <use
         height="400"
         width="600"
         id="use5826"
         transform="translate(182.42772,0)"
         xlink:href="#path3093"
         inkscape:tiled-clone-of="#path3093"
         y="0"
         x="0"
         style="fill:#000000;fill-opacity:0.17435901" />
      <use
         height="400"
         width="600"
         id="use5828"
         transform="matrix(-1,0,0,1,265.86867,67.199993)"
         xlink:href="#path3093"
         inkscape:tiled-clone-of="#path3093"
         y="0"
         x="0"
         style="fill:#000000;fill-opacity:0.17435901" />
      <use
         height="400"
         width="600"
         id="use5830"
         transform="translate(182.42772,134.39999)"
         xlink:href="#path3093"
         inkscape:tiled-clone-of="#path3093"
         y="0"
         x="0"
         style="fill:#000000;fill-opacity:0.17435901" />
      <use
         height="400"
         width="600"
         id="use5832"
         transform="matrix(-1,0,0,1,265.86867,201.59998)"
         xlink:href="#path3093"
         inkscape:tiled-clone-of="#path3093"
         y="0"
         x="0"
         style="fill:#000000;fill-opacity:0.17435901" />
      <use
         height="400"
         width="600"
         id="use5834"
         transform="translate(182.42772,268.79997)"
         xlink:href="#path3093"
         inkscape:tiled-clone-of="#path3093"
         y="0"
         x="0"
         style="fill:#000000;fill-opacity:0.17435901" />
      <use
         height="400"
         width="600"
         id="use5838"
         transform="matrix(-1,0,0,1,357.08254,0)"
         xlink:href="#path3093"
         inkscape:tiled-clone-of="#path3093"
         y="0"
         x="0"
         style="fill:#000000;fill-opacity:0.17435901" />
      <use
         height="400"
         width="600"
         id="use5840"
         transform="translate(273.64159,67.199993)"
         xlink:href="#path3093"
         inkscape:tiled-clone-of="#path3093"
         y="0"
         x="0"
         style="fill:#000000;fill-opacity:0.17435901" />
      <use
         height="400"
         width="600"
         id="use5842"
         transform="matrix(-1,0,0,1,357.08254,134.39999)"
         xlink:href="#path3093"
         inkscape:tiled-clone-of="#path3093"
         y="0"
         x="0"
         style="fill:#000000;fill-opacity:0.17435901" />
      <use
         height="400"
         width="600"
         id="use5844"
         transform="translate(273.64159,201.59998)"
         xlink:href="#path3093"
         inkscape:tiled-clone-of="#path3093"
         y="0"
         x="0"
         style="fill:#000000;fill-opacity:0.17435901" />
      <use
         height="400"
         width="600"
         id="use5846"
         transform="matrix(-1,0,0,1,357.08254,268.79997)"
         xlink:href="#path3093"
         inkscape:tiled-clone-of="#path3093"
         y="0"
         x="0"
         style="fill:#000000;fill-opacity:0.17435901" />
      <use
         height="400"
         width="600"
         id="use5850"
         transform="translate(364.85545,0)"
         xlink:href="#path3093"
         inkscape:tiled-clone-of="#path3093"
         y="0"
         x="0"
         style="fill:#000000;fill-opacity:0.17435901" />
      <use
         height="400"
         width="600"
         id="use5852"
         transform="matrix(-1,0,0,1,448.2964,67.199993)"
         xlink:href="#path3093"
         inkscape:tiled-clone-of="#path3093"
         y="0"
         x="0"
         style="fill:#000000;fill-opacity:0.17435901" />
      <use
         height="400"
         width="600"
         id="use5854"
         transform="translate(364.85545,134.39999)"
         xlink:href="#path3093"
         inkscape:tiled-clone-of="#path3093"
         y="0"
         x="0"
         style="fill:#000000;fill-opacity:0.17435901" />
      <use
         height="400"
         width="600"
         id="use5856"
         transform="matrix(-1,0,0,1,448.2964,201.59998)"
         xlink:href="#path3093"
         inkscape:tiled-clone-of="#path3093"
         y="0"
         x="0"
         style="fill:#000000;fill-opacity:0.17435901" />
      <use
         height="400"
         width="600"
         id="use5858"
         transform="translate(364.85545,268.79997)"
         xlink:href="#path3093"
         inkscape:tiled-clone-of="#path3093"
         y="0"
         x="0"
         style="fill:#000000;fill-opacity:0.17435901" />
      <use
         height="400"
         width="600"
         id="use5862"
         transform="matrix(-1,0,0,1,539.51026,0)"
         xlink:href="#path3093"
         inkscape:tiled-clone-of="#path3093"
         y="0"
         x="0"
         style="fill:#000000;fill-opacity:0.17435901" />
      <use
         height="400"
         width="600"
         id="use5864"
         transform="translate(456.06931,67.199993)"
         xlink:href="#path3093"
         inkscape:tiled-clone-of="#path3093"
         y="0"
         x="0"
         style="fill:#000000;fill-opacity:0.17435901" />
      <use
         height="400"
         width="600"
         id="use5866"
         transform="matrix(-1,0,0,1,539.51026,134.39999)"
         xlink:href="#path3093"
         inkscape:tiled-clone-of="#path3093"
         y="0"
         x="0"
         style="fill:#000000;fill-opacity:0.17435901" />
      <use
         height="400"
         width="600"
         id="use5868"
         transform="translate(456.06931,201.59998)"
         xlink:href="#path3093"
         inkscape:tiled-clone-of="#path3093"
         y="0"
         x="0"
         style="fill:#000000;fill-opacity:0.17435901" />
      <use
         height="400"
         width="600"
         id="use5870"
         transform="matrix(-1,0,0,1,539.51026,268.79997)"
         xlink:href="#path3093"
         inkscape:tiled-clone-of="#path3093"
         y="0"
         x="0"
         style="fill:#000000;fill-opacity:0.17435901" />
      <use
         height="400"
         width="600"
         id="use5874"
         transform="translate(547.28317,0)"
         xlink:href="#path3093"
         inkscape:tiled-clone-of="#path3093"
         y="0"
         x="0"
         style="fill:#000000;fill-opacity:0.17435901" />
      <use
         height="400"
         width="600"
         id="use5876"
         transform="matrix(-1,0,0,1,630.72412,67.199993)"
         xlink:href="#path3093"
         inkscape:tiled-clone-of="#path3093"
         y="0"
         x="0"
         style="fill:#000000;fill-opacity:0.17435901" />
      <use
         height="400"
         width="600"
         id="use5878"
         transform="translate(547.28317,134.39999)"
         xlink:href="#path3093"
         inkscape:tiled-clone-of="#path3093"
         y="0"
         x="0"
         style="fill:#000000;fill-opacity:0.17435901" />
      <use
         height="400"
         width="600"
         id="use5880"
         transform="matrix(-1,0,0,1,630.72412,201.59998)"
         xlink:href="#path3093"
         inkscape:tiled-clone-of="#path3093"
         y="0"
         x="0"
         style="fill:#000000;fill-opacity:0.17435901" />
      <use
         height="400"
         width="600"
         id="use5882"
         transform="translate(547.28317,268.79997)"
         xlink:href="#path3093"
         inkscape:tiled-clone-of="#path3093"
         y="0"
         x="0"
         style="fill:#000000;fill-opacity:0.17435901" />
    </g>
    <g
       transform="translate(0,60.750249)"
       style="font-size:40px;font-style:normal;font-variant:normal;font-weight:bold;font-stretch:normal;text-align:center;line-height:125%;letter-spacing:0px;word-spacing:0px;text-anchor:middle;fill:#bbde27;fill-opacity:1;stroke:#ff0900;stroke-width:2;stroke-miterlimit:4;stroke-opacity:1;font-family:Purisa;-inkscape-font-specification:Purisa Bold"
       id="text4131">
      <path
         d="m 35.868834,723.002 c -0.574603,0.33807 -0.897053,0.60512 -0.967352,0.80114 -0.07029,0.19608 0.03654,0.53544 0.32049,1.01808 0.432697,0.73552 2.343278,3.24686 5.731749,7.53402 3.397927,4.25069 5.522826,7.10003 6.374705,8.54802 0.297468,0.50567 0.55844,1.00186 0.782917,1.48857 l 0.523316,1.36285 1.413528,-0.83159 c 2.04558,-1.20342 3.599617,-4.00496 4.662118,-8.40461 0.606923,-2.49184 0.694691,-4.70922 0.263302,-6.65212 -0.431424,-1.94285 -1.343496,-4.09797 -2.736218,-6.46538 -0.554406,-0.94231 -1.001967,-1.54531 -1.342684,-1.80897 -0.340745,-0.2636 -0.937689,-0.51573 -1.790835,-0.75638 -0.876154,-0.22707 -1.721865,-0.27096 -2.537136,-0.1317 -0.792305,0.12582 -2.039554,0.50379 -3.741749,1.1339 -3.189431,1.25761 -5.508146,2.31233 -6.956151,3.16417 m -10.014297,6.95886 c -0.278542,-0.57864 -0.369162,-1.20598 -0.271861,-1.88204 0.106786,-0.71251 0.332555,-1.17019 0.677307,-1.37305 0.189287,-0.20414 0.292702,-0.52796 0.310245,-0.97146 0.04458,-0.92343 1.028813,-2.0903 2.952702,-3.50062 2.27813,-1.6496 3.865383,-2.73808 4.761763,-3.26546 1.057275,-0.62197 2.418759,-1.25277 4.084455,-1.89242 4.749661,-1.86604 8.403543,-2.62338 10.961656,-2.27202 2.567552,0.31493 4.662637,1.85143 6.285263,4.6095 1.406241,2.39039 2.301431,4.91124 2.685574,7.56257 0.3841,2.65138 0.31257,5.10671 -0.214591,7.366 -0.527204,2.25933 -1.295061,4.31989 -2.303577,6.18171 -0.985568,1.84832 -2.130676,3.37282 -3.435329,4.5735 -0.424537,0.43539 -0.695602,0.84238 -0.813196,1.22095 -0.104101,0.40157 -0.100028,0.72404 0.01222,0.96739 0.112219,0.24337 0.155499,0.5273 0.129842,0.85179 -0.01216,0.34748 -0.156817,0.6801 -0.433957,0.99784 -0.189291,0.20417 -0.410342,0.38063 -0.663155,0.52936 -0.413729,0.2434 -0.81731,0.37254 -1.210744,0.38743 -0.356953,0.0244 -0.621284,-0.0831 -0.792996,-0.32243 l -0.638841,0.0974 c -0.462409,0.0555 -0.896421,10e-4 -1.302036,-0.16218 -0.392112,-0.14059 -0.730141,-0.45222 -1.014089,-0.93489 -0.473269,-0.80445 -0.467221,-1.50413 0.01814,-2.09907 0.144644,-0.3326 -0.208964,-1.22291 -1.060826,-2.67093 -0.527354,-0.89637 -1.125684,-1.78193 -1.79499,-2.65669 -0.669317,-0.87473 -1.70303,-2.18481 -3.101141,-3.93025 -1.388653,-1.78192 -2.887507,-3.77747 -4.496567,-5.98666 l -3.660949,-5.03959 -0.75239,0.53545 c -0.658416,0.51114 -1.133624,1.25479 -1.425624,2.23096 -0.305506,0.95324 -0.596168,1.51098 -0.871987,1.67322 -0.298786,0.1758 -0.758483,0.18326 -1.379094,0.0224 -0.611127,-0.19735 -1.02487,-0.4799 -1.241229,-0.84768"
         id="path4168"
         inkscape:connector-curvature="0" />
      <path
         d="m 67.588149,716.69095 c 1.324102,-2.63641 2.593216,-4.54145 3.807346,-5.71512 1.23872,-1.18392 2.964872,-2.23959 5.178462,-3.16701 3.418746,-1.43226 5.960409,-1.36952 7.624996,0.18824 0.94528,0.87614 1.752817,2.11354 2.422614,3.71222 1.061323,2.53334 1.52839,5.37346 1.4012,8.52036 -0.102633,3.13663 -0.867021,5.6253 -2.293166,7.46602 -1.397598,1.77093 -3.117095,3.08403 -5.158497,3.93928 -3.000645,1.25712 -5.658967,1.32999 -7.974975,0.21859 -1.622009,-0.76607 -2.785504,-1.50739 -3.490489,-2.22398 -0.690694,-0.75147 -1.360626,-1.90196 -2.009797,-3.45148 -1.288035,-3.0744 -1.123933,-6.23678 0.492306,-9.48712 m 12.659289,11.47999 c 2.016808,-0.84494 3.337934,-2.90187 3.963383,-6.1708 0.639709,-3.3038 0.274336,-6.59129 -1.09612,-9.8625 -0.144274,-0.34431 -0.294514,-0.5994 -0.450721,-0.76528 -0.131639,-0.17613 -0.249801,-0.28564 -0.354486,-0.32854 -0.115017,-0.0674 -0.301813,-0.13374 -0.560388,-0.19891 -1.153357,-0.2685 -2.221936,-0.19667 -3.205741,0.21547 -0.147582,0.0618 -0.346338,0.17403 -0.596269,0.33655 -0.235658,0.12766 -0.596278,0.33657 -1.081859,0.62672 -0.471307,0.2553 -0.991796,0.53119 -1.561469,0.82766 -0.780741,0.41385 -1.377837,0.85193 -1.791292,1.31425 -0.399173,0.42747 -0.853175,1.1381 -1.362007,2.13189 -0.950206,1.87264 -1.523505,3.47171 -1.719898,4.7972 -0.182106,1.29063 -0.01555,2.55082 0.499666,3.78058 0.752211,1.79547 1.99765,3.00843 3.73632,3.63888 1.728354,0.60588 3.588646,0.49149 5.580881,-0.34317"
         id="path4170"
         inkscape:connector-curvature="0" />
      <path
         d="m 91.284544,704.69692 c -0.07756,-0.50351 -0.03499,-0.96976 0.127706,-1.39875 0.188493,-0.43575 0.46324,-0.70121 0.82424,-0.79638 0.257862,-0.0679 0.523218,-0.0552 0.79607,0.0384 0.766992,0.29425 1.401759,0.87153 1.904302,1.73183 0.502543,0.86035 0.912138,1.78654 1.228786,2.77858 0.335634,0.95949 0.650774,1.57965 0.945422,1.86047 0.268857,0.28766 0.737416,1.01906 1.40568,2.19419 0.661458,1.14938 1.392885,2.45956 2.19428,3.93054 0.80139,1.471 1.3773,2.50503 1.72773,3.10209 0.276,-2.19621 0.45037,-3.99334 0.52312,-5.39139 0.17265,-2.69294 0.82627,-4.18894 1.96086,-4.48801 0.69621,-0.1835 1.83579,0.16419 3.41877,1.04307 1.58294,0.87891 2.72884,1.72134 3.43768,2.52728 0.64365,0.76798 1.34698,1.39613 2.11,1.88444 0.0621,-0.70581 -0.0143,-3.40205 -0.22922,-8.08873 -0.196,-4.71922 -0.1082,-7.47253 0.26341,-8.25994 0.20206,-0.38416 0.4836,-0.62384 0.84463,-0.71902 0.38677,-0.10193 0.78855,-0.0424 1.20535,0.17868 0.40996,0.19531 0.66593,0.48635 0.7679,0.87311 0.0543,0.20632 0.062,0.54903 0.0228,1.02815 -0.046,0.45338 -0.0708,1.30102 -0.0743,2.54293 0.0222,1.23515 0.0995,2.73154 0.23186,4.48916 0.18552,2.37793 0.25373,4.93844 0.20462,7.68155 -0.0559,2.71734 -0.21073,4.2749 -0.46436,4.67268 -0.17093,0.29325 -0.50134,0.50444 -0.99126,0.63358 -0.64466,0.16992 -1.36888,-0.0666 -2.17263,-0.70968 -0.8038,-0.64303 -2.5262,-2.3125 -5.1672,-5.0084 -0.45218,-0.45993 -1.09774,-0.8689 -1.93668,-1.2269 -0.0814,0.2145 -0.16671,0.62308 -0.25604,1.22574 -0.0704,0.5701 -0.19957,1.59695 -0.38763,3.08054 -0.19488,1.45782 -0.43992,3.03917 -0.73512,4.74405 -0.21926,1.57456 -0.75436,2.47398 -1.60528,2.69827 -0.46416,0.12234 -0.89852,0.0438 -1.3031,-0.23565 -0.50914,-0.36219 -1.21667,-1.32016 -2.122607,-2.87391 -0.912739,-1.57952 -1.902935,-3.40062 -2.970592,-5.46329 -1.067661,-2.06266 -1.81608,-3.4373 -2.24526,-4.12393 -0.991493,-1.66907 -1.551809,-2.74857 -1.68095,-3.23852 -0.129137,-0.48992 -0.449673,-1.02592 -0.961609,-1.60802 -0.486144,-0.58885 -0.7666,-1.02511 -0.841368,-1.30877"
         id="path4172"
         inkscape:connector-curvature="0" />
      <path
         d="m 126.81845,695.81325 c -0.12104,-1.38135 0.25677,-2.11044 1.13341,-2.18727 0.58675,-0.0246 1.00336,0.30025 1.24984,0.97462 0.24647,0.67442 0.68203,2.59038 1.30669,5.74789 0.14253,0.71028 0.25782,1.26233 0.34587,1.65613 l 0.95588,4.49372 0.32311,-1.35337 c 0.40656,-1.77558 0.77416,-3.07931 1.10282,-3.91119 0.3552,-0.83417 1.02666,-2.03068 2.01438,-3.58952 1.90269,-3.03096 3.59786,-4.61162 5.08551,-4.74198 0.98288,-0.0861 1.88067,0.384 2.69337,1.41029 0.9548,1.12096 1.57756,2.27099 1.86827,3.4501 0.31724,1.17681 0.70309,3.90019 1.15755,8.17014 0.29052,2.70497 0.46139,4.34967 0.51262,4.93409 0.1536,1.75329 0.1388,2.95918 -0.0444,3.61768 -0.18557,0.63195 -0.65026,0.9805 -1.39405,1.04567 -0.50476,0.0442 -0.84845,-0.0595 -1.0311,-0.31119 -0.18501,-0.27824 -0.31475,-0.84241 -0.38921,-1.69248 -0.0349,-0.39847 -0.0805,-1.22431 -0.13677,-2.47752 -0.0563,-1.2532 -0.1205,-2.29156 -0.19263,-3.11508 -0.19787,-2.258 -0.47589,-4.36176 -0.83406,-6.31128 -0.35822,-1.9495 -0.67897,-3.16614 -0.96226,-3.64994 -0.1249,-0.20319 -0.27518,-0.39079 -0.45084,-0.5628 -0.17803,-0.19853 -0.3381,-0.34512 -0.48022,-0.43976 -0.11559,-0.0969 -0.19994,-0.14308 -0.25305,-0.13845 -0.42505,0.0373 -1.22372,1.004 -2.396,2.90021 -1.14575,1.89391 -2.08875,3.8102 -2.82901,5.74887 -0.75754,2.04727 -1.25613,3.53647 -1.49576,4.4676 -0.21309,0.92882 -0.3451,2.17175 -0.39605,3.7288 -0.0757,2.49614 -0.19497,3.88518 -0.35764,4.16712 -0.11886,0.17103 -0.25799,0.26353 -0.41737,0.27749 -0.40314,-0.0182 -0.85261,-0.2599 -1.34843,-0.72507 -0.26237,-0.2447 -0.47742,-0.56047 -0.64515,-0.9473 -0.14351,-0.41573 -0.29235,-1.04514 -0.44652,-1.88823 -0.15651,-0.86966 -0.30439,-1.79361 -0.44363,-2.77186 -0.14158,-1.00481 -0.3747,-2.44328 -0.69934,-4.31543 -0.32698,-1.8987 -0.69962,-3.86032 -1.11792,-5.88488 -0.59809,-3.15984 -0.9274,-5.08511 -0.98791,-5.77582"
         id="path4174"
         inkscape:connector-curvature="0" />
      <path
         d="m 172.29496,694.71991 c 0.47878,0.0339 1.00231,0.19128 1.57058,0.47208 0.56823,0.28085 1.14037,0.69562 1.71642,1.24431 0.57788,0.52213 1.0315,1.28941 1.36086,2.30185 0.33118,0.98586 0.45253,2.10389 0.36406,3.35408 -0.13372,1.88861 -0.70915,3.78605 -1.72627,5.69231 -1.01717,1.90627 -2.37553,3.53441 -4.07508,4.88443 -1.24387,0.95455 -2.92661,1.87803 -5.04824,2.77044 -2.09318,0.86769 -3.68506,1.26293 -4.77565,1.18573 -1.30153,-0.11887 -2.49971,-0.56459 -3.59455,-1.33717 -1.09297,-0.79917 -1.67382,-1.46852 -1.74255,-2.00806 -0.0553,-0.35145 -0.0161,-2.98191 0.11754,-7.8914 0.13367,-4.90947 0.10199,-8.42715 -0.095,-10.55305 -0.40562,-4.46644 -0.51522,-8.01637 -0.32879,-10.6498 0.10544,-1.48958 0.66816,-2.45224 1.68814,-2.88801 0.19373,-0.0932 0.3837,-0.1332 0.5699,-0.12005 0.6118,0.0433 0.97879,0.52379 1.10097,1.44134 0.15065,0.8929 0.21916,2.56858 0.20553,5.02706 -0.0136,2.45853 0.0618,4.60255 0.22637,6.43204 0.23353,2.74336 0.3563,4.59665 0.36832,5.55989 l 7.1e-4,1.12285 2.67753,-2.13626 c 1.38813,-1.10471 2.52758,-1.90625 3.41834,-2.40462 0.89261,-0.52492 1.80054,-0.88838 2.72379,-1.09038 1.57292,-0.31636 2.66528,-0.4529 3.27711,-0.40961 m 1.64053,7.41435 c 0.17322,-2.44719 -0.49826,-3.72446 -2.01444,-3.83181 -0.58523,-0.0414 -1.25494,-0.022 -2.00913,0.0583 -0.45787,0.0478 -1.38664,0.51672 -2.7863,1.40676 -1.39969,0.89007 -2.75935,1.97008 -4.07897,3.24005 -0.71586,0.67114 -1.33178,1.63004 -1.84775,2.87671 -0.4894,1.24856 -0.77835,2.49794 -0.86684,3.74814 -0.0659,0.93101 1.2e-4,1.69759 0.1981,2.29973 0.22457,0.60404 0.4509,0.99433 0.67902,1.17087 0.25469,0.17844 0.48844,0.27518 0.70125,0.29025 0.47879,0.0339 1.13897,-0.0397 1.98053,-0.2207 0.84154,-0.18102 2.02771,-0.69856 3.55852,-1.55259 1.53266,-0.88064 2.92551,-2.05187 4.17855,-3.51371 1.36881,-1.58729 2.13797,-3.57795 2.30746,-5.97197"
         id="path4176"
         inkscape:connector-curvature="0" />
      <path
         d="m 204.44452,712.39603 c 0.46989,0.0978 0.64778,0.42088 0.53367,0.96912 -0.12504,0.60046 -0.68295,1.38317 -1.67374,2.34814 -0.98541,0.93887 -1.92731,1.66888 -2.8257,2.19003 -3.44578,1.89751 -6.72201,2.52286 -9.82871,1.87606 -2.55849,-0.53266 -4.65968,-2.0188 -6.3036,-4.45841 -1.64393,-2.43961 -2.09901,-5.42163 -1.36524,-8.94607 0.20653,-0.99205 0.54851,-1.91505 1.02592,-2.76902 0.88523,-1.50447 2.46283,-2.9329 4.7328,-4.2853 2.27539,-1.37847 4.28767,-1.88564 6.03685,-1.52149 0.4699,0.0978 1.15358,0.28105 2.05103,0.54959 1.38801,0.39795 2.35018,0.74808 2.8865,1.05038 0.56783,0.28167 1.17867,0.74933 1.83252,1.40296 0.72125,0.72219 1.31529,1.66302 1.78212,2.82249 0.47221,1.13339 0.62952,2.07863 0.47192,2.83572 -0.20657,0.99207 -0.76341,1.63881 -1.67054,1.94024 -0.90717,0.30143 -2.36746,0.44684 -4.38087,0.43623 -2.63566,-0.0312 -5.31428,-0.24838 -8.03589,-0.65158 l -3.43956,-0.55267 -0.21197,1.01817 c -0.20112,0.96596 -0.16891,1.85792 0.0966,2.67587 0.29162,0.82339 0.83616,1.7403 1.63363,2.75071 1.1445,1.43678 2.4347,2.30463 3.87059,2.60357 1.14868,0.23916 2.43331,0.15251 3.85388,-0.25994 1.42597,-0.43856 2.66975,-0.98314 3.73133,-1.63376 1.08765,-0.64519 2.11985,-1.2202 3.09661,-1.72505 1.00826,-0.52552 1.7082,-0.74752 2.09983,-0.66599 m -3.76352,-7.23906 c 0.0435,-0.20884 -0.41947,-0.86361 -1.38878,-1.9643 -0.705,-0.80048 -1.22392,-1.3171 -1.55679,-1.54985 -0.30679,-0.22728 -0.78652,-0.40887 -1.43917,-0.54477 -1.30536,-0.27175 -2.29306,-0.36843 -2.96309,-0.29003 -0.63852,0.0577 -1.3651,0.34229 -2.17975,0.85363 -2.44943,1.56018 -3.73392,2.62744 -3.85349,3.20178 l -0.031,-0.0473 c 0.099,0.0479 0.33123,0.10983 0.69674,0.18591 2.53235,0.52724 6.13612,0.81447 10.81132,0.86169 1.16605,0.0249 1.80073,-0.21071 1.90402,-0.70675"
         id="path4178"
         inkscape:connector-curvature="0" />
      <path
         d="m 220.23644,723.07244 c 0.11017,-0.30043 0.7069,-0.64965 1.7902,-1.04766 1.08327,-0.398 1.67415,-0.69255 1.77266,-0.88366 0.0367,-0.10014 0.0121,-0.26539 -0.0738,-0.49573 -0.086,-0.23035 -0.41308,-0.57755 -0.98136,-1.0416 -0.54328,-0.45487 -1.32815,-0.87054 -2.35461,-1.247 -1.1016,-0.404 -2.12517,-0.59477 -3.07071,-0.57232 -0.92053,0.0316 -1.66831,0.21186 -2.24333,0.54063 -0.57504,0.32878 -1.02364,0.66132 -1.3458,0.99762 -0.32217,0.3363 -0.53834,0.65467 -0.64852,0.9551 -0.18364,0.50072 -0.26545,0.83996 -0.24543,1.01772 0.0542,0.16191 0.23698,0.39936 0.54825,0.71234 0.46815,0.42733 0.89,0.70985 1.26555,0.84758 0.55078,0.20201 1.28977,0.31681 2.21697,0.34442 0.92718,0.0276 1.7246,0.0218 2.39226,-0.0173 l 0.97769,-0.11009 m 5.87826,4.88259 c -0.26128,0.55745 -0.67024,0.97554 -1.22689,1.25424 -0.52247,0.26284 -0.90888,0.34836 -1.15922,0.25655 -0.15023,-0.0551 -0.29127,-0.13523 -0.4231,-0.24039 -0.10684,-0.096 -0.19988,-0.22952 -0.27913,-0.4006 -0.0451,-0.18695 -0.0993,-0.34886 -0.1627,-0.48573 -0.0292,-0.15273 -0.0401,-0.35553 -0.0325,-0.60839 0.0325,-0.2437 0.0468,-0.43731 0.0426,-0.58085 0.005,-0.16859 0.033,-0.39976 0.0839,-0.69351 0.0509,-0.29377 0.0868,-0.50783 0.10771,-0.64219 0.0459,-0.12518 0.0943,-0.33465 0.14526,-0.62841 0.0509,-0.29376 0.0901,-0.47819 0.11771,-0.5533 -1.1409,0.63251 -2.66066,1.09766 -4.55929,1.39546 -1.86443,0.28194 -3.34743,0.22091 -4.44901,-0.18309 -0.70101,-0.2571 -1.4984,-0.67735 -2.39216,-1.26077 -0.89377,-0.58342 -1.5063,-1.1205 -1.83758,-1.61125 -0.56493,-0.86047 -0.50308,-2.22955 0.18558,-4.10725 0.404,-1.10159 1.06586,-1.93818 1.98559,-2.50979 0.91971,-0.5716 2.34016,-0.95956 4.26133,-1.16389 2.16735,-0.25605 4.05218,-0.0902 5.6545,0.49739 0.70099,0.2571 1.24469,0.55591 1.63108,0.89643 0.41139,0.34972 0.69637,0.69566 0.85493,1.03783 0.19274,0.32633 0.30163,0.49409 0.32669,0.50327 0.37301,0.22202 0.66383,0.5133 0.87246,0.87384 0.60599,-1.65237 1.03589,-3.0569 1.2897,-4.21358 0.28799,-1.17252 0.40322,-2.06758 0.3457,-2.68516 -0.0576,-0.61757 -0.17478,-1.07241 -0.35166,-1.36453 -0.17693,-0.29209 -0.44063,-0.50242 -0.79111,-0.63098 -1.20175,-0.44072 -2.59086,-0.68034 -4.16731,-0.71886 -1.55146,-0.0293 -2.9823,-2e-4 -4.29255,0.0873 -1.27605,0.0717 -2.16443,0.0157 -2.66514,-0.16795 -0.62592,-0.22953 -0.83327,-0.63222 -0.62208,-1.20806 0.12854,-0.35049 0.31842,-0.6359 0.56965,-0.85622 0.26039,-0.24532 0.52746,-0.43141 0.80121,-0.55826 0.29877,-0.11763 0.71021,-0.19396 1.23433,-0.22899 0.55831,-0.0509 1.0482,-0.07 1.46966,-0.0575 0.45565,-0.003 1.10494,0.008 1.94785,0.0327 0.85207,8e-5 1.59023,9.7e-4 2.2145,0.003 1.69496,0.0252 3.10576,0.24435 4.2324,0.65752 2.0279,0.74375 3.19366,2.25063 3.4973,4.52063 0.13844,1.01651 0.11668,1.88904 -0.0653,2.61759 -0.15697,0.73774 -0.83019,2.80572 -2.01966,6.20394 -1.11606,3.19794 -1.90782,5.70531 -2.37528,7.52211"
         id="path4180"
         inkscape:connector-curvature="0" />
      <path
         d="m 247.41554,716.61121 c -0.76912,-0.37349 -1.86927,-0.81162 -3.30048,-1.31439 -1.3949,-0.51283 -2.31287,-0.89392 -2.75393,-1.14327 -0.99822,-0.56428 -1.27423,-1.24106 -0.82803,-2.03036 0.35431,-0.62676 1.0644,-0.85332 2.13027,-0.67966 1.06585,0.1737 2.25484,0.50889 3.56697,1.00556 1.33532,0.50982 2.22958,0.7703 2.6828,0.78141 0.29067,-0.0807 0.66568,-0.52732 1.12501,-1.33983 0.4724,-0.83569 0.98473,-1.98581 1.53696,-3.45036 0.55219,-1.4645 1.13669,-2.74229 1.7535,-3.83338 0.41991,-0.74283 0.92562,-1.17681 1.51713,-1.30196 0.60459,-0.14831 1.13903,-0.0912 1.60334,0.17119 0.51068,0.28874 0.75239,0.70107 0.72514,1.23701 -0.0808,0.41385 -0.74305,2.04592 -1.98673,4.89621 -1.23061,2.82712 -1.92919,4.46928 -2.09574,4.92649 0.19881,0.0818 0.86648,0.33669 2.003,0.76472 1.17281,0.41796 2.03779,0.78441 2.59496,1.09935 0.78925,0.4462 1.27421,0.88883 1.45489,1.3279 0.18061,0.43909 0.18563,0.80952 0.0151,1.11129 -0.24937,0.44108 -0.76112,0.6419 -1.53526,0.60248 -0.77419,-0.0394 -2.0621,-0.30798 -3.86373,-0.80572 l -2.16197,-0.80864 -2.71349,5.4503 c -1.66466,3.37818 -3.07191,6.62617 -4.22175,9.74397 -1.14987,3.11779 -1.84947,4.89722 -2.09879,5.3383 -0.57743,1.02141 -1.40007,1.23029 -2.4679,0.62664 -0.6268,-0.35434 -1.02546,-0.73287 -1.196,-1.1356 -0.34212,-1.02048 0.0511,-2.52892 1.17972,-4.52533 0.4593,-0.8125 0.87874,-1.66285 1.25833,-2.55105 0.39268,-0.91141 0.9782,-2.32648 1.75655,-4.2452 0.81466,-1.9288 1.67374,-3.90908 2.57726,-5.94085 1.13265,-2.54549 1.71361,-3.87122 1.74291,-3.97722"
         id="path4182"
         inkscape:connector-curvature="0" />
      <path
         d="m 253.09094,742.61882 c 0.29711,-0.34239 0.64117,-0.55578 1.03217,-0.64018 0.40847,-0.10453 0.74362,-0.0432 1.00546,0.18402 0.50351,0.43694 0.64075,1.1739 0.41171,2.2109 -0.14548,0.61521 -0.0117,1.43748 0.40148,2.46682 0.43061,1.0092 0.96817,1.79344 1.61268,2.35272 0.80561,0.6991 1.92525,0.89393 3.35892,0.5845 1.47126,-0.3121 2.41662,-0.70984 2.8361,-1.19321 0.0699,-0.0806 0.13581,-0.21756 0.19774,-0.41097 0.0794,-0.21356 0.0917,-0.5736 0.0369,-1.08011 -0.0346,-0.48904 -0.21099,-0.97749 -0.52906,-1.46536 -0.51003,-0.79564 -1.03676,-1.69407 -1.58022,-2.69528 -0.526,-1.02135 -0.94537,-1.73834 -1.25812,-2.15098 -0.49937,-0.64517 -0.9279,-1.75848 -1.28559,-3.33995 -0.35772,-1.58145 -0.18702,-2.775 0.51209,-3.58063 0.69909,-0.80562 2.17319,-1.34476 4.4223,-1.61742 2.24909,-0.27263 4.37684,0.14383 6.38328,1.2494 l 3.25705,2.34972 c 0.54377,0.4719 0.89549,0.90068 1.05514,1.28635 0.17708,0.36553 0.26738,0.9735 0.2709,1.8239 0.003,1.37972 -0.15258,2.25085 -0.46715,2.61338 -0.43696,0.50352 -0.91726,0.52807 -1.44089,0.0737 -0.44312,-0.3845 -0.6953,-1.00936 -0.75653,-1.87458 -0.0237,-0.86788 -0.3678,-1.5902 -1.03242,-2.16696 -0.90635,-0.78648 -2.08017,-1.3461 -3.52146,-1.67884 -1.40371,-0.3354 -2.63221,-0.46581 -3.6855,-0.39125 -1.03585,0.0544 -1.65863,0.2025 -1.86834,0.44418 -0.13984,0.16113 -0.1951,0.44859 -0.16579,0.86239 0.0669,0.41114 0.24991,0.99364 0.54904,1.7475 0.31924,0.77134 0.76542,1.59985 1.33852,2.48554 1.57296,2.4595 2.5001,4.34091 2.78142,5.64424 0.28128,1.30331 -0.05,2.49877 -0.99372,3.58637 -0.82146,0.94661 -1.73545,1.65403 -2.74197,2.12227 -0.85875,0.41995 -2.00685,0.6241 -3.44432,0.61246 -1.45497,0.008 -2.61547,-0.36305 -3.48151,-1.11457 -0.62437,-0.54181 -1.36142,-1.34028 -2.21115,-2.39541 -0.84708,-1.01753 -1.43765,-1.88308 -1.77172,-2.59666 -0.25084,-0.60606 -0.30278,-1.33961 -0.1558,-2.20067 0.16446,-0.8812 0.47389,-1.58362 0.92831,-2.10728"
         id="path4184"
         inkscape:connector-curvature="0" />
    </g>
    <path
       style="fill:none;stroke:none"
       d="m 41,100 c 0,0 52.002219,-37.653875 110,-37 78.00145,0.879399 111,39 111,39"
       id="path4135"
       inkscape:connector-curvature="0"
       transform="translate(0,652.36218)"
       sodipodi:nodetypes="csc" />
    <g
       transform="matrix(1.0386789,0,0,1.1404389,312.96111,-46.808607)"
       style="font-size:36px;font-style:normal;font-variant:normal;font-weight:bold;font-stretch:normal;text-align:center;line-height:125%;letter-spacing:0px;word-spacing:0px;text-anchor:middle;fill:#bbde27;fill-opacity:1;stroke:#ff0900;stroke-width:2;stroke-miterlimit:4;stroke-opacity:1;font-family:Purisa;-inkscape-font-specification:Purisa Bold"
       id="text4131-4">
      <path
         d="m 47.120738,736.3705 c -0.455168,-0.98991 -0.982503,-2.43105 -1.582006,-4.32342 -0.612342,-1.91262 -1.040297,-3.06169 -1.283866,-3.44721 -0.320503,-0.5072 -1.075151,-1.09498 -2.263944,-1.76333 -1.181336,-0.70141 -1.987209,-1.10067 -2.417623,-1.19781 -0.279814,0.006 -0.653045,0.15716 -1.119694,0.45198 -0.913016,0.57693 -1.958915,1.55007 -3.137701,2.91943 -2.494243,2.88194 -2.843817,6.55214 -1.048725,11.01061 0.591939,1.38614 0.996877,2.25166 1.214813,2.59657 0.423055,0.66955 1.281877,1.48959 2.576468,2.46013 2.89574,2.20162 5.266768,2.71913 7.113093,1.55251 0.466642,-0.29484 0.943941,-0.75257 1.431898,-1.37318 0.495406,-0.65369 0.815529,-2.03412 0.96037,-4.1413 0.152288,-2.14026 0.0046,-3.72192 -0.443083,-4.74498 m 2.984749,9.44148 c -0.08117,0.0513 -0.127603,0.17999 -0.139296,0.3861 0.0086,0.19332 -0.0085,0.34604 -0.05117,0.45818 -0.176153,0.3952 -0.661981,0.92929 -1.457485,1.60227 -0.782708,0.69328 -1.57984,1.29632 -2.391397,1.8091 -0.608686,0.3846 -1.167195,0.62394 -1.675529,0.71802 -0.475241,0.10156 -1.151804,0.13159 -2.029689,0.0901 -1.740851,-0.14917 -3.627058,-0.88784 -5.658628,-2.21602 -2.031569,-1.32817 -3.572967,-2.82411 -4.624197,-4.48783 -1.205059,-1.90717 -1.973905,-4.08998 -2.30654,-6.54844 -0.332622,-2.45842 -0.09381,-4.59657 0.71642,-6.41446 0.760081,-1.67259 1.451926,-2.73431 2.075537,-3.18515 0.136677,-0.14311 0.33255,-0.66432 0.587617,-1.56364 0.255074,-0.89927 0.615935,-1.49634 1.082584,-1.79123 0.284051,-0.17945 0.474626,-0.48439 0.571726,-0.91484 0.104573,-0.4635 0.471341,-0.89397 1.100305,-1.29142 1.724581,-1.08965 3.594074,-1.16371 5.608485,-0.22218 2.021869,0.90849 3.866095,2.68152 5.532683,5.31908 1.064035,1.68403 1.953503,3.56351 2.668408,5.63844 0.702058,2.05469 1.155256,3.94013 1.359595,5.65632 0.224598,1.70341 0.25106,3.20553 0.07939,4.50635 -0.171704,1.30086 -0.521307,2.11793 -1.048812,2.45124"
         style="font-size:36px"
         id="path4187"
         inkscape:connector-curvature="0" />
      <path
         d="m 57.317242,719.92797 c -0.666039,0.38541 -1.547067,0.98512 -2.643086,1.79915 -1.085231,0.78189 -1.831932,1.27448 -2.240106,1.47777 -0.923742,0.46014 -1.567525,0.325 -1.931348,-0.40543 -0.288906,-0.58001 -0.100098,-1.22371 0.566424,-1.9311 0.666536,-0.70735 1.515544,-1.42518 2.547027,-2.15349 1.052974,-0.73896 1.697776,-1.27464 1.934407,-1.60703 0.08626,-0.25744 -0.05787,-0.76212 -0.432391,-1.51403 -0.385214,-0.77335 -0.984808,-1.73487 -1.798783,-2.88458 -0.813965,-1.14966 -1.472412,-2.22934 -1.975341,-3.23905 -0.342409,-0.6874 -0.411269,-1.2832 -0.20658,-1.78738 0.194002,-0.52559 0.505825,-0.89541 0.93547,-1.10946 0.472621,-0.23537 0.901904,-0.20789 1.287851,0.0825 0.267924,0.26877 1.151407,1.58492 2.650451,3.94846 1.488347,2.34211 2.361048,3.69045 2.618104,4.045 0.161159,-0.10706 0.687644,-0.47655 1.579456,-1.10848 0.90259,-0.66405 1.611677,-1.1245 2.127261,-1.38134 0.730402,-0.36379 1.304835,-0.50244 1.723301,-0.41597 0.418455,0.0865 0.697238,0.26942 0.836351,0.54866 0.203302,0.4082 0.09524,0.89102 -0.324195,1.44848 -0.419446,0.55751 -1.268617,1.38267 -2.547517,2.47548 l -1.6923,1.20491 2.697502,4.76961 c 1.680622,2.94345 3.393841,5.62934 5.13966,8.05767 1.745799,2.42835 2.720358,3.8466 2.92368,4.25477 0.470808,0.94523 0.212121,1.66396 -0.776063,2.15618 -0.58004,0.28891 -1.063193,0.39551 -1.449459,0.31979 -0.9334,-0.25901 -1.860215,-1.31227 -2.780448,-3.15977 -0.374524,-0.75188 -0.797356,-1.49311 -1.268497,-2.22369 -0.481855,-0.75204 -1.242159,-1.90164 -2.280917,-3.4488 -1.027984,-1.57932 -2.071974,-3.21771 -3.131973,-4.91517 -1.327676,-2.12716 -2.023656,-3.22837 -2.087941,-3.30362"
         style="font-size:36px"
         id="path4189"
         inkscape:connector-curvature="0" />
      <path
         d="m 79.194386,727.55811 c -0.7048,-1.81173 -2.329367,-5.32582 -4.873706,-10.54229 -2.530666,-5.2475 -4.109245,-8.67648 -4.73574,-10.28693 -0.495962,-1.2749 -0.706685,-2.08137 -0.632171,-2.41942 0.136615,-0.77417 0.406222,-1.23958 0.808823,-1.39623 0.603919,-0.2349 1.166886,0.0869 1.688901,0.96537 0.535693,0.84747 1.707796,3.19847 3.516315,7.05301 0.983187,2.06399 1.780551,3.74958 2.392092,5.05679 l 1.06833,2.24974 c 0.213585,-1.37068 0.962086,-3.21986 2.245508,-5.54754 1.297081,-2.35872 2.325863,-3.68601 3.086352,-3.98188 0.760475,-0.29581 1.635941,-0.26298 2.6264,0.0985 0.990441,0.36153 1.749773,0.8902 2.277998,1.58602 0.479731,0.63746 1.602776,3.22644 3.369138,7.76695 l 0.274088,0.70456 c 1.696723,4.3616 2.097749,6.71642 1.203081,7.06446 -0.469726,0.18273 -0.906551,-0.0465 -1.310476,-0.68767 -0.381588,-0.64987 -1.027935,-2.04656 -1.939041,-4.19008 -0.300819,-0.70703 -0.540717,-1.25751 -0.719693,-1.65143 -1.787446,-4.19753 -3.135417,-6.80202 -4.043915,-7.81347 l -0.773665,-0.8965 -1.08836,1.96851 c -0.775278,1.3832 -1.382156,2.86827 -1.820636,4.45519 -0.438489,1.58696 -0.642759,2.9154 -0.612811,3.98532 0.06096,0.6201 0.315212,1.77016 0.762768,3.4502 0.469913,1.67135 0.779498,3.09603 0.928757,4.27407 0.149247,1.17804 -0.03335,1.86712 -0.547786,2.06724 -0.223677,0.087 -0.555473,0.0616 -0.99539,-0.0763 -0.67107,-0.20248 -1.389456,-1.28787 -2.155161,-3.25618"
         style="font-size:36px"
         id="path4191"
         inkscape:connector-curvature="0" />
      <path
         d="m 115.89646,710.1406 c 0.4174,-0.1113 0.69104,0.0765 0.82092,0.5635 0.14222,0.53337 0.01,1.3883 -0.39652,2.56478 -0.41279,1.15331 -0.87503,2.12109 -1.38672,2.90335 -2.00358,2.91882 -4.38514,4.74618 -7.14469,5.48208 -2.27259,0.60604 -4.56295,0.26054 -6.8711,-1.03652 -2.308149,-1.29705 -3.879649,-3.51088 -4.714499,-6.64148 -0.234994,-0.88119 -0.33317,-1.76163 -0.294528,-2.6413 0.10357,-1.5676 0.794607,-3.35398 2.073114,-5.35914 1.272321,-2.02831 2.685333,-3.24964 4.239043,-3.66399 0.4174,-0.11129 1.0412,-0.24039 1.8714,-0.38728 1.27696,-0.24116 2.19218,-0.34862 2.74565,-0.32236 0.57045,-0.003 1.25068,0.12601 2.04069,0.38725 0.87192,0.28911 1.72994,0.80546 2.57406,1.54905 0.83791,0.72044 1.34654,1.4169 1.52589,2.08937 0.23498,0.88123 0.0487,1.62639 -0.55885,2.23549 -0.60758,0.60913 -1.72299,1.31643 -3.34625,2.12188 -2.1319,1.04047 -4.37356,1.94874 -6.72497,2.72483 l -2.989141,0.94616 0.241179,0.90439 c 0.228808,0.85803 0.615302,1.56222 1.159502,2.11257 0.56737,0.54419 1.37592,1.06131 2.42564,1.55137 1.50114,0.69259 2.88943,0.86882 4.16487,0.52869 1.02033,-0.27209 2.01825,-0.86112 2.99377,-1.76707 0.9693,-0.92913 1.74924,-1.86986 2.33981,-2.8222 0.61373,-0.9585 1.21124,-1.83816 1.79254,-2.63899 0.59827,-0.83018 1.07133,-1.29166 1.41919,-1.38443 m -5.95281,-4.29932 c -0.0495,-0.1855 -0.68643,-0.52483 -1.91083,-1.01801 -0.8905,-0.35864 -1.51662,-0.56425 -1.87837,-0.61683 -0.33858,-0.0587 -0.79773,-0.0108 -1.37746,0.14379 -1.15949,0.30922 -1.99277,0.63079 -2.49984,0.9647 -0.49007,0.30458 -0.95927,0.82713 -1.4076,1.56763 -1.338797,2.24479 -1.940171,3.62225 -1.804119,4.13241 l -0.04406,-0.0255 c 0.09894,-0.002 0.310739,-0.0456 0.635395,-0.13218 2.249384,-0.59984 5.263254,-1.82582 9.041614,-3.67795 0.94767,-0.45141 1.36276,-0.89743 1.24527,-1.33805"
         style="font-size:36px"
         id="path4193"
         inkscape:connector-curvature="0" />
      <path
         d="m 134.25211,698.43653 c 0.45214,-0.0591 0.8588,-0.003 1.21998,0.16723 0.35804,0.14684 0.59711,0.30921 0.71721,0.48712 0.14387,0.17484 0.22514,0.33365 0.24383,0.47641 0.0622,0.47597 -0.42755,0.98779 -1.46931,1.53547 -1.38009,0.73718 -2.7868,2.28866 -4.22014,4.65447 -1.40956,2.36271 -2.1699,4.5074 -2.28102,6.43406 -0.13787,2.46267 -0.31014,4.10688 -0.51681,4.93265 -0.20357,0.84956 -0.60282,1.31324 -1.19775,1.39104 -0.23798,0.0311 -0.45682,0.0234 -0.65653,-0.0231 -0.17281,-0.0258 -0.3296,-0.11423 -0.47037,-0.26526 -0.14077,-0.15102 -0.25463,-0.28136 -0.34158,-0.39101 -0.0869,-0.10965 -0.18324,-0.29069 -0.28886,-0.54313 -0.0849,-0.27934 -0.14708,-0.47695 -0.18644,-0.59283 -0.0187,-0.14278 -0.072,-0.36575 -0.16007,-0.66889 -0.0674,-0.33005 -0.10572,-0.53077 -0.11505,-0.60217 -1.2993,-5.4939 -2.19634,-10.13274 -2.69111,-13.91655 -0.10269,-0.78529 -0.13445,-1.39835 -0.0953,-1.83917 0.0361,-0.46458 0.22269,-0.88835 0.55989,-1.27132 0.20996,-0.24528 0.45773,-0.3866 0.7433,-0.42396 0.30937,-0.0404 0.58825,0.0562 0.83666,0.28997 0.24529,0.20999 0.39439,0.51725 0.4473,0.92179 0.11513,0.88052 0.39748,2.11432 0.84707,3.70141 0.47025,1.56021 0.87159,2.77846 1.20403,3.65474 0.15614,-0.28666 0.37691,-0.727 0.6623,-1.32103 0.71137,-1.59367 1.79992,-3.07935 3.26568,-4.45704 1.46262,-1.40145 2.77697,-2.17843 3.94306,-2.33093"
         style="font-size:36px"
         id="path4195"
         inkscape:connector-curvature="0" />
      <path
         d="m 182.3765,712.67816 c 0.61825,-0.47659 1.06796,-0.8661 1.34911,-1.16853 0.30492,-0.29934 0.59417,-0.75801 0.86776,-1.37602 0.27355,-0.61799 0.4704,-1.39112 0.59054,-2.31939 0.34801,-2.68956 -0.51334,-4.16833 -2.58405,-4.4363 -0.61886,-0.0801 -1.26038,-0.0784 -1.92457,0.005 -0.66421,0.0835 -1.47164,0.24519 -2.42229,0.48516 -0.92379,0.21927 -1.47206,0.34193 -1.64482,0.36796 -0.22346,0.0437 -0.37985,0.41066 -0.46916,1.1009 -0.0647,0.49984 -0.15834,1.50412 -0.28096,3.01285 -0.0756,0.95823 -0.1323,1.67689 -0.17009,2.156 -0.014,0.4822 0.009,0.95711 0.0697,1.42473 0.0605,0.46763 0.11564,0.78937 0.1655,0.96522 0.0767,0.15513 0.24865,0.32258 0.5158,0.50235 0.2702,0.15597 0.52278,0.26125 0.75773,0.31585 0.2618,0.0339 0.66489,0.0981 1.20926,0.19278 0.11899,0.0154 0.27216,0.0473 0.45951,0.0958 0.2142,0.0277 0.36891,0.0477 0.46413,0.0601 0.54742,0.0708 0.96282,0.0399 1.24622,-0.0928 0.30716,-0.12965 0.90737,-0.56018 1.80064,-1.2916 m 2.89798,-19.59008 c 0.0154,-0.11899 -0.0287,-0.24569 -0.13231,-0.38012 -0.0798,-0.13131 -0.33815,-0.28574 -0.77495,-0.46329 -0.40997,-0.19822 -0.96007,-0.342 -1.65029,-0.43135 -0.99969,-0.12933 -2.11724,-0.18924 -3.35266,-0.17973 -1.23545,0.01 -2.01712,0.0657 -2.34501,0.16845 -0.19966,0.0468 -0.33491,0.34389 -0.40574,0.8913 l -0.0924,0.71405 c -0.15401,1.1901 -0.22134,2.64549 -0.20199,4.36618 0.0224,1.69692 0.0804,2.74503 0.17392,3.14432 0.0467,0.19967 0.12964,0.30719 0.24866,0.32258 0.46146,-0.0129 1.5839,-0.73883 3.36733,-2.17788 1.80721,-1.43593 3.12874,-2.76533 3.9646,-3.98819 0.78205,-1.18138 1.18233,-1.84349 1.20083,-1.98632 m -13.13088,-0.35605 c -1.4995,-0.19401 -2.19689,-0.69566 -2.09217,-1.50493 0.12935,-0.99964 2.25496,-1.71679 6.37683,-2.15145 1.69157,-0.16828 4.12016,-0.0476 7.28578,0.36199 0.59502,0.077 1.04571,0.14745 1.35207,0.21126 0.3332,0.0431 0.64529,0.15613 0.93625,0.33895 0.3178,0.16216 0.51969,0.28508 0.60568,0.36878 0.11282,0.063 0.38878,0.26814 0.82788,0.61533 0.28476,0.23048 0.48273,0.5707 0.59393,1.02066 0.13803,0.42929 0.19011,0.77483 0.15626,1.03662 -0.12855,0.8062 -0.4164,1.62805 -0.86355,2.46557 -0.4472,0.83756 -0.88627,1.51885 -1.31719,2.04387 -0.40408,0.50433 -0.88724,1.05891 -1.44949,1.66374 -0.56229,0.60486 -0.88529,0.95026 -0.96899,1.03621 0.61574,0.1039 1.38341,0.52994 2.30302,1.27812 0.94644,0.72749 1.54205,1.36116 1.78681,1.90102 0.49254,1.05596 0.62024,2.50029 0.38311,4.333 -0.36962,2.85619 -1.55099,5.15962 -3.54411,6.91031 -1.96937,1.75378 -3.7871,2.52286 -5.45319,2.30727 -0.30943,-0.04 -0.66912,-0.15919 -1.07905,-0.35743 -0.40996,-0.19825 -0.72204,-0.31124 -0.93624,-0.33896 -0.26183,-0.0339 -0.72792,0.0147 -1.39827,0.14577 -0.64349,0.11033 -1.13184,0.14394 -1.46506,0.10082 -0.40463,-0.0524 -0.73589,-0.20413 -0.99378,-0.4553 -0.25791,-0.25117 -0.45127,-0.62709 -0.58007,-1.12777 -0.10502,-0.49758 -0.16817,-1.03816 -0.18945,-1.62172 -0.0213,-0.58355 -0.0107,-1.32028 0.0319,-2.21018 0.0425,-0.88989 0.0836,-1.76789 0.12304,-2.63399 0.0663,-0.88681 0.1201,-1.95676 0.16126,-3.20984 0.0649,-1.24999 0.0865,-2.44511 0.0646,-3.58535 -0.006,-1.45272 0.0508,-3.47823 0.16921,-6.07653 l 0.1369,-2.7411 -0.96396,-0.12474"
         style="font-size:36px"
         id="path4197"
         inkscape:connector-curvature="0" />
      <path
         d="m 212.95449,715.94289 c 0.41767,0.11025 0.56221,0.40903 0.43361,0.89634 -0.14089,0.53372 -0.67948,1.21069 -1.61578,2.0309 -0.93021,0.79701 -1.81141,1.40837 -2.64358,1.83409 -3.18699,1.54174 -6.16119,1.9482 -8.92261,1.21936 -2.27413,-0.60023 -4.092,-2.03567 -5.45362,-4.30633 -1.36162,-2.27066 -1.62901,-4.97235 -0.80217,-8.10508 0.23274,-0.88179 0.58392,-1.6951 1.05355,-2.43993 0.86703,-1.31009 2.35273,-2.51898 4.45708,-3.62664 2.11046,-1.13085 3.94307,-1.4911 5.49784,-1.08076 0.41768,0.11026 1.02344,0.30738 1.81727,0.59134 1.22857,0.42357 2.07669,0.78394 2.54435,1.08111 0.49695,0.28011 1.02373,0.72942 1.58034,1.34793 0.61393,0.68331 1.10314,1.55709 1.46764,2.62133 0.37058,1.04105 0.46707,1.89805 0.28947,2.571 -0.23276,0.88181 -0.76393,1.43662 -1.59352,1.66445 -0.82963,0.22783 -2.14897,0.28917 -3.95802,0.18402 -2.3673,-0.15319 -4.76439,-0.4756 -7.19128,-0.96722 l -3.06504,-0.66004 -0.23886,0.90501 c -0.22663,0.8586 -0.24004,1.66177 -0.0402,2.40951 0.22299,0.75388 0.66886,1.6038 1.3376,2.54978 0.96038,1.34564 2.07873,2.18689 3.35503,2.52375 1.02102,0.26949 2.17969,0.25262 3.47601,-0.0506 1.30241,-0.32643 2.44611,-0.75681 3.4311,-1.29114 1.00816,-0.52821 1.96316,-0.99598 2.86499,-1.40333 0.93112,-0.42443 1.57073,-0.59071 1.91884,-0.49884 m -3.03868,-6.6848 c 0.049,-0.18563 -0.33598,-0.79608 -1.15488,-1.83136 -0.5956,-0.75291 -1.03745,-1.24185 -1.32556,-1.46684 -0.26494,-0.21884 -0.68746,-0.40483 -1.26758,-0.55796 -1.16028,-0.30622 -2.04338,-0.44002 -2.64929,-0.40138 -0.57661,0.0216 -1.24313,0.24281 -1.99958,0.66369 -2.2755,1.28589 -3.48062,2.18409 -3.61536,2.69459 l -0.0256,-0.044 c 0.0867,0.0477 0.29248,0.11444 0.61736,0.20017 2.25091,0.59411 5.47614,1.02339 9.67572,1.28785 1.0468,0.0777 1.6284,-0.10386 1.74479,-0.54477"
         style="font-size:36px"
         id="path4199"
         inkscape:connector-curvature="0" />
      <path
         d="m 226.64622,726.18547 c 0.11125,-0.26564 0.66194,-0.55539 1.65208,-0.86923 0.99011,-0.31385 1.53333,-0.55469 1.62966,-0.72251 0.0371,-0.0886 0.0217,-0.23811 -0.0462,-0.4487 -0.0679,-0.21059 -0.34795,-0.53603 -0.84003,-0.97634 -0.46999,-0.43102 -1.15877,-0.83661 -2.06636,-1.21677 -0.97402,-0.40796 -1.88655,-0.62105 -2.73758,-0.63925 -0.82892,-0.009 -1.50855,0.12273 -2.03889,0.39497 -0.53037,0.27225 -0.9472,0.55301 -1.2505,0.84229 -0.30331,0.28929 -0.5106,0.56675 -0.62185,0.83239 -0.18545,0.44273 -0.27278,0.74441 -0.262,0.90505 0.0422,0.14777 0.19685,0.36867 0.464,0.66271 0.40355,0.40321 0.77135,0.67436 1.10341,0.81344 0.487,0.20398 1.14675,0.33721 1.97926,0.39968 0.83249,0.0625 1.54967,0.0897 2.15154,0.0815 l 0.8835,-0.0593 m 5.08678,4.62855 c -0.25755,0.4906 -0.64222,0.84988 -1.15401,1.07786 -0.48042,0.2151 -0.8313,0.27629 -1.05265,0.18358 -0.13284,-0.0556 -0.25639,-0.13341 -0.37065,-0.23331 -0.0922,-0.0906 -0.17038,-0.21448 -0.23469,-0.37151 -0.0329,-0.16992 -0.0751,-0.31769 -0.12656,-0.44332 -0.0201,-0.1385 -0.0216,-0.32127 -0.005,-0.54831 0.0392,-0.21778 0.0598,-0.39128 0.0619,-0.52051 0.0113,-0.15136 0.0459,-0.35807 0.10361,-0.62011 0.0577,-0.26205 0.0987,-0.45305 0.12292,-0.573 0.0463,-0.11069 0.0984,-0.29706 0.15611,-0.5591 0.0577,-0.26205 0.10047,-0.42628 0.12831,-0.49268 -1.05146,0.52234 -2.43674,0.87884 -4.15585,1.06949 -1.68773,0.17778 -3.01859,0.0627 -3.99259,-0.34528 -0.61984,-0.25962 -1.31969,-0.66984 -2.09956,-1.23068 -0.77989,-0.56084 -1.30879,-1.06859 -1.58671,-1.52326 -0.47298,-0.79658 -0.36177,-2.02498 0.33363,-3.68523 0.40796,-0.97401 1.03701,-1.6993 1.88713,-2.17588 0.85011,-0.47656 2.14296,-0.7677 3.87856,-0.87339 1.95902,-0.1422 3.64691,0.0834 5.06367,0.67681 0.61981,0.25962 1.0965,0.55035 1.43007,0.8722 0.35568,0.33113 0.59784,0.65373 0.72651,0.96782 0.16004,0.30122 0.25113,0.45647 0.27329,0.46574 0.32635,0.21476 0.57599,0.48846 0.74893,0.82108 0.61193,-1.46101 1.05548,-2.70634 1.33065,-3.73599 0.30654,-1.0425 0.44649,-1.84255 0.41985,-2.40014 -0.0267,-0.55758 -0.11359,-0.97128 -0.26076,-1.24111 -0.14721,-0.2698 -0.37577,-0.46961 -0.68566,-0.59943 -1.06258,-0.44504 -2.30176,-0.71689 -3.71756,-0.81553 -1.3937,-0.0894 -2.68133,-0.12129 -3.86291,-0.0958 -1.15019,0.0126 -1.94664,-0.0738 -2.38937,-0.25922 -0.55342,-0.23179 -0.7235,-0.60226 -0.51024,-1.11141 0.1298,-0.3099 0.31211,-0.55879 0.54693,-0.74668 0.24408,-0.20999 0.49175,-0.36645 0.74303,-0.46938 0.2734,-0.0936 0.64642,-0.14556 1.11906,-0.15577 0.50403,-0.0231 0.94526,-0.0204 1.32368,0.008 0.40981,0.0156 0.99312,0.0517 1.74996,0.10849 0.76607,0.0347 1.42971,0.0654 1.99091,0.0923 1.52289,0.0915 2.78241,0.3458 3.77858,0.76303 1.79305,0.75104 2.77998,2.15319 2.96079,4.20644 0.0832,0.91955 0.0282,1.70314 -0.16499,2.35078 -0.17109,0.65692 -0.86035,2.48886 -2.06777,5.49585 -1.13329,2.82989 -1.94697,5.05207 -2.44103,6.66654"
         style="font-size:36px"
         id="path4201"
         inkscape:connector-curvature="0" />
      <path
         d="m 251.2308,721.31381 c -0.67966,-0.36084 -1.65497,-0.79053 -2.92594,-1.28907 -1.23799,-0.50641 -2.0513,-0.8789 -2.43991,-1.11746 -0.87955,-0.53984 -1.10588,-1.15749 -0.679,-1.85295 0.33896,-0.55225 0.98497,-0.73302 1.93801,-0.54231 0.95301,0.19074 2.01156,0.53071 3.17563,1.01992 1.1845,0.50179 1.98038,0.76502 2.38765,0.78969 0.26405,-0.0632 0.6158,-0.45273 1.05524,-1.16864 0.45195,-0.73633 0.94999,-1.75418 1.4941,-3.05354 0.54407,-1.29932 1.11116,-2.42966 1.70126,-3.39103 0.40173,-0.65451 0.87063,-1.02847 1.4067,-1.12187 0.54857,-0.11381 1.02741,-0.0452 1.43653,0.20589 0.44996,0.27623 0.65401,0.65492 0.61214,1.13606 -0.0861,0.36961 -0.73456,1.81608 -1.94545,4.33941 -1.19838,2.50291 -1.87987,3.95728 -2.04447,4.3631 0.17616,0.08 0.76842,0.33089 1.77677,0.75266 1.0413,0.41391 1.80742,0.77151 2.29835,1.07281 0.69542,0.42688 1.11727,0.84069 1.26555,1.24145 0.14823,0.40077 0.14075,0.73411 -0.0224,1 -0.23857,0.38864 -0.70535,0.5527 -1.40034,0.49216 -0.69505,-0.0605 -1.84472,-0.34377 -3.44902,-0.84979 l -1.91833,-0.79731 -2.61705,4.81423 c -1.60662,2.98449 -2.9775,5.86021 -4.11265,8.62718 -1.13517,2.76696 -1.82202,4.34476 -2.06055,4.73339 -0.55243,0.89998 -1.29908,1.06121 -2.23997,0.4837 -0.55227,-0.33899 -0.89858,-0.69236 -1.03893,-1.06011 -0.27465,-0.92891 0.12788,-2.2729 1.20761,-4.03196 0.43941,-0.7159 0.8442,-1.46713 1.21437,-2.2537 0.3827,-0.80703 0.95514,-2.0608 1.71734,-3.76133 0.79517,-1.70842 1.63198,-3.4617 2.51041,-5.25984 1.10115,-2.25278 1.66661,-3.42636 1.69639,-3.52074"
         style="font-size:36px"
         id="path4203"
         inkscape:connector-curvature="0" />
      <path
         d="m 255.51269,744.84471 c 0.27693,-0.29962 0.59245,-0.48188 0.94656,-0.54676 0.37039,-0.0825 0.67014,-0.0179 0.89927,0.1939 0.44061,0.40725 0.54327,1.07407 0.30799,2.00045 -0.14823,0.5493 -0.051,1.29276 0.29156,2.23037 0.35889,0.91998 0.82032,1.64061 1.38432,2.16191 0.70498,0.6516 1.70666,0.85845 3.00506,0.62055 1.33228,-0.23925 2.19391,-0.57037 2.58489,-0.99335 0.0652,-0.0705 0.12831,-0.19188 0.18948,-0.36412 0.0774,-0.18987 0.0987,-0.51339 0.0637,-0.97057 -0.0174,-0.4409 -0.16222,-0.88527 -0.43458,-1.33311 -0.43635,-0.73011 -0.88484,-1.55316 -1.34546,-2.46914 -0.44435,-0.9336 -0.80138,-1.59041 -1.07107,-1.97042 -0.43101,-0.59445 -0.78509,-1.60804 -1.06224,-3.04075 -0.27717,-1.4327 -0.0899,-2.50155 0.56167,-3.20654 0.6516,-0.70498 1.99285,-1.14838 4.02375,-1.33019 2.03087,-0.18181 3.93316,0.25285 5.70688,1.30398 l 2.86361,2.2056 c 0.47585,0.43984 0.78014,0.83548 0.91287,1.18691 0.14898,0.33381 0.21306,0.88326 0.19224,1.64835 -0.0361,1.24123 -0.20076,2.02046 -0.49396,2.33771 -0.40728,0.44061 -0.84003,0.44915 -1.29824,0.0256 -0.38777,-0.35838 -0.59699,-0.9276 -0.62766,-1.70764 0.003,-0.78137 -0.28599,-1.44085 -0.86758,-1.97843 -0.79313,-0.73306 -1.83326,-1.26958 -3.1204,-1.60956 -1.25325,-0.34131 -2.35468,-0.49328 -3.30428,-0.45593 -0.93334,0.0197 -1.49775,0.13537 -1.69322,0.34686 -0.13033,0.141 -0.18815,0.39803 -0.17346,0.77109 0.0486,0.37173 0.19678,0.90089 0.44459,1.58747 0.26542,0.70287 0.6434,1.46075 1.13396,2.27365 1.34558,2.25684 2.12651,3.97543 2.34281,5.15578 0.21626,1.18035 -0.11543,2.24638 -0.99509,3.19812 -0.76565,0.82835 -1.6078,1.43893 -2.52643,1.83175 -0.78434,0.35354 -1.82288,0.50479 -3.11564,0.45377 -1.30907,-0.0334 -2.34252,-0.40037 -3.10038,-1.10084 -0.54637,-0.505 -1.18686,-1.24407 -1.92148,-2.21719 -0.73329,-0.93923 -1.24012,-1.7345 -1.5205,-2.38583 -0.20855,-0.55226 -0.23457,-1.2136 -0.0781,-1.98402 0.17279,-0.78805 0.47096,-1.41119 0.89451,-1.86943"
         style="font-size:36px"
         id="path4205"
         inkscape:connector-curvature="0" />
    </g>
  </g>
</svg>
