<?xml version="1.0" encoding="UTF-8" standalone="no"?>
<!-- Created with Inkscape (http://www.inkscape.org/) -->

<svg
   xmlns:osb="http://www.openswatchbook.org/uri/2009/osb"
   xmlns:dc="http://purl.org/dc/elements/1.1/"
   xmlns:cc="http://creativecommons.org/ns#"
   xmlns:rdf="http://www.w3.org/1999/02/22-rdf-syntax-ns#"
   xmlns:svg="http://www.w3.org/2000/svg"
   xmlns="http://www.w3.org/2000/svg"
   xmlns:xlink="http://www.w3.org/1999/xlink"
   xmlns:sodipodi="http://sodipodi.sourceforge.net/DTD/sodipodi-0.dtd"
   xmlns:inkscape="http://www.inkscape.org/namespaces/inkscape"
   width="80"
   height="80"
   id="svg3099"
   version="1.1"
   inkscape:version="0.48.4 r9939"
   sodipodi:docname="HPFDial.svg">
  <defs
     id="defs3101">
    <marker
       inkscape:stockid="Arrow1Sstart"
       orient="auto"
       refY="0.0"
       refX="0.0"
       id="Arrow1Sstart"
       style="overflow:visible">
      <path
         id="path6174"
         d="M 0.0,0.0 L 5.0,-5.0 L -12.5,0.0 L 5.0,5.0 L 0.0,0.0 z "
         style="fill-rule:evenodd;stroke:#000000;stroke-width:1.0pt"
         transform="scale(0.2) translate(6,0)" />
    </marker>
    <marker
       inkscape:stockid="Arrow1Mstart"
       orient="auto"
       refY="0.0"
       refX="0.0"
       id="Arrow1Mstart"
       style="overflow:visible">
      <path
         id="path6168"
         d="M 0.0,0.0 L 5.0,-5.0 L -12.5,0.0 L 5.0,5.0 L 0.0,0.0 z "
         style="fill-rule:evenodd;stroke:#000000;stroke-width:1.0pt"
         transform="scale(0.4) translate(10,0)" />
    </marker>
    <marker
       inkscape:stockid="DiamondSend"
       orient="auto"
       refY="0.0"
       refX="0.0"
       id="DiamondSend"
       style="overflow:visible">
      <path
         id="path6265"
         d="M 0,-7.0710768 L -7.0710894,0 L 0,7.0710589 L 7.0710462,0 L 0,-7.0710768 z "
         style="fill-rule:evenodd;stroke:#000000;stroke-width:1.0pt"
         transform="scale(0.2) translate(-6,0)" />
    </marker>
    <marker
       inkscape:stockid="Arrow1Lend"
       orient="auto"
       refY="0.0"
       refX="0.0"
       id="Arrow1Lend"
       style="overflow:visible;">
      <path
         id="path6165"
         d="M 0.0,0.0 L 5.0,-5.0 L -12.5,0.0 L 5.0,5.0 L 0.0,0.0 z "
         style="fill-rule:evenodd;stroke:#000000;stroke-width:1.0pt;"
         transform="scale(0.8) rotate(180) translate(12.5,0)" />
    </marker>
    <linearGradient
       id="linearGradient5329"
       osb:paint="solid">
      <stop
         style="stop-color:#ffed00;stop-opacity:1;"
         offset="0"
         id="stop5331" />
    </linearGradient>
    <linearGradient
       x1="0"
       y1="0"
       x2="1"
       y2="0"
       gradientUnits="userSpaceOnUse"
       gradientTransform="matrix(0,-0.61847875,0.61847875,0,-217.64634,304.02926)"
       spreadMethod="pad"
       id="linearGradient8080-3">
      <stop
         style="stop-opacity:1;stop-color:#37373b"
         offset="0"
         id="stop8082-6" />
      <stop
         style="stop-opacity:1;stop-color:#37373b"
         offset="1"
         id="stop8084-7" />
    </linearGradient>
    <linearGradient
       x1="0"
       y1="0"
       x2="1"
       y2="0"
       gradientUnits="userSpaceOnUse"
       gradientTransform="matrix(0,-0.61847125,0.61847125,0,-219.20459,303.97266)"
       spreadMethod="pad"
       id="linearGradient8064-5">
      <stop
         style="stop-opacity:1;stop-color:#37373b"
         offset="0"
         id="stop8066-3" />
      <stop
         style="stop-opacity:1;stop-color:#37373b"
         offset="1"
         id="stop8068-5" />
    </linearGradient>
    <linearGradient
       inkscape:collect="always"
       xlink:href="#linearGradient8064-5"
       id="linearGradient6053"
       gradientUnits="userSpaceOnUse"
       gradientTransform="matrix(0,-0.27520308,0.27520308,0,-76.040147,1115.4496)"
       spreadMethod="pad"
       x1="0"
       y1="0"
       x2="1"
       y2="0" />
    <linearGradient
       inkscape:collect="always"
       xlink:href="#linearGradient8080-3"
       id="linearGradient6055"
       gradientUnits="userSpaceOnUse"
       gradientTransform="matrix(0,-0.27520642,0.27520642,0,-75.346767,1115.4746)"
       spreadMethod="pad"
       x1="0"
       y1="0"
       x2="1"
       y2="0" />
    <path
       sodipodi:type="arc"
       style="fill:none;stroke:none"
       id="path3040-3"
       sodipodi:cx="-38.400002"
       sodipodi:cy="27.700001"
       sodipodi:rx="12"
       sodipodi:ry="14.9"
       d="m -26.400002,27.700001 a 12,14.9 0 1 1 -24,0 12,14.9 0 1 1 24,0 z"
       transform="matrix(2.715143,0,0,-2.1866924,144.26149,1072.9336)" />
  </defs>
  <sodipodi:namedview
     id="base"
     pagecolor="#ffffff"
     bordercolor="#666666"
     borderopacity="1.0"
     inkscape:pageopacity="0.0"
     inkscape:pageshadow="2"
     inkscape:zoom="7.54"
     inkscape:cx="26.018738"
     inkscape:cy="44.123667"
     inkscape:document-units="px"
     inkscape:current-layer="layer1"
     showgrid="false"
     inkscape:window-width="1360"
     inkscape:window-height="716"
     inkscape:window-x="0"
     inkscape:window-y="0"
     inkscape:window-maximized="1"
     showguides="false"
     inkscape:snap-global="false">
    <inkscape:grid
       type="xygrid"
       id="grid5389" />
  </sodipodi:namedview>
  <metadata
     id="metadata3104">
    <rdf:RDF>
      <cc:Work
         rdf:about="">
        <dc:format>image/svg+xml</dc:format>
        <dc:type
           rdf:resource="http://purl.org/dc/dcmitype/StillImage" />
        <dc:title />
      </cc:Work>
    </rdf:RDF>
  </metadata>
  <g
     inkscape:label="Layer 1"
     inkscape:groupmode="layer"
     id="layer1"
     transform="translate(0,-972.36218)">
    <path
       sodipodi:type="arc"
       style="fill:#17ff00;fill-opacity:1;stroke:#000000;stroke-width:0.35078916;stroke-miterlimit:4;stroke-opacity:1;stroke-dasharray:none"
       id="path3107"
       sodipodi:cx="31.375"
       sodipodi:cy="23.25"
       sodipodi:rx="2.625"
       sodipodi:ry="3"
       d="m 34,23.25 c 0,1.656854 -1.175253,3 -2.625,3 -1.449747,0 -2.625,-1.343146 -2.625,-3 0,-1.656854 1.175253,-3 2.625,-3 1.449747,0 2.625,1.343146 2.625,3 z"
       transform="matrix(14.341736,0,0,12.54902,-409.97191,720.5974)" />
    <path
       sodipodi:type="arc"
       style="fill:none;stroke:none;stroke-width:0.40141922000000002;stroke-miterlimit:4;stroke-opacity:1;stroke-dasharray:none"
       id="path5339"
       sodipodi:cx="42.012287"
       sodipodi:cy="38.371735"
       sodipodi:rx="6.0675883"
       sodipodi:ry="8.1413212"
       d="m 48.079875,38.371735 c 0,4.496327 -2.716551,8.141321 -6.067588,8.141321 -3.351036,0 -6.067588,-3.644994 -6.067588,-8.141321 0,-4.496328 2.716552,-8.141322 6.067588,-8.141322 3.351037,0 6.067588,3.644994 6.067588,8.141322 z"
       transform="matrix(5.3798643,0,0,-4.0095214,-186.0204,1166.2145)" />
    <path
       sodipodi:type="star"
       style="fill:none;stroke:none"
       id="path6076"
       sodipodi:sides="5"
       sodipodi:cx="35.911602"
       sodipodi:cy="4.198895"
       sodipodi:r1="9.1579485"
       sodipodi:r2="4.2417741"
       sodipodi:arg1="0.72564034"
       sodipodi:arg2="2.6096934"
       inkscape:flatsided="false"
       inkscape:rounded="0"
       inkscape:randomized="0"
       d="M 42.762431,10.276243 32.255849,6.3502003 32.248723,12.592424 32.735899,1.3868568 26.796989,3.3090331 37.604663,0.3096545 33.941341,-4.7445994 40.133674,4.6072504 43.808526,-0.43862666 36.827925,8.340513 z"
       transform="translate(0,972.36218)"
       inkscape:transform-center-x="0.60884423"
       inkscape:transform-center-y="-0.27498241" />
    <path
       sodipodi:type="star"
       style="fill:none;stroke:none"
       id="path6078"
       sodipodi:sides="5"
       sodipodi:cx="42.762432"
       sodipodi:cy="8.6187849"
       sodipodi:r1="4.752666"
       sodipodi:r2="2.2013376"
       sodipodi:arg1="-1.5475447"
       sodipodi:arg2="-0.91922617"
       inkscape:flatsided="false"
       inkscape:rounded="0"
       inkscape:randomized="0"
       d="m 42.872929,3.8674036 1.224473,3.0010261 3.218008,0.3871868 -2.475763,2.0919104 0.626183,3.1801551 -2.754578,-1.708155 -2.831006,1.578257 0.77334,-3.1476074 -2.375841,-2.2047384 3.232529,-0.2371743 z"
       transform="matrix(0.96951838,0,0,0.96951838,1.3034684,972.62489)"
       inkscape:transform-center-x="-0.033104907"
       inkscape:transform-center-y="-0.40840659" />
    <path
       sodipodi:type="star"
       style="fill:none;stroke:none"
       id="path6080"
       sodipodi:sides="5"
       sodipodi:cx="51.270718"
       sodipodi:cy="-3.6464088"
       sodipodi:r1="11.713228"
       sodipodi:r2="5.4253275"
       sodipodi:arg1="-3.132159"
       sodipodi:arg2="-2.5038404"
       inkscape:flatsided="false"
       inkscape:rounded="0"
       inkscape:randomized="0"
       d="m 39.558011,-3.7569057 7.353803,-3.1196943 0.844567,-7.943401 5.239456,6.0298445 7.815608,-1.6514145 -4.115641,6.8463425 3.985744,6.92277 -7.783062,-1.7985714 -5.352283,5.929922 -0.694555,-7.95792113 z"
       transform="translate(0,972.36218)"
       inkscape:transform-center-x="1.0859897"
       inkscape:transform-center-y="-0.034145524" />
    <path
       sodipodi:type="arc"
       style="fill:none;stroke:#8e00ff;stroke-width:0.35078919;stroke-linecap:butt;stroke-linejoin:miter;stroke-miterlimit:4.80000019;stroke-opacity:1;stroke-dasharray:none;marker-start:none;marker-mid:none;marker-end:none"
       id="path3107-2"
       sodipodi:cx="31.375"
       sodipodi:cy="23.25"
       sodipodi:rx="2.625"
       sodipodi:ry="3"
       d="m 31.603784,20.261416 c 1.44423,0.144404 2.512581,1.599502 2.386227,3.250051 -0.126354,1.65055 -1.399564,2.871521 -2.843795,2.727117 -1.44423,-0.144404 -2.512581,-1.599502 -2.386227,-3.250051 0.111027,-1.450341 1.117179,-2.600229 2.386228,-2.727117"
       transform="matrix(14.341736,0,0,12.54902,-409.96964,720.59514)"
       sodipodi:start="4.7996554"
       sodipodi:end="10.908308"
       sodipodi:open="true" />
    <path
       inkscape:connector-curvature="0"
       d="m 23.306698,998.54416 c 0,0 0.176715,0.82449 0.824337,0.58881 0,0 0.206063,-0.32385 0.235557,-0.94202 0,0 0.176632,-0.76543 0.412169,-0.91267 0,0 0.500421,-0.20615 0.647641,0.0297 0,0 0.08831,0.20615 -0.206063,0.53 0,0 -0.529894,0.64747 -0.323851,1.32472 0,0 0.294358,1.29513 -0.147219,1.91353 0,0 0,0.3239 0.147219,0.7066 l 1.177536,3.5326 c 0,0 0.176715,0.7066 0.971579,1.2073 0,0 1.825263,0.942 2.325768,0.8536 l -0.18152,1.825 c 0,0 -3.351279,-1.5012 -3.763449,-2.7082 l -1.383683,-4.5632 c 0,0 -0.05891,-0.7655 -0.88318,-0.9714 0,0 -1.0304,-0.1767 -1.354253,-0.4122 0,0 -0.235537,-0.265 -0.4416,-0.2944 0,0 -0.883159,-0.50035 -1.089304,-1.26584 0,0 -0.235454,-0.3238 -0.02942,-0.38269 0,0 0.382778,0.2648 0.58882,0.61819 0,0 0.382675,0.61812 0.971496,0.73592 0,0 1.0304,0.44182 1.148127,-0.61821 0,0 -0.382674,-1.20701 -0.618232,-1.41314 0,0 -0.117726,-0.32384 0,-0.61818 0,0 0.294463,-1.32471 0.441601,-1.47196 0,0 0.70663,-0.23549 0.736041,0.0293 0,0 -0.618231,1.05993 -0.618231,1.32489 0,0 0.02942,0.17661 0.117727,0.38275 l 0.294378,0.97132"
       style="fill:#6d4223;fill-opacity:1;fill-rule:nonzero;stroke:none"
       id="path3958" />
    <path
       inkscape:connector-curvature="0"
       d="m 48.839713,1016.1765 c 0,0 -0.03972,0 -0.115026,0 1.198277,-1.5663 1.898813,-3.4562 1.898813,-5.4917 0,-2.994 -1.516719,-5.6725 -3.903495,-7.4689 1.462641,-1.708 2.347463,-3.92228 2.347463,-6.34379 0,-5.40193 -4.393952,-9.78111 -9.814375,-9.78111 -5.420423,0 -9.814375,4.37918 -9.814375,9.78111 0,2.56939 0.995457,4.90599 2.621396,6.65159 -2.160784,1.7875 -3.513602,4.3336 -3.513602,7.1611 0,1.9627 0.653342,3.7886 1.774013,5.321 -0.04706,0.015 -0.07705,0.025 -0.08588,0.041 0,0 -6.676499,7.8784 -2.537011,14.9555 0,0 1.201749,3.8055 6.609692,4.5065 0,0 8.278726,0.9347 11.516835,-0.4339 0,0 4.873805,-0.5009 6.409452,-7.5779 0,0 1.546673,-7.2215 -3.3939,-11.3167"
       style="fill:#f9e9ec;fill-opacity:1;fill-rule:nonzero;stroke:none"
       id="path3960" />
    <path
       inkscape:connector-curvature="0"
       d="m 39.339623,1001.1664 c -4.005828,3.0267 -6.810055,-0.089 -6.810055,-0.089 0,0 -0.160158,0.043 -0.08653,0.1897 0,0 1.221572,1.3542 3.13515,1.4131 0,0 2.384696,0.1029 3.871464,-1.4279 l -0.110032,-0.086"
       style="fill:#411a1b;fill-opacity:1;fill-rule:nonzero;stroke:none"
       id="path3968" />
    <path
       inkscape:connector-curvature="0"
       d="m 40.971989,999.84724 c -0.267691,0 -0.537673,-0.063 -0.802663,-0.12855 -0.262492,-0.065 -0.532058,-0.13661 -0.757737,-0.33837 -0.225676,-0.20179 -0.399979,-0.56703 -0.36545,-0.9431 0.03723,-0.40597 0.295771,-0.69636 0.55681,-0.86837 0.297852,-0.19656 0.626073,-0.29909 0.954502,-0.29909 0.01788,0 0.03578,1.8e-4 0.05387,0 0.280797,-0.0671 0.510426,-0.11101 0.705112,-0.11101 0.255006,0 0.450107,0.0759 0.621706,0.27539 0.277885,0.32339 0.425148,0.90292 0.302013,1.39379 -0.132293,0.52767 -0.511051,0.86729 -0.897928,0.972 -0.122512,0.033 -0.24606,0.0465 -0.370235,0.0465"
       style="fill:#f3cae4;fill-opacity:1;fill-rule:nonzero;stroke:none"
       id="path3970" />
    <path
       inkscape:connector-curvature="0"
       d="m 31.786184,998.08407 c -0.03474,0 -0.06926,0 -0.103791,-0.006 -0.244813,-0.0154 -0.487754,-0.08 -0.718214,-0.18928 -0.21605,-0.1026 -0.430142,-0.25544 -0.555418,-0.50814 -0.125378,-0.25271 -0.133178,-0.62419 0.03265,-0.83284 0.108307,-0.13635 0.257002,-0.17492 0.410859,-0.17492 0.0857,0 0.173053,0.012 0.255836,0.0256 0.376893,0.0627 0.83012,0.0565 1.207012,0.11941 0.0035,-1.2e-4 0.0074,-1.2e-4 0.0108,-1.2e-4 0.237741,0 0.437003,0.30867 0.438875,0.62228 0.0021,0.31844 -0.163486,0.61073 -0.375852,0.765 -0.182207,0.13216 -0.393532,0.17644 -0.602779,0.17644"
       style="fill:#f3cae4;fill-opacity:1;fill-rule:nonzero;stroke:none"
       id="path3972" />
    <path
       inkscape:connector-curvature="0"
       d="m 34.128446,1007.3566 c -0.20238,0.1362 -0.297227,0.4135 -0.220477,0.6452 0.03453,0.1039 0.0988,0.1963 0.173886,0.2762 0.106282,0.1135 0.238366,0.2065 0.38854,0.2471 0.315326,0.085 0.683898,-0.1103 0.777913,-0.4231 0.0938,-0.3128 -0.117937,-0.6866 -0.43742,-0.7542 -0.120846,-0.025 -0.246685,-0.012 -0.368989,-0.028 -0.07135,-0.01 -0.143108,-0.029 -0.214236,-0.018 -0.07113,0.012 -0.142899,0.066 -0.141444,0.138"
       style="fill:#491d20;fill-opacity:1;fill-rule:nonzero;stroke:none"
       id="path3974" />
    <path
       inkscape:connector-curvature="0"
       d="m 33.505286,1010.8728 c -0.202381,0.1362 -0.297229,0.4135 -0.220479,0.6452 0.03453,0.1042 0.0988,0.1963 0.173888,0.2764 0.106282,0.1134 0.238365,0.2065 0.38854,0.2471 0.315324,0.085 0.683896,-0.1104 0.777911,-0.4233 0.09401,-0.3128 -0.117937,-0.6865 -0.437419,-0.7541 -0.120847,-0.026 -0.246685,-0.012 -0.368988,-0.028 -0.07135,-0.01 -0.143108,-0.029 -0.214238,-0.019 -0.07113,0.011 -0.142898,0.066 -0.141444,0.1379"
       style="fill:#491d20;fill-opacity:1;fill-rule:nonzero;stroke:none"
       id="path3976" />
    <path
       inkscape:connector-curvature="0"
       d="m 33.594309,1014.7163 c -0.202382,0.1365 -0.297229,0.4136 -0.220477,0.6452 0.03453,0.1035 0.0988,0.1965 0.173886,0.2765 0.106282,0.114 0.238364,0.2065 0.388539,0.2472 0.315325,0.085 0.683897,-0.111 0.777912,-0.4234 0.09401,-0.3128 -0.117937,-0.6866 -0.437419,-0.7542 -0.120847,-0.025 -0.246686,-0.014 -0.368987,-0.028 -0.07135,-0.014 -0.143109,-0.028 -0.214239,-0.018 -0.07092,0.015 -0.142899,0.066 -0.141444,0.138"
       style="fill:#491d20;fill-opacity:1;fill-rule:nonzero;stroke:none"
       id="path3978" />
    <path
       inkscape:connector-curvature="0"
       d="m 38.50992,979.66815 c 0,0 -0.63897,-0.75817 1.183715,-0.55577 0,0 8.506277,1.18142 11.206506,4.01685 0,0 0.33758,0.30368 -0.134993,0.57386 0,0 -8.744851,0.52187 -12.25523,-4.03494"
       style="fill:#434246;fill-opacity:1;fill-rule:nonzero;stroke:none"
       id="path3980" />
    <path
       inkscape:connector-curvature="0"
       d="m 33.280232,986.90981 c 0,0 -0.67516,1.654 1.485312,3.24038 0,0 3.206703,2.73418 8.607365,3.27429 0,0 5.029386,0.70868 6.78468,-1.35031 0,0 0.830326,-1.18454 -0.452188,-2.12968 l -1.303106,1.01586 -6.78468,0.43888 -5.974529,-3.00432 -2.362854,-1.4851"
       style="fill:#434246;fill-opacity:1;fill-rule:nonzero;stroke:none"
       id="path3982" />
    <path
       inkscape:connector-curvature="0"
       d="m 37.516938,986.14707 c 0,0 -1.750093,-0.81245 -2.740161,-0.58739 0,0 -1.980348,0.4499 -1.39525,2.29525 0,0 0.180127,1.53025 4.050548,3.3754 0,0 5.760914,2.70044 9.991381,1.26028 0,0 2.700437,-0.78772 2.655301,-1.71039 0,0 0.301597,-1.29707 -3.208782,-2.01716 l -0.706777,2.19729 -9.226158,-3.60066 0.579898,-1.21262"
       style="fill:#2e2c2f;fill-opacity:1;fill-rule:nonzero;stroke:none"
       id="path3984" />
    <path
       inkscape:connector-curvature="0"
       d="m 37.803351,985.49208 -1.215122,2.49785 c 0,0 6.548392,3.88186 8.97864,3.2741 0,0 0.979044,-0.30368 1.147731,-0.64128 l 0.301598,-2.19728 c 0,0 -6.782392,-0.33424 -9.212847,-2.93339"
       style="fill:#2e2c2f;fill-opacity:1;fill-rule:nonzero;stroke:none"
       id="path3986" />
    <path
       inkscape:connector-curvature="0"
       d="m 38.412786,979.37653 c 0,0 0.234413,3.6514 -0.609435,6.11555 0,0 1.012742,2.59915 9.181231,3.03802 0,0 1.70142,-3.25538 4.083412,-5.10261 0,0 -7.389121,-1.36113 -12.655208,-4.05096"
       style="fill:#2e2c2f;fill-opacity:1;fill-rule:nonzero;stroke:none"
       id="path3988" />
    <path
       inkscape:connector-curvature="0"
       d="m 44.969707,991.31352 c -1.015861,0 -2.422341,-0.45385 -3.793672,-1.02667 l 0.09152,-0.0634 c 0.578027,-0.66351 0.98591,-1.42895 1.295619,-2.24679 1.170403,0.25522 2.622644,0.45676 4.421409,0.55348 0,0 0.0036,-0.006 0.0102,-0.0194 l -0.28766,2.09685 c -0.168895,0.33757 -1.147733,0.64146 -1.147733,0.64146 -0.176381,0.0441 -0.374187,0.0645 -0.589674,0.0645"
       style="fill:#323033;fill-opacity:1;fill-rule:nonzero;stroke:none"
       id="path3990" />
    <path
       inkscape:connector-curvature="0"
       d="m 51.003515,983.41523 c -0.457387,-0.0872 -3.28907,-0.64418 -6.562539,-1.66461 0.06635,-0.0813 0.137903,-0.15891 0.215071,-0.23233 0.405179,-0.38584 0.939525,-0.62712 1.398785,-0.94286 1.930427,0.6269 3.8126,1.46951 4.845309,2.5538 0,0 0.04514,0.0408 0.07946,0.10545 0.02351,0.0501 0.0389,0.11252 0.02391,0.18055"
       style="fill:#434246;fill-opacity:1;fill-rule:nonzero;stroke:none"
       id="path3998" />
    <path
       inkscape:connector-curvature="0"
       d="m 46.984582,988.5301 c -1.798764,-0.0968 -3.251005,-0.29827 -4.421408,-0.55349 0.474026,-1.25132 0.718008,-2.62492 0.98986,-3.94364 0.16619,-0.80682 0.374604,-1.65358 0.887942,-2.28235 3.273469,1.02043 6.105152,1.57747 6.562539,1.66461 -0.0066,0.0307 -0.01957,0.0625 -0.04057,0.0948 -0.07946,0.0636 -0.158078,0.12855 -0.23587,0.1951 -0.0027,0.003 -0.0054,0.005 -0.0081,0.008 -2.24492,1.40753 -3.525978,4.28994 -3.716089,4.74088 l -0.0081,0.0578 c -0.0066,0.012 -0.0102,0.0194 -0.0102,0.0194"
       style="fill:#323033;fill-opacity:1;fill-rule:nonzero;stroke:none"
       id="path4000" />
    <path
       inkscape:connector-curvature="0"
       d="m 31.459836,994.11421 c -0.311789,0.23943 -0.457803,0.72656 -0.339451,1.13341 0.05304,0.18303 0.152045,0.34482 0.267691,0.48546 0.163695,0.19923 0.367116,0.3629 0.598202,0.43407 0.485675,0.14955 1.053301,-0.19364 1.19786,-0.74316 0.144774,-0.54977 -0.181583,-1.20641 -0.673497,-1.32519 -0.186158,-0.0447 -0.379805,-0.0203 -0.568251,-0.0489 -0.109821,-0.0167 -0.220269,-0.0518 -0.329676,-0.0321 -0.109612,0.0197 -0.220062,0.11611 -0.217981,0.24234 l 0.0651,-0.14565"
       style="fill:#491d20;fill-opacity:1;fill-rule:nonzero;stroke:none"
       id="path4002" />
    <path
       inkscape:connector-curvature="0"
       d="m 39.290744,994.85011 c -0.311788,0.23942 -0.457595,0.72654 -0.339453,1.13357 0.05304,0.18287 0.152255,0.34487 0.267693,0.48546 0.163694,0.1993 0.367118,0.36281 0.598201,0.43413 0.485676,0.14941 1.05351,-0.19387 1.198069,-0.74339 0.144564,-0.54952 -0.181583,-1.2064 -0.673706,-1.32519 -0.185949,-0.0447 -0.379596,-0.0203 -0.568042,-0.0489 -0.109821,-0.0167 -0.220269,-0.0512 -0.329884,-0.0321 -0.109401,0.0197 -0.220061,0.11581 -0.217982,0.24235 l 0.0651,-0.14581"
       style="fill:#491d20;fill-opacity:1;fill-rule:nonzero;stroke:none"
       id="path4004" />
    <path
       inkscape:connector-curvature="0"
       d="m 35.726701,997.3093 c 0,0 -3.071087,-0.40062 -3.93906,0.20023 0,0 -1.824869,0.0891 -2.114195,0.37841 l -4.094872,0.1113 c 0,0 1.755543,2.07036 4.695799,1.3353 0.08895,-0.022 2.492521,0.17803 3.382752,0.44513 0,0 1.891531,0.22253 2.514693,-0.57868 0,0 0.57865,-0.7344 -0.133539,-1.69144 0,0 -0.09858,-0.14971 -0.311581,-0.20023"
       style="fill:#ef5a1d;fill-opacity:1;fill-rule:nonzero;stroke:none"
       id="path4006" />
    <path
       inkscape:connector-curvature="0"
       d="m 36.080922,997.57277 c -0.01395,0.0309 -0.02892,0.0612 -0.04723,0.0904 -0.220892,0.35273 -0.683895,0.46296 -1.100099,0.47086 -0.415996,0.009 -0.845928,-0.0524 -1.239042,0.0836 -0.157872,0.0548 -0.303053,0.13936 -0.455308,0.20805 -1.447872,0.65414 -3.14842,-0.21948 -4.714582,0.0475 -0.470199,0.0803 -0.930478,0.26396 -1.406501,0.23484 -0.539672,-0.0333 -1.019355,-0.33408 -1.471024,-0.63442 l 0.0012,0 0.306048,0.20512 c -0.04151,-0.0105 -0.08312,-0.0203 -0.124717,-0.0299 0.58256,0.52725 2.154004,1.65729 4.444747,1.08471 0.08895,-0.022 2.49252,0.17799 3.38275,0.44509 0,0 1.891532,0.2225 2.514693,-0.57865 0,0 0.549945,-0.70261 -0.09089,-1.62821"
       style="fill:#cf4a20;fill-opacity:1;fill-rule:nonzero;stroke:none"
       id="path4010" />
    <path
       inkscape:connector-curvature="0"
       d="m 29.673446,997.88794 c 0,0 -0.139088,0.0946 0.04454,0.3282 0,0 0.05005,-0.34487 0.161365,-0.43389 0,0 -0.172494,0.0499 -0.205898,0.10575"
       style="fill:#cf4a20;fill-opacity:1;fill-rule:nonzero;stroke:none"
       id="path4014" />
    <path
       inkscape:connector-curvature="0"
       d="m 31.787641,997.50953 c 0,0 0.267068,0.2561 0.07801,0.7122 0,0 0.367115,-0.41163 0.166814,-0.82341 l -0.244813,0.11115"
       style="fill:#cf4a20;fill-opacity:1;fill-rule:nonzero;stroke:none"
       id="path4016" />
    <path
       inkscape:connector-curvature="0"
       d="m 34.513244,997.20278 c 0,0 0.37897,0.48486 0.111907,0.81865 0,0 0.436171,-0.4455 0.313868,-0.79037 l -0.425771,-0.0285"
       style="fill:#cf4a20;fill-opacity:1;fill-rule:nonzero;stroke:none"
       id="path4018" />
    <path
       inkscape:connector-curvature="0"
       d="m 40.909799,1006.0285 c 0,0 -1.347827,4.6671 -3.228543,6.153 0,0 0.941192,1.8439 2.430663,2.2893 l 1.507984,-2.6231 1.089908,-5.9141 -1.800012,0.095"
       style="fill:#497b66;fill-opacity:1;fill-rule:nonzero;stroke:none"
       id="path4020" />
    <path
       inkscape:connector-curvature="0"
       d="m 39.740227,1004.7715 c 0,0 2.269879,5.2079 1.602414,10.5491 l 4.371491,-0.3887 c 0,0 -0.141234,-5.5752 -3.880199,-9.9817 0,0 -1.693103,-0.9796 -2.093706,-0.1787"
       style="fill:#6ca18a;fill-opacity:1;fill-rule:nonzero;stroke:none"
       id="path4022" />
    <path
       inkscape:connector-curvature="0"
       d="m 31.906407,1003.1415 c 0,0 -0.178878,0.028 0.07322,0.5175 0,0 -1.247569,0.2724 -0.97447,1.0513 0,0 5.827474,2.9768 13.180195,0.9514 0,0 2.906769,-0.8789 3.789095,-1.4575 -0.278093,-0.5452 -0.302429,-0.5612 -0.763769,-0.7901 0,0 0.265407,-0.6008 0.118358,-0.9569 0,0 -0.979877,1.5801 -6.778022,2.003 0,0 -6.775113,0.1834 -8.644596,-1.3187"
       style="fill:#6ca18a;fill-opacity:1;fill-rule:nonzero;stroke:none"
       id="path4024" />
    <path
       inkscape:connector-curvature="0"
       d="m 47.210674,1003.4141 c 0,0 -6.260524,3.2269 -11.8696,1.4242 0,0 -0.105035,0.2005 0.105037,0.3341 0,0 5.483029,1.7692 12.205724,-1.5024 0,0 -0.222557,-0.178 -0.441163,-0.2559"
       style="fill:#578b76;fill-opacity:1;fill-rule:nonzero;stroke:none"
       id="path4026" />
    <path
       inkscape:connector-curvature="0"
       d="m 41.427089,1015.1596 c -0.121478,0.3197 -0.08174,0.6831 0.04181,1.0019 0.123337,0.3189 0.324893,0.6009 0.530603,0.8738 0.152045,-0.068 0.304092,-0.135 0.455931,-0.2019 -0.609017,-0.3815 -0.932454,-1.1688 -0.76772,-1.8683"
       style="fill:#6ca18a;fill-opacity:1;fill-rule:nonzero;stroke:none"
       id="path4028" />
    <path
       inkscape:connector-curvature="0"
       d="m 42.04713,1015.0784 c 0.06156,0.6053 0.43846,1.1248 0.673081,1.6862 0.09131,-0.038 0.18283,-0.075 0.27414,-0.1126 -0.43721,-0.5085 -0.675784,-1.1837 -0.655192,-1.8541"
       style="fill:#6ca18a;fill-opacity:1;fill-rule:nonzero;stroke:none"
       id="path4030" />
    <path
       inkscape:connector-curvature="0"
       d="m 42.689844,1014.9426 c 0.08237,0.1471 0.16494,0.2944 0.247516,0.4414 0.07322,0.1305 0.146844,0.2617 0.200303,0.4017 0.118147,0.3092 0.133328,0.647 0.146844,0.9778 0.09027,-0.022 0.180333,-0.047 0.270396,-0.069 l 0.04493,-0.028 -4.99e-4,-0.031 c -0.09027,-0.4451 -0.266029,-0.8675 -0.440748,-1.2867 -0.07198,-0.1726 -0.151837,-0.355 -0.307421,-0.4583"
       style="fill:#6ca18a;fill-opacity:1;fill-rule:nonzero;stroke:none"
       id="path4032" />
    <path
       inkscape:connector-curvature="0"
       d="m 43.591099,1014.8884 c 0.146213,0.2209 0.25958,0.4634 0.335084,0.7173 0.06532,0.2195 0.102335,0.4508 0.07508,0.6782 -0.0183,0.1513 -0.06469,0.2976 -0.110662,0.443 0.07571,-0.015 0.151631,-0.021 0.227342,-0.03 0.02288,-0.3072 0.04556,-0.6161 0.01705,-0.9229 -0.0285,-0.3067 -0.110662,-0.6143 -0.282255,-0.8702 -0.02391,-0.036 -0.06116,-0.075 -0.102546,-0.063"
       style="fill:#6ca18a;fill-opacity:1;fill-rule:nonzero;stroke:none"
       id="path4034" />
    <path
       inkscape:connector-curvature="0"
       d="m 44.236306,1014.7535 c 0.29827,0.5126 0.444701,1.1121 0.416621,1.7046 0.05492,-0.014 0.109821,-0.025 0.164734,-0.038 l 0.03348,-0.016 0.01005,-0.033 c 0.05199,-0.5805 1.66e-4,-1.2023 -0.335501,-1.6787 -0.02497,-0.036 -0.05326,-0.072 -0.09319,-0.088"
       style="fill:#6ca18a;fill-opacity:1;fill-rule:nonzero;stroke:none"
       id="path4036" />
    <path
       inkscape:connector-curvature="0"
       d="m 45.433334,1014.905 c 0,0.041 0.376061,0.841 0.206541,1.4868 -0.0058,0.022 -0.0123,0.044 -0.01935,0.066 l 0.334459,-0.081 c 0,0 -0.04014,-1.0973 -0.24086,-1.445 0,0 -0.280798,-0.1739 -0.280798,-0.027"
       style="fill:#6ca18a;fill-opacity:1;fill-rule:nonzero;stroke:none"
       id="path4040" />
    <path
       inkscape:connector-curvature="0"
       d="m 37.863047,1012.0889 c -0.291821,0.1059 -0.530186,0.3417 -0.692425,0.6063 -0.162237,0.2647 -0.257292,0.5584 -0.343612,0.85 0.128123,0.06 0.256046,0.12 0.384172,0.179 -0.04868,-0.6159 0.342364,-1.2812 0.927671,-1.5787"
       style="fill:#497b66;fill-opacity:1;fill-rule:nonzero;stroke:none"
       id="path4042" />
    <path
       inkscape:connector-curvature="0"
       d="m 38.247219,1012.4444 c -0.399148,0.3897 -0.570953,0.9349 -0.847592,1.4116 0.07489,0.038 0.149755,0.075 0.224431,0.1125 0.132488,-0.578 0.48817,-1.1231 0.976966,-1.4974"
       style="fill:#497b66;fill-opacity:1;fill-rule:nonzero;stroke:none"
       id="path4044" />
    <path
       inkscape:connector-curvature="0"
       d="m 38.682351,1012.7829 c -0.06135,0.1381 -0.122723,0.2774 -0.184286,0.4159 -0.0545,0.123 -0.109402,0.2466 -0.180959,0.3623 -0.158286,0.2557 -0.391035,0.4605 -0.619834,0.6609 0.06407,0.045 0.127914,0.09 0.191775,0.1351 l 0.0443,0.014 0.02226,-0.018 c 0.269982,-0.316 0.478603,-0.6743 0.685561,-1.0303 0.08507,-0.147 0.173054,-0.3036 0.164734,-0.4644"
       style="fill:#497b66;fill-opacity:1;fill-rule:nonzero;stroke:none"
       id="path4046" />
    <path
       inkscape:connector-curvature="0"
       d="m 39.195481,1013.3365 c -0.08029,0.2226 -0.193646,0.4365 -0.334878,0.6323 -0.122092,0.1693 -0.267484,0.3272 -0.444074,0.4407 -0.117517,0.075 -0.246268,0.1305 -0.37398,0.1845 0.04722,0.044 0.09422,0.087 0.141443,0.1306 0.231086,-0.1631 0.463212,-0.3271 0.66705,-0.5229 0.203628,-0.1958 0.379595,-0.4268 0.471738,-0.6864 0.0129,-0.036 0.02121,-0.082 -0.0091,-0.1035"
       style="fill:#497b66;fill-opacity:1;fill-rule:nonzero;stroke:none"
       id="path4048" />
    <path
       inkscape:connector-curvature="0"
       d="m 39.631444,1013.6773 c -0.208622,0.4899 -0.558889,0.9317 -0.996101,1.2559 0.03807,0.028 0.07592,0.057 0.113781,0.085 l 0.02891,0.014 0.02892,-0.014 c 0.441163,-0.3019 0.857159,-0.6952 1.020023,-1.1885 0.0123,-0.038 0.02308,-0.077 0.0141,-0.1124"
       style="fill:#497b66;fill-opacity:1;fill-rule:nonzero;stroke:none"
       id="path4050" />
    <path
       inkscape:connector-curvature="0"
       d="m 39.993568,1014.2179 c -0.03618,0.072 -0.271437,0.6306 -0.964487,1.063 l 0.162864,0.084 c 0,0 0.757736,-0.5281 0.989446,-1.0616"
       style="fill:#497b66;fill-opacity:1;fill-rule:nonzero;stroke:none"
       id="path4052" />
    <path
       inkscape:connector-curvature="0"
       d="m 48.784386,1007.9971 c 0,0 -1.059748,1.2807 -0.397275,2.2964 0,0 3.532633,-0.4416 5.431653,-1.1039 0,0 2.119498,-0.574 2.781971,-1.678 0,0 3.002863,-5.2552 3.04696,-5.3876 0,0 0.441579,-0.9273 1.19245,-0.7948 0,0 1.148149,0.088 1.545423,-0.1768 0,0 1.324946,-0.5738 1.457442,-0.6182 0,0 0.839062,-0.75056 0.839062,-1.28059 0,0 -0.117937,-0.18386 -0.287036,-0.0441 -0.169311,0.1398 0.01455,-0.0299 0.01455,-0.0299 0,0 -0.846343,0.90547 -1.155427,1.14817 0,0 -0.794968,0.4195 -1.479281,0.082 0,0 -0.758151,-0.096 -0.456346,-0.93474 0.131032,-0.20116 0.887527,-1.3616 1.008164,-1.61931 0.01935,-0.0411 0.03016,-0.0757 0.03681,-0.1029 0.04139,-0.16766 -0.0052,-0.32242 -0.05138,-0.42704 0,0 -0.169309,-1.65584 -0.287037,-1.72949 0,0 -0.412251,-0.22817 -0.42702,0.0369 0,0 -0.02205,0.17661 0.0075,0.27956 l 0.257501,1.53109 c 0,0 -0.03681,0.11776 -0.154543,0.18387 l -1.022932,1.44992 c 0,0 -0.279758,0.23545 -0.552026,-0.0808 0,0 -0.375436,-0.89065 -0.331133,-1.15562 0,0 -0.0075,-0.74321 -0.05907,-0.8832 0,0 -0.19136,-0.33856 -0.485675,-0.37518 0,0 -0.485676,-0.015 -0.456348,0.2427 0,0 0.198638,0.2134 0.26499,0.44157 0,0 0.35318,0.37547 0.154542,1.18496 0,0 -0.02206,0.49319 -0.228174,0.75817 0,0 -0.35318,0.19862 -0.316365,0.71389 l 0.161823,1.42056 c 0,0 0.02745,0.2402 -0.196142,0.4888 l -0.02475,0.026 c -1.089077,2.186 -2.546517,4.3938 -2.546517,4.3938 0,0 -0.309085,0.7582 -2.561076,1.2734 l -4.725296,0.471"
       style="fill:#6d4223;fill-opacity:1;fill-rule:nonzero;stroke:none"
       id="path4056" />
    <path
       inkscape:connector-curvature="0"
       d="m 31.480635,995.17271 c -0.154333,0 -0.294733,-0.0628 -0.399979,-0.16552 -0.01603,-0.33053 0.116062,-0.67166 0.350061,-0.86946 0.04098,-0.0635 0.111697,-0.1077 0.181997,-0.12015 0.02267,-0.006 0.04534,-0.006 0.06822,-0.006 0.03931,0 0.07862,0.006 0.117937,0.012 0.16307,0.111 0.271021,0.30493 0.271021,0.52517 0,0.34465 -0.263949,0.62402 -0.589258,0.62402"
       style="fill:#886166;fill-opacity:1;fill-rule:nonzero;stroke:none"
       id="path4120" />
    <path
       inkscape:connector-curvature="0"
       d="m 39.211081,995.93546 c -0.104616,0 -0.202798,-0.0287 -0.28787,-0.0795 -0.05638,-0.36356 0.07758,-0.76167 0.338205,-0.98215 0.0412,-0.0636 0.111906,-0.1077 0.182206,-0.12016 0.0082,0 0.01685,0 0.02517,-0.006 0.19635,0.10125 0.331756,0.3145 0.331756,0.56136 0,0.34469 -0.263949,0.624 -0.589466,0.624"
       style="fill:#886166;fill-opacity:1;fill-rule:nonzero;stroke:none"
       id="path4124" />
    <path
       sodipodi:type="arc"
       style="fill:none;stroke:none;stroke-width:0.45125022999999997;stroke-miterlimit:4;stroke-opacity:1;stroke-dasharray:none"
       id="path4648"
       sodipodi:cx="-13.376777"
       sodipodi:cy="31.386835"
       sodipodi:rx="8.9722281"
       sodipodi:ry="7.1777825"
       d="m -4.4045486,31.386835 c 0,3.96418 -4.0170034,7.177783 -8.9722284,7.177783 -4.955224,0 -8.972228,-3.213603 -8.972228,-7.177783 0,-3.96418 4.017004,-7.177782 8.972228,-7.177782 4.955225,0 8.9722284,3.213602 8.9722284,7.177782 z"
       transform="matrix(3.7166336,0,0,-4.6457919,89.716578,1158.1789)" />
    <g
       transform="matrix(-0.01462709,-0.99989302,0.99989302,-0.01462709,-972.6715,1067.1243)"
       inkscape:transform-center-x="-0.31057921"
       inkscape:transform-center-y="25.213058"
       style="font-size:11.56471348px;font-style:normal;font-variant:normal;font-weight:bold;font-stretch:normal;text-align:center;line-height:125%;letter-spacing:0px;word-spacing:0px;text-anchor:middle;fill:#000000;fill-opacity:1;stroke:none;font-family:Ubuntu;-inkscape-font-specification:Sans Bold"
       id="text3969">
      <path
         d="m 28.395455,990.64778 -1.639861,0.75207 -3.340937,-7.28477 1.639862,-0.75208 1.417367,3.09051 2.754127,-1.26309 -1.417367,-3.09051 1.639862,-0.75207 3.340937,7.28477 -1.639862,0.75207 -1.277559,-2.78566 -2.754127,1.26309 1.277558,2.78567"
         style=""
         id="path3216" />
      <path
         d="m 25.03392,992.99041 c -0.933148,0.74653 -1.782013,1.15411 -2.546596,1.22276 -0.759766,0.0747 -1.438262,-0.26128 -2.03549,-1.00779 -0.60204,-0.75254 -0.785066,-1.49966 -0.549078,-2.24137 0.240809,-0.73569 0.830795,-1.47921 1.76996,-2.23055 l 0.442492,-0.354 -1.676086,-2.09507 1.40875,-1.12702 4.93434,6.1678 c -0.258875,0.30583 -0.550257,0.60805 -0.874145,0.90667 -0.323895,0.2986 -0.615277,0.55146 -0.874147,0.75857 m -1.051165,-1.1288 c 0.102344,-0.0819 0.202281,-0.16678 0.299811,-0.25467 0.09151,-0.0831 0.170975,-0.15653 0.238404,-0.22034 l -1.444902,-1.80609 -0.442492,0.354 c -0.487644,0.39011 -0.801902,0.75013 -0.942776,1.08006 -0.140872,0.32991 -0.06682,0.67547 0.222161,1.0367 0.139675,0.17458 0.288378,0.29258 0.446112,0.35399 0.151713,0.0662 0.314263,0.0843 0.487648,0.0542 0.172182,-0.0193 0.352189,-0.0843 0.540024,-0.19507 0.192649,-0.10476 0.391319,-0.23901 0.59601,-0.40276"
         style=""
         id="path3218" />
      <path
         d="m 16.179002,990.00494 6.227227,5.04494 -3.377851,4.16946 -1.177153,-0.95366 2.242195,-2.76766 -1.302955,-1.05558 -1.99468,2.46214 -1.177153,-0.95366 1.99468,-2.46214 -2.569967,-2.08204 1.135657,-1.4018"
         style=""
         id="path3220" />
      <path
         d="m 10.794658,997.72237 7.396873,3.08483 -2.065439,4.9526 -1.398255,-0.5832 1.371024,-3.2875 -1.547686,-0.6454 -1.219677,2.9246 -1.398255,-0.5832 1.219678,-2.9245 -3.052678,-1.27314 0.694415,-1.66509"
         style=""
         id="path3222" />
      <path
         d="m 12.202553,1008.1942 c 0.0716,-0.1419 0.149149,-0.3102 0.232655,-0.5047 0.09102,-0.1929 0.16288,-0.4058 0.215586,-0.6389 0.0238,-0.1053 0.04142,-0.2357 0.05286,-0.3912 0.01726,-0.1463 0.02311,-0.2596 0.01755,-0.3399 l -4.5345807,-1.0251 0.3799653,-1.6808 5.6174664,1.27 c 0.03727,0.3246 0.05513,0.7001 0.05357,1.1266 0.0043,0.4357 -0.05057,0.9055 -0.164472,1.4093 -0.02041,0.09 -0.05258,0.1976 -0.09651,0.3221 -0.03643,0.1261 -0.08037,0.2505 -0.131823,0.3733 -0.04395,0.1244 -0.09541,0.2472 -0.154384,0.3682 -0.05147,0.1227 -0.106197,0.225 -0.164194,0.3067 l -1.323693,-0.5956"
         style=""
         id="path3224" />
      <path
         d="m 10.576019,1008.1334 c 0.539114,0.025 1.0052,0.1272 1.398259,0.3074 0.400397,0.1881 0.729184,0.4232 0.98636,0.7052 0.257165,0.2819 0.447102,0.5994 0.569811,0.9523 0.122343,0.3607 0.175023,0.7258 0.15804,1.0955 -0.03965,0.8626 -0.336678,1.532 -0.891095,2.0082 -0.546725,0.4765 -1.332246,0.6912 -2.356565,0.6442 -0.100125,-0 -0.211622,-0.014 -0.334492,-0.027 -0.1151741,-0.013 -0.2187928,-0.026 -0.3108567,-0.037 l 0.1794466,-3.9048 c -0.356049,0.022 -0.6447698,0.1749 -0.8661631,0.458 -0.2213963,0.2831 -0.3434197,0.6711 -0.3660705,1.1641 -0.014513,0.3157 -0.00171,0.625 0.038395,0.9279 0.047455,0.3109 0.1091177,0.5645 0.184989,0.761 l -1.4084732,0.1668 c -0.041963,-0.095 -0.08251,-0.2199 -0.1216412,-0.3761 -0.039131,-0.1561 -0.069676,-0.3312 -0.091634,-0.5251 -0.030014,-0.1867 -0.051618,-0.3883 -0.064813,-0.605 -0.013194,-0.2167 -0.014837,-0.4329 -0.00493,-0.6486 0.02513,-0.5468 0.1279417,-1.0206 0.3084355,-1.4213 0.1801399,-0.3931 0.4150338,-0.718 0.7046825,-0.9748 0.2969951,-0.2488 0.6410433,-0.4298 1.0321456,-0.543 0.3907449,-0.1055 0.8094667,-0.148 1.2561667,-0.1275 m 0.472676,4.0736 c 0.146683,-10e-4 0.290402,-0.021 0.43116,-0.061 0.140396,-0.032 0.266631,-0.092 0.378706,-0.1794 0.111712,-0.08 0.205414,-0.1874 0.281104,-0.3228 0.07533,-0.1278 0.117595,-0.2918 0.126802,-0.492 0.0088,-0.1925 -0.0182,-0.3597 -0.08114,-0.5015 -0.05525,-0.1415 -0.134656,-0.2609 -0.238228,-0.3583 -0.10358,-0.097 -0.227296,-0.1764 -0.371146,-0.237 -0.13651,-0.053 -0.277399,-0.094 -0.422665,-0.1236 l -0.104589,2.2758"
         style=""
         id="path3226" />
      <path
         d="m 10.610605,1016.0098 c -1.0878482,0.1791 -1.5653625,0.6719 -1.4325447,1.4783 0.028817,0.175 0.079831,0.3424 0.153042,0.5022 0.07446,0.1675 0.1546952,0.2988 0.240705,0.394 l 3.0695507,-0.5055 c 0.0014,-0.086 -0.0047,-0.1946 -0.01839,-0.3252 -0.0061,-0.1318 -0.02166,-0.2738 -0.04672,-0.426 -0.07644,-0.464 -0.293828,-0.7876 -0.652172,-0.9708 -0.350747,-0.1845 -0.78857,-0.2335 -1.31347,-0.147 m -0.240036,-1.742 c 0.464042,-0.076 0.897525,-0.077 1.300448,-0 0.411775,0.081 0.776523,0.2315 1.094245,0.4526 0.32532,0.2199 0.596006,0.5113 0.81206,0.8743 0.216042,0.3629 0.364788,0.7916 0.446238,1.286 0.03382,0.2054 0.0575,0.4203 0.07102,0.6447 0.02237,0.2307 0.03588,0.4551 0.04054,0.6731 0.0059,0.2256 0.0023,0.4411 -0.01074,0.6464 -0.0055,0.2041 -0.01849,0.3859 -0.03906,0.5456 l -7.9078011,1.3025 -0.2800413,-1.7003 2.2593717,-0.3721 c -0.1150058,-0.1764 -0.2122453,-0.3636 -0.291719,-0.5614 -0.079475,-0.1979 -0.1386332,-0.4148 -0.1774752,-0.6506 -0.1403341,-0.852 0.030203,-1.5482 0.511611,-2.0885 0.4890138,-0.5415 1.2127814,-0.8912 2.1713049,-1.0491"
         style=""
         id="path3228" />
      <path
         d="m 10.83253,1026.6641 c -0.186531,-0.2413 -0.397052,-0.5643 -0.631563,-0.969 -0.2416862,-0.4019 -0.456017,-0.8395 -0.6429934,-1.3127 -0.1898116,-0.4805 -0.2839253,-0.9075 -0.2823412,-1.2812 0.00442,-0.3665 0.084522,-0.6882 0.2403188,-0.9653 0.1629656,-0.28 0.3902023,-0.5231 0.6817108,-0.7295 0.291505,-0.2063 0.63086,-0.386 1.018067,-0.539 l 3.151411,-1.2451 0.633174,1.6026 -2.957809,1.1686 c -0.516275,0.204 -0.862224,0.4194 -1.037849,0.6463 -0.175629,0.2269 -0.189785,0.5268 -0.04247,0.8997 0.04533,0.1147 0.09707,0.2352 0.155238,0.3614 0.06533,0.1234 0.125001,0.2325 0.179007,0.3272 l 4.366801,-1.7253 0.633175,1.6026 -5.46388,2.1587"
         style=""
         id="path3230" />
      <path
         d="m 13.740236,1026.3018 c 0.449889,-0.2981 0.886651,-0.4904 1.310288,-0.5769 0.434314,-0.084 0.838469,-0.088 1.212466,-0.013 0.373986,0.076 0.71464,0.2201 1.021963,0.4327 0.311569,0.219 0.56956,0.4827 0.773973,0.7912 0.47694,0.7199 0.632081,1.4356 0.465424,2.1472 -0.160245,0.7073 -0.667761,1.3441 -1.522549,1.9105 -0.08356,0.055 -0.178878,0.1139 -0.285963,0.1756 -0.100669,0.058 -0.191693,0.1085 -0.27307,0.1532 l -2.159039,-3.2585 c -0.274354,0.228 -0.417384,0.5216 -0.429089,0.8808 -0.01171,0.3592 0.118705,0.7445 0.39125,1.1558 0.174593,0.2636 0.367426,0.5057 0.578499,0.7266 0.22175,0.223 0.421207,0.3914 0.59837,0.5052 l -1.038751,0.9658 c -0.08967,-0.052 -0.196365,-0.1289 -0.320093,-0.2319 -0.123734,-0.103 -0.251685,-0.2263 -0.383851,-0.3699 -0.134341,-0.133 -0.270769,-0.2831 -0.409285,-0.4502 -0.13852,-0.1672 -0.267397,-0.3408 -0.386632,-0.5207 -0.302352,-0.4564 -0.498893,-0.8995 -0.589622,-1.3296 -0.08647,-0.4236 -0.08855,-0.8246 -0.0062,-1.2028 0.09301,-0.3761 0.263996,-0.7252 0.512955,-1.0474 0.253214,-0.3158 0.566205,-0.5972 0.938975,-0.8441 m 2.785203,3.01 c 0.117849,-0.087 0.221844,-0.1886 0.311986,-0.3038 0.09439,-0.1088 0.161024,-0.2315 0.199907,-0.3683 0.04313,-0.1303 0.05529,-0.2725 0.03649,-0.4265 -0.01456,-0.1476 -0.07719,-0.3049 -0.187906,-0.472 -0.106467,-0.1607 -0.226946,-0.2797 -0.361435,-0.3571 -0.128074,-0.082 -0.262648,-0.1311 -0.403723,-0.1486 -0.141085,-0.018 -0.287586,-0.01 -0.439504,0.028 -0.141242,0.038 -0.279305,0.088 -0.414189,0.1496 l 1.258375,1.8991"
         style=""
         id="path3232" />
      <path
         d="m 19.400299,1029.5572 c 0.268179,0.1453 0.591348,0.3556 0.969509,0.6309 0.383562,0.2698 0.75654,0.5833 1.118937,0.9405 0.367873,0.3627 0.623899,0.7125 0.768078,1.0494 0.155068,0.3369 0.217388,0.6636 0.186963,0.98 -0.03044,0.3164 -0.134529,0.6252 -0.312264,0.9263 -0.177749,0.3012 -0.412751,0.6 -0.705008,0.8965 l -2.411171,2.4461 -1.227183,-1.2096 2.26504,-2.2979 c 0.389678,-0.3954 0.613542,-0.7268 0.671592,-0.9944 0.05804,-0.2675 -0.0557,-0.542 -0.341212,-0.8234 -0.08786,-0.087 -0.186613,-0.1732 -0.296265,-0.2596 -0.104252,-0.092 -0.200222,-0.1703 -0.287912,-0.2351 l -3.296079,3.3439 -1.227183,-1.2097 4.124158,-4.1839"
         style=""
         id="path3234" />
      <path
         d="m 21.713308,1035.6888 c 0.242384,-0.3665 0.527767,-0.6723 0.856149,-0.9173 0.339059,-0.2472 0.699802,-0.4154 1.082231,-0.5045 0.386673,-0.096 0.787564,-0.1077 1.202673,-0.037 0.415099,0.071 0.828444,0.2428 1.240036,0.5149 0.270097,0.1786 0.500682,0.3681 0.691756,0.5684 0.195312,0.1938 0.369317,0.4059 0.522015,0.6363 l -1.058098,0.9502 c -0.101039,-0.1408 -0.219186,-0.2836 -0.354441,-0.4285 -0.135267,-0.1449 -0.302579,-0.2832 -0.501935,-0.4151 -0.424453,-0.2806 -0.829964,-0.3593 -1.216531,-0.2359 -0.380146,0.1276 -0.712672,0.4068 -0.99758,0.8377 -0.301924,0.4566 -0.43934,0.8741 -0.41225,1.2525 0.03351,0.3826 0.294653,0.7355 0.783415,1.0587 0.173634,0.1148 0.370765,0.222 0.591393,0.3217 0.220619,0.1 0.437923,0.1694 0.651911,0.2093 l -0.575612,1.3108 c -0.213988,-0.04 -0.463394,-0.1169 -0.74822,-0.2313 -0.284833,-0.1144 -0.578377,-0.2716 -0.880632,-0.4714 -0.463037,-0.3062 -0.817111,-0.6374 -1.062222,-0.9936 -0.240862,-0.3626 -0.39195,-0.7351 -0.453265,-1.1177 -0.05489,-0.3782 -0.02747,-0.7622 0.08226,-1.1518 0.120405,-0.3917 0.306055,-0.7773 0.556949,-1.1568"
         style=""
         id="path3236" />
      <path
         d="m 32.583635,1037.9941 c -0.772689,0.9469 -1.531301,1.8203 -2.275838,2.6202 -0.744548,0.7999 -1.50918,1.558 -2.293898,2.2742 -0.283356,0.2574 -0.545863,0.4651 -0.78752,0.6231 -0.24464,0.165 -0.485633,0.2814 -0.722977,0.3492 -0.240327,0.075 -0.487673,0.097 -0.74204,0.065 -0.250235,-0.021 -0.524692,-0.094 -0.823371,-0.2194 -0.248899,-0.1042 -0.469597,-0.2259 -0.662093,-0.365 -0.188362,-0.1291 -0.338189,-0.2503 -0.449482,-0.3638 l 0.808932,-1.1532 c 0.139738,0.1254 0.269142,0.2255 0.388214,0.3005 0.11907,0.075 0.24972,0.1422 0.391949,0.2017 0.284455,0.1191 0.534112,0.1317 0.748971,0.038 0.218989,-0.084 0.438403,-0.2385 0.658243,-0.464 -0.06488,-0.8631 -0.09401,-1.8114 -0.08741,-2.8451 0.0096,-1.0408 0.08516,-2.1794 0.226749,-3.4157 l 1.685405,0.7058 c -0.04503,0.3072 -0.08982,0.6437 -0.134361,1.0095 -0.03446,0.3617 -0.06833,0.732 -0.101628,1.1109 -0.03032,0.3718 -0.05767,0.7365 -0.08203,1.0941 -0.01726,0.3605 -0.02971,0.6897 -0.03736,0.9874 0.199655,-0.2173 0.414782,-0.4616 0.645382,-0.7328 0.23059,-0.2712 0.460608,-0.551 0.690053,-0.8394 0.239524,-0.2926 0.468963,-0.581 0.688319,-0.8653 0.229434,-0.2884 0.437784,-0.5564 0.625049,-0.8039 l 1.642737,0.6879"
         style=""
         id="path3238" />
    </g>
  </g>
</svg>
