<?xml version="1.0" encoding="UTF-8" standalone="no"?>
<!-- Created with Inkscape (http://www.inkscape.org/) -->

<svg
   xmlns:osb="http://www.openswatchbook.org/uri/2009/osb"
   xmlns:dc="http://purl.org/dc/elements/1.1/"
   xmlns:cc="http://creativecommons.org/ns#"
   xmlns:rdf="http://www.w3.org/1999/02/22-rdf-syntax-ns#"
   xmlns:svg="http://www.w3.org/2000/svg"
   xmlns="http://www.w3.org/2000/svg"
   xmlns:xlink="http://www.w3.org/1999/xlink"
   xmlns:sodipodi="http://sodipodi.sourceforge.net/DTD/sodipodi-0.dtd"
   xmlns:inkscape="http://www.inkscape.org/namespaces/inkscape"
   width="80"
   height="80"
   id="svg3099"
   version="1.1"
   inkscape:version="0.48.4 r9939"
   sodipodi:docname="LPFDial.svg">
  <defs
     id="defs3101">
    <marker
       inkscape:stockid="Arrow1Sstart"
       orient="auto"
       refY="0.0"
       refX="0.0"
       id="Arrow1Sstart"
       style="overflow:visible">
      <path
         id="path6174"
         d="M 0.0,0.0 L 5.0,-5.0 L -12.5,0.0 L 5.0,5.0 L 0.0,0.0 z "
         style="fill-rule:evenodd;stroke:#000000;stroke-width:1.0pt"
         transform="scale(0.2) translate(6,0)" />
    </marker>
    <marker
       inkscape:stockid="Arrow1Mstart"
       orient="auto"
       refY="0.0"
       refX="0.0"
       id="Arrow1Mstart"
       style="overflow:visible">
      <path
         id="path6168"
         d="M 0.0,0.0 L 5.0,-5.0 L -12.5,0.0 L 5.0,5.0 L 0.0,0.0 z "
         style="fill-rule:evenodd;stroke:#000000;stroke-width:1.0pt"
         transform="scale(0.4) translate(10,0)" />
    </marker>
    <marker
       inkscape:stockid="DiamondSend"
       orient="auto"
       refY="0.0"
       refX="0.0"
       id="DiamondSend"
       style="overflow:visible">
      <path
         id="path6265"
         d="M 0,-7.0710768 L -7.0710894,0 L 0,7.0710589 L 7.0710462,0 L 0,-7.0710768 z "
         style="fill-rule:evenodd;stroke:#000000;stroke-width:1.0pt"
         transform="scale(0.2) translate(-6,0)" />
    </marker>
    <marker
       inkscape:stockid="Arrow1Lend"
       orient="auto"
       refY="0.0"
       refX="0.0"
       id="Arrow1Lend"
       style="overflow:visible;">
      <path
         id="path6165"
         d="M 0.0,0.0 L 5.0,-5.0 L -12.5,0.0 L 5.0,5.0 L 0.0,0.0 z "
         style="fill-rule:evenodd;stroke:#000000;stroke-width:1.0pt;"
         transform="scale(0.8) rotate(180) translate(12.5,0)" />
    </marker>
    <linearGradient
       id="linearGradient5329"
       osb:paint="solid">
      <stop
         style="stop-color:#ffed00;stop-opacity:1;"
         offset="0"
         id="stop5331" />
    </linearGradient>
    <linearGradient
       x1="0"
       y1="0"
       x2="1"
       y2="0"
       gradientUnits="userSpaceOnUse"
       gradientTransform="matrix(0,-0.61847875,0.61847875,0,-217.64634,304.02926)"
       spreadMethod="pad"
       id="linearGradient8080-3">
      <stop
         style="stop-opacity:1;stop-color:#37373b"
         offset="0"
         id="stop8082-6" />
      <stop
         style="stop-opacity:1;stop-color:#37373b"
         offset="1"
         id="stop8084-7" />
    </linearGradient>
    <linearGradient
       x1="0"
       y1="0"
       x2="1"
       y2="0"
       gradientUnits="userSpaceOnUse"
       gradientTransform="matrix(0,-0.61847125,0.61847125,0,-219.20459,303.97266)"
       spreadMethod="pad"
       id="linearGradient8064-5">
      <stop
         style="stop-opacity:1;stop-color:#37373b"
         offset="0"
         id="stop8066-3" />
      <stop
         style="stop-opacity:1;stop-color:#37373b"
         offset="1"
         id="stop8068-5" />
    </linearGradient>
    <linearGradient
       x1="0"
       y1="0"
       x2="1"
       y2="0"
       gradientUnits="userSpaceOnUse"
       gradientTransform="matrix(0,-0.5076025,0.5076025,0,-104.54867,297.63442)"
       spreadMethod="pad"
       id="linearGradient8494">
      <stop
         style="stop-opacity:1;stop-color:#37373b"
         offset="0"
         id="stop8496" />
      <stop
         style="stop-opacity:1;stop-color:#37373b"
         offset="1"
         id="stop8498" />
    </linearGradient>
    <linearGradient
       x1="0"
       y1="0"
       x2="1"
       y2="0"
       gradientUnits="userSpaceOnUse"
       gradientTransform="matrix(0,-0.5076025,0.5076025,0,-105.65717,297.85667)"
       spreadMethod="pad"
       id="linearGradient8478">
      <stop
         style="stop-opacity:1;stop-color:#37373b"
         offset="0"
         id="stop8480" />
      <stop
         style="stop-opacity:1;stop-color:#37373b"
         offset="1"
         id="stop8482" />
    </linearGradient>
    <linearGradient
       inkscape:collect="always"
       xlink:href="#linearGradient8478"
       id="linearGradient8900"
       gradientUnits="userSpaceOnUse"
       gradientTransform="matrix(0.05253524,-0.31247229,0.31247229,0.05253524,-71.09297,1150.5117)"
       spreadMethod="pad"
       x1="0"
       y1="0"
       x2="1"
       y2="0" />
    <linearGradient
       inkscape:collect="always"
       xlink:href="#linearGradient8494"
       id="linearGradient8902"
       gradientUnits="userSpaceOnUse"
       gradientTransform="matrix(0.05253524,-0.31247229,0.31247229,0.05253524,-70.387581,1150.4896)"
       spreadMethod="pad"
       x1="0"
       y1="0"
       x2="1"
       y2="0" />
    <path
       sodipodi:type="arc"
       style="fill:none;stroke:none"
       id="path3040"
       sodipodi:cx="-38.400002"
       sodipodi:cy="27.700001"
       sodipodi:rx="12"
       sodipodi:ry="14.9"
       d="m -26.400002,27.700001 a 12,14.9 0 1 1 -24,0 12,14.9 0 1 1 24,0 z"
       transform="matrix(2.715143,0,0,-2.1866924,144.26149,1072.9336)" />
    <path
       sodipodi:type="arc"
       style="fill:none;stroke:none"
       id="path3040-3"
       sodipodi:cx="-38.400002"
       sodipodi:cy="27.700001"
       sodipodi:rx="12"
       sodipodi:ry="14.9"
       d="m -26.400002,27.700001 a 12,14.9 0 1 1 -24,0 12,14.9 0 1 1 24,0 z"
       transform="matrix(2.715143,0,0,-2.1866924,144.26149,1072.9336)" />
  </defs>
  <sodipodi:namedview
     id="base"
     pagecolor="#ffffff"
     bordercolor="#666666"
     borderopacity="1.0"
     inkscape:pageopacity="0.0"
     inkscape:pageshadow="2"
     inkscape:zoom="5"
     inkscape:cx="47.692227"
     inkscape:cy="34.40353"
     inkscape:document-units="px"
     inkscape:current-layer="layer1"
     showgrid="false"
     inkscape:window-width="1360"
     inkscape:window-height="716"
     inkscape:window-x="0"
     inkscape:window-y="0"
     inkscape:window-maximized="1"
     showguides="true"
     inkscape:snap-global="false"
     inkscape:guide-bbox="true">
    <inkscape:grid
       type="xygrid"
       id="grid5389" />
  </sodipodi:namedview>
  <metadata
     id="metadata3104">
    <rdf:RDF>
      <cc:Work
         rdf:about="">
        <dc:format>image/svg+xml</dc:format>
        <dc:type
           rdf:resource="http://purl.org/dc/dcmitype/StillImage" />
        <dc:title />
      </cc:Work>
    </rdf:RDF>
  </metadata>
  <g
     inkscape:label="Layer 1"
     inkscape:groupmode="layer"
     id="layer1"
     transform="translate(0,-972.36218)">
    <path
       sodipodi:type="arc"
       style="fill:#007bff;fill-opacity:1;stroke:#000000;stroke-width:0.35078914999999999;stroke-miterlimit:4;stroke-opacity:1;stroke-dasharray:none"
       id="path3107"
       sodipodi:cx="31.375"
       sodipodi:cy="23.25"
       sodipodi:rx="2.625"
       sodipodi:ry="3"
       d="m 34,23.25 c 0,1.656854 -1.175253,3 -2.625,3 -1.449747,0 -2.625,-1.343146 -2.625,-3 0,-1.656854 1.175253,-3 2.625,-3 1.449747,0 2.625,1.343146 2.625,3 z"
       transform="matrix(14.341736,0,0,12.54902,-409.97197,720.59746)" />
    <path
       sodipodi:type="arc"
       style="fill:none;stroke:none;stroke-width:0.40141922000000002;stroke-miterlimit:4;stroke-opacity:1;stroke-dasharray:none"
       id="path5339"
       sodipodi:cx="42.012287"
       sodipodi:cy="38.371735"
       sodipodi:rx="6.0675883"
       sodipodi:ry="8.1413212"
       d="m 48.079875,38.371735 c 0,4.496327 -2.716551,8.141321 -6.067588,8.141321 -3.351036,0 -6.067588,-3.644994 -6.067588,-8.141321 0,-4.496328 2.716552,-8.141322 6.067588,-8.141322 3.351037,0 6.067588,3.644994 6.067588,8.141322 z"
       transform="matrix(5.3798643,0,0,-4.0095214,-186.0204,1166.2145)" />
    <path
       sodipodi:type="star"
       style="fill:none;stroke:none"
       id="path6076"
       sodipodi:sides="5"
       sodipodi:cx="35.911602"
       sodipodi:cy="4.198895"
       sodipodi:r1="9.1579485"
       sodipodi:r2="4.2417741"
       sodipodi:arg1="0.72564034"
       sodipodi:arg2="2.6096934"
       inkscape:flatsided="false"
       inkscape:rounded="0"
       inkscape:randomized="0"
       d="M 42.762431,10.276243 32.255849,6.3502003 32.248723,12.592424 32.735899,1.3868568 26.796989,3.3090331 37.604663,0.3096545 33.941341,-4.7445994 40.133674,4.6072504 43.808526,-0.43862666 36.827925,8.340513 z"
       transform="translate(0,972.36218)"
       inkscape:transform-center-x="0.60884423"
       inkscape:transform-center-y="-0.27498241" />
    <path
       sodipodi:type="star"
       style="fill:none;stroke:none"
       id="path6078"
       sodipodi:sides="5"
       sodipodi:cx="42.762431"
       sodipodi:cy="8.6187845"
       sodipodi:r1="4.7526659"
       sodipodi:r2="2.2013375"
       sodipodi:arg1="-1.5475447"
       sodipodi:arg2="-0.91922617"
       inkscape:flatsided="false"
       inkscape:rounded="0"
       inkscape:randomized="0"
       d="m 42.872929,3.8674036 1.224473,3.0010261 3.218008,0.3871868 -2.475763,2.0919104 0.626183,3.1801551 -2.754578,-1.708155 -2.831006,1.578257 0.77334,-3.1476074 -2.375841,-2.2047384 3.232529,-0.2371743 z"
       transform="translate(0,972.36218)"
       inkscape:transform-center-x="-0.034145524"
       inkscape:transform-center-y="-0.42124221" />
    <path
       sodipodi:type="star"
       style="fill:none;stroke:none"
       id="path6080"
       sodipodi:sides="5"
       sodipodi:cx="51.270718"
       sodipodi:cy="-3.6464088"
       sodipodi:r1="11.713228"
       sodipodi:r2="5.4253275"
       sodipodi:arg1="-3.132159"
       sodipodi:arg2="-2.5038404"
       inkscape:flatsided="false"
       inkscape:rounded="0"
       inkscape:randomized="0"
       d="m 39.558011,-3.7569057 7.353803,-3.1196943 0.844567,-7.943401 5.239456,6.0298445 7.815608,-1.6514145 -4.115641,6.8463425 3.985744,6.92277 -7.783062,-1.7985714 -5.352283,5.929922 -0.694555,-7.95792113 z"
       transform="translate(0,972.36218)"
       inkscape:transform-center-x="1.0859897"
       inkscape:transform-center-y="-0.034145524" />
    <path
       sodipodi:type="arc"
       style="fill:none;stroke:#ff6700;stroke-width:0.35078918999999997;stroke-linecap:butt;stroke-linejoin:miter;stroke-miterlimit:4.80000019000000044;stroke-opacity:1;stroke-dasharray:none;marker-start:none;marker-mid:none;marker-end:none"
       id="path3107-2"
       sodipodi:cx="31.375"
       sodipodi:cy="23.25"
       sodipodi:rx="2.625"
       sodipodi:ry="3"
       d="m 31.603784,20.261416 c 1.44423,0.144404 2.512581,1.599502 2.386227,3.250051 -0.126354,1.65055 -1.399564,2.871521 -2.843795,2.727117 -1.44423,-0.144404 -2.512581,-1.599502 -2.386227,-3.250051 0.111027,-1.450341 1.117179,-2.600229 2.386228,-2.727117"
       transform="matrix(14.341736,0,0,12.54902,-409.96562,720.59111)"
       sodipodi:start="4.7996554"
       sodipodi:end="10.908308"
       sodipodi:open="true" />
    <path
       inkscape:connector-curvature="0"
       d="m 38.520114,991.65201 c -9.883511,0.35908 -17.667996,6.88197 -17.388477,14.56909 0.279403,7.6879 8.516626,13.6287 18.400154,13.2695 9.882743,-0.3592 17.668577,-6.8826 17.389596,-14.5696 -0.27962,-7.68796 -8.519284,-13.62842 -18.401273,-13.26899"
       style="fill:#eac0a3;fill-opacity:1;fill-rule:nonzero;stroke:none"
       id="path8434" />
    <path
       inkscape:connector-curvature="0"
       d="m 27.90757,1008.2773 c -1.401258,0.052 -2.493409,1.2298 -2.441649,2.6302 0.05317,1.4015 1.230355,2.4943 2.632631,2.4413 1.398948,-0.052 2.492638,-1.2298 2.440878,-2.6303 -0.0524,-1.4014 -1.232663,-2.4947 -2.63186,-2.4412"
       style="fill:#e09f8d;fill-opacity:1;fill-rule:nonzero;stroke:none"
       id="path8436" />
    <path
       inkscape:connector-curvature="0"
       d="m 50.262065,1007.5771 c -1.402158,0.052 -2.49277,1.2307 -2.441779,2.631 0.0533,1.4007 1.230353,2.4943 2.632629,2.4413 1.39895,-0.052 2.492638,-1.2299 2.440109,-2.6304 -0.0524,-1.4014 -1.231124,-2.4945 -2.630959,-2.4419"
       style="fill:#e3a795;fill-opacity:1;fill-rule:nonzero;stroke:none"
       id="path8438" />
    <path
       inkscape:connector-curvature="0"
       d="m 52.160914,984.5883 c -10.365594,-7.12707 -29.199915,-4.64739 -30.742167,17.6474 15.908591,-8.3836 29.266563,-3.44924 33.387296,-0.1785 1.217425,0.6794 2.049976,10.5001 12.055985,9.0594 -9.853423,-13.59474 -5.315646,-19.70839 -14.701114,-26.5283"
       style="fill:#c0252a;fill-opacity:1;fill-rule:nonzero;stroke:none"
       id="path8440" />
    <path
       inkscape:connector-curvature="0"
       d="m 63.431272,1006.5045 c -1.47357,0.6606 -2.339092,2.1284 -2.313818,3.6582 0.008,0.5124 0.12091,1.0315 0.339439,1.5247 0.489478,1.1077 1.429682,1.8735 2.508058,2.1798 0.847772,0.2379 1.779576,0.1971 2.638684,-0.1878 1.966331,-0.8807 2.848467,-3.205 1.974362,-5.1828 -0.87575,-1.9822 -3.178737,-2.8733 -5.146725,-1.9921"
       style="fill:#faeed1;fill-opacity:1;fill-rule:nonzero;stroke:none"
       id="path8442" />
    <path
       inkscape:connector-curvature="0"
       d="m 65.440827,1012.4023 c -1.079931,-0.3065 -2.020267,-1.0715 -2.509481,-2.1808 -0.216989,-0.493 -0.33093,-1.0106 -0.340457,-1.5234 -0.0087,-0.7152 0.173653,-1.4188 0.525226,-2.0322 -1.280331,0.7161 -2.0223,2.0796 -1.997892,3.4969 0.0072,0.5123 0.119123,1.0327 0.339704,1.5232 0.489214,1.1093 1.429683,1.8735 2.506254,2.1811 0.848376,0.239 1.77971,0.1963 2.638816,-0.1886 0.7835,-0.3493 1.395047,-0.9277 1.79216,-1.6237 -0.101361,0.057 -0.20745,0.1091 -0.317972,0.1594 -0.857434,0.3843 -1.788535,0.4256 -2.636358,0.1881"
       style="fill:#a4cabf;fill-opacity:1;fill-rule:nonzero;stroke:none"
       id="path8444" />
    <path
       inkscape:connector-curvature="0"
       d="m 51.268625,994.15456 c 0,0 -14.134465,-11.58708 -27.996782,3.24724 l -0.410138,0.52922 c 0,0 -5.051264,6.89618 -0.519931,10.23268 0,0 2.421676,-8.61291 16.558391,-9.35991 0,0 12.836399,-0.58033 17.332592,8.12831 0,0 4.754176,-5.2924 -4.964132,-12.77754"
       style="fill:#f8eedc;fill-opacity:1;fill-rule:nonzero;stroke:none"
       id="path8446" />
    <path
       inkscape:connector-curvature="0"
       d="m 50.267815,985.74412 c 4.544453,5.26373 5.208162,9.23179 4.7257,11.9414 0.291196,0.35753 0.556628,0.70829 0.785756,1.0491 0.453724,-3.43755 -0.516071,-7.93813 -5.511456,-12.9905"
       style="fill:#952326;fill-opacity:1;fill-rule:nonzero;stroke:none"
       id="path8448" />
    <path
       inkscape:connector-curvature="0"
       d="m 39.163828,1010.4175 c -2.248957,0.082 -4.020198,1.5197 -3.958716,3.2106 0.06108,1.6933 1.931826,2.9953 4.180783,2.9136 2.247402,-0.082 4.018782,-1.516 3.957681,-3.2092 -0.06148,-1.6909 -1.932346,-2.9969 -4.179748,-2.915"
       style="fill:#2d2c31;fill-opacity:1;fill-rule:nonzero;stroke:none"
       id="path8450" />
    <path
       inkscape:connector-curvature="0"
       d="m 39.673478,1015.7395 c -7.364796,0.2683 -15.082664,-6.545 -18.546114,-9.6821 -0.686513,3.2338 -1.742406,16.899 8.806934,22.3034 4.639869,2.3761 11.611075,2.5805 8.796012,6.0198 0,0 23.457361,-10.3988 18.175734,-29.7637 -3.130393,3.5407 -9.644183,10.8469 -17.232566,11.1226"
       style="fill:#fbf2e2;fill-opacity:1;fill-rule:nonzero;stroke:none"
       id="path8452" />
    <path
       inkscape:connector-curvature="0"
       d="m 39.018677,1010.7349 c 4.725079,17.0701 19.116893,-3.2281 19.116893,-3.2281 0,0 -10.955851,6.996 -19.116893,3.2281"
       style="fill:#f8eedc;fill-opacity:1;fill-rule:nonzero;stroke:none"
       id="path8454" />
    <path
       inkscape:connector-curvature="0"
       d="m 39.018677,1010.7349 c 4.725079,17.0701 19.116893,-3.2281 19.116893,-3.2281 0,0 -15.719378,15.5348 -19.116893,3.2281"
       style="fill:#a5cbc2;fill-opacity:1;fill-rule:nonzero;stroke:none"
       id="path8456" />
    <path
       inkscape:connector-curvature="0"
       d="m 19.753148,1008.9018 c 0,0 15.82751,19.1994 19.300546,1.8319 -7.865863,4.3498 -19.300546,-1.8319 -19.300546,-1.8319"
       style="fill:#f8eedc;fill-opacity:1;fill-rule:nonzero;stroke:none"
       id="path8458" />
    <path
       inkscape:connector-curvature="0"
       d="m 19.753148,1008.9018 c 0,0 15.82751,19.1994 19.300546,1.8319 -2.490647,12.5598 -19.300546,-1.8319 -19.300546,-1.8319"
       style="fill:#a5cbc2;fill-opacity:1;fill-rule:nonzero;stroke:none"
       id="path8460" />
    <path
       inkscape:connector-curvature="0"
       d="m 39.090295,1008.0876 c -2.032397,0.074 -3.630939,1.4729 -3.570801,3.1247 0.06025,1.6512 1.756048,2.9301 3.788461,2.8564 2.032396,-0.074 3.630035,-1.4722 3.570684,-3.124 -0.06014,-1.6519 -1.755949,-2.9307 -3.788344,-2.8571"
       style="fill:#e09f8d;fill-opacity:1;fill-rule:nonzero;stroke:none"
       id="path8462" />
    <path
       inkscape:connector-curvature="0"
       d="m 40.295936,1009.1053 c -0.68144,0.025 -1.217018,0.4948 -1.197028,1.0488 0.02063,0.5551 0.588421,0.9851 1.269994,0.9597 0.68144,-0.025 1.217672,-0.4939 1.19703,-1.0489 -0.01986,-0.5548 -0.588539,-0.9844 -1.269996,-0.9596"
       style="fill:#f8eedc;fill-opacity:1;fill-rule:nonzero;stroke:none"
       id="path8464" />
    <path
       inkscape:connector-curvature="0"
       d="m 33.30709,998.57235 1.271646,0.18744 c 0,0 -3.498349,-0.1205 -4.686838,2.04941 l 0.9994,-0.3628 c 0,0 -1.294504,1.0309 -0.660981,2.7831 0,0 2.146309,-2.4219 4.121312,-2.9071 1.970005,-0.48381 3.421644,0.1249 2.800751,-0.67181 0,0 -1.010369,-1.58614 -3.845257,-1.07843"
       style="fill:#caa481;fill-opacity:1;fill-rule:nonzero;stroke:none"
       id="path8466" />
    <path
       inkscape:connector-curvature="0"
       d="m 46.692439,999.93659 1.011553,0.29911 c -1.304057,-2.07949 -4.765574,-1.75078 -4.765574,-1.75078 l 1.250685,-0.26204 c -2.839711,-0.33425 -3.748689,1.29791 -3.748689,1.29791 -0.568675,0.82701 0.832577,0.14 2.814297,0.49951 1.986773,0.3624 4.2552,2.6357 4.2552,2.6357 0.526269,-1.7748 -0.817506,-2.71921 -0.817506,-2.71921"
       style="fill:#caa481;fill-opacity:1;fill-rule:nonzero;stroke:none"
       id="path8468" />
    <path
       inkscape:connector-curvature="0"
       d="m 35.397451,1004.1119 c -1.31247,0.041 -2.342551,1.1325 -2.301816,2.4385 0.0045,0.1194 0.02557,0.2338 0.04672,0.3481 0.208954,-1.0734 1.136919,-1.9008 2.281475,-1.9363 1.14467,-0.036 2.123358,0.7312 2.399571,1.7897 0.01304,-0.1149 0.02766,-0.2304 0.02398,-0.3497 -0.04072,-1.3061 -1.137584,-2.3308 -2.449921,-2.2903"
       style="fill:url(#linearGradient8900);fill-opacity:1;fill-rule:nonzero;stroke:none"
       id="path8484" />
    <path
       inkscape:connector-curvature="0"
       d="m 42.45109,1003.8919 c -1.312321,0.04 -2.342535,1.1323 -2.301684,2.4377 0.0036,0.1199 0.02559,0.2337 0.04671,0.3481 0.208185,-1.0736 1.136937,-1.901 2.281476,-1.9364 1.14467,-0.036 2.123375,0.7312 2.398818,1.7895 0.01381,-0.1147 0.02842,-0.2302 0.02474,-0.3495 -0.04073,-1.3061 -1.137583,-2.3308 -2.450069,-2.2894"
       style="fill:url(#linearGradient8902);fill-opacity:1;fill-rule:nonzero;stroke:none"
       id="path8500" />
    <path
       sodipodi:type="arc"
       style="fill:none;stroke:none;stroke-width:0.26858895999999999;stroke-miterlimit:4;stroke-opacity:1;stroke-dasharray:none"
       id="path9696"
       sodipodi:cx="-7.886179"
       sodipodi:cy="17.560976"
       sodipodi:rx="3.495935"
       sodipodi:ry="3.2520325"
       d="m -4.390244,17.560976 c 0,1.796048 -1.5651834,3.252033 -3.495935,3.252033 -1.9307515,0 -3.495935,-1.455985 -3.495935,-3.252033 0,-1.796048 1.5651835,-3.252032 3.495935,-3.252032 1.9307516,0 3.495935,1.455984 3.495935,3.252032 z"
       transform="matrix(9.4116658,0,0,-10.11754,114.22208,1190.0361)" />
    <g
       transform="matrix(-0.01462709,-0.99989302,0.99989302,-0.01462709,-972.6715,1067.1243)"
       inkscape:transform-center-x="-0.31057921"
       inkscape:transform-center-y="25.213058"
       style="font-size:11.56471348px;font-style:normal;font-variant:normal;font-weight:bold;font-stretch:normal;text-align:center;line-height:125%;letter-spacing:0px;word-spacing:0px;text-anchor:middle;fill:#000000;fill-opacity:1;stroke:none;font-family:Ubuntu;-inkscape-font-specification:Sans Bold"
       id="text3969">
      <path
         d="m 24.324235,985.40295 -0.64607,-1.40858 4.866932,-2.23231 3.341244,7.28463 -1.639831,0.75214 -2.695173,-5.87606 -3.227102,1.48018"
         style=""
         id="path3115" />
      <path
         d="m 25.632,992.54184 c -0.955397,0.71783 -1.816252,1.09944 -2.582568,1.14483 -0.761684,0.0515 -1.429661,-0.30485 -2.003933,-1.06916 -0.578899,-0.77049 -0.739142,-1.52283 -0.480731,-2.25702 0.263049,-0.72804 0.875352,-1.45329 1.83691,-2.17575 l 0.453043,-0.3404 -1.611663,-2.14501 1.44234,-1.08371 4.74468,6.31486 c -0.268048,0.29783 -0.568477,0.59106 -0.901288,0.8797 -0.332817,0.28863 -0.631747,0.53251 -0.89679,0.73166 m -1.016385,-1.16021 c 0.104784,-0.0787 0.207254,-0.16055 0.30741,-0.24544 0.09399,-0.0803 0.175651,-0.15127 0.244988,-0.213 l -1.389365,-1.84916 -0.453043,0.3404 c -0.499271,0.37512 -0.824322,0.72542 -0.975153,1.05092 -0.15083,0.32547 -0.08731,0.67313 0.190562,1.04297 0.134306,0.17874 0.279357,0.3012 0.435151,0.36738 0.149632,0.0708 0.311558,0.0938 0.485778,0.069 0.172688,-0.014 0.354587,-0.0736 0.5457,-0.17857 0.195743,-0.0989 0.398401,-0.22702 0.607972,-0.38447"
         style=""
         id="path3117" />
      <path
         d="m 16.872052,989.289 6.071241,5.23161 -3.502841,4.06502 -1.147666,-0.98895 2.325162,-2.69833 -1.270318,-1.09464 -2.068488,2.40046 -1.147666,-0.98894 2.068488,-2.40047 -2.505592,-2.15907 1.17768,-1.36669"
         style=""
         id="path3119" />
      <path
         d="m 11.255404,996.8391 7.298802,3.3102 -2.216335,4.8869 -1.379715,-0.6257 1.471187,-3.2439 -1.527166,-0.6926 -1.308784,2.8858 -1.379716,-0.6258 1.308784,-2.88578 -3.012204,-1.3661 0.745147,-1.64302"
         style=""
         id="path3121" />
      <path
         d="m 12.34114,1007.3491 c 0.07592,-0.1396 0.158598,-0.3054 0.248036,-0.4972 0.09689,-0.19 0.175259,-0.4007 0.235095,-0.6321 0.02702,-0.1045 0.04863,-0.2343 0.06485,-0.3893 0.02174,-0.1457 0.03106,-0.2588 0.02798,-0.3392 l -4.5009797,-1.1638 0.4313729,-1.6683 5.5758408,1.4417 c 0.02729,0.3256 0.03361,0.7016 0.01897,1.1278 -0.0091,0.4356 -0.07834,0.9035 -0.207651,1.4036 -0.02317,0.09 -0.05862,0.1959 -0.106351,0.3189 -0.04028,0.125 -0.08802,0.248 -0.14322,0.3691 -0.04774,0.123 -0.102949,0.2441 -0.165613,0.3633 -0.05521,0.1211 -0.113052,0.2216 -0.17353,0.3015 l -1.304788,-0.636"
         style=""
         id="path3123" />
      <path
         d="m 10.717001,1007.2371 c 0.538119,0.041 1.000896,0.1576 1.388332,0.3495 0.394528,0.2002 0.716061,0.4451 0.964601,0.7347 0.248528,0.2896 0.428786,0.6126 0.540774,0.9691 0.11139,0.3642 0.153012,0.7308 0.124866,1.0998 -0.06569,0.861 -0.382815,1.5211 -0.951367,1.9803 -0.560875,0.4598 -1.352526,0.6507 -2.374955,0.5727 -0.09994,-0.01 -0.211115,-0.02 -0.333525,-0.037 -0.1147281,-0.017 -0.2179224,-0.032 -0.3095834,-0.047 l 0.2973524,-3.8975 c -0.3565578,0.011 -0.6497598,0.1553 -0.8796066,0.4316 -0.2298496,0.2763 -0.3635415,0.6604 -0.4010761,1.1524 -0.024047,0.3152 -0.020601,0.6248 0.010339,0.9287 0.038039,0.3122 0.092009,0.5676 0.1619097,0.7662 l -1.4128704,0.1242 c -0.039087,-0.096 -0.075827,-0.2223 -0.1102228,-0.3795 -0.034395,-0.1573 -0.059636,-0.3332 -0.075724,-0.5277 -0.024361,-0.1875 -0.039862,-0.3897 -0.046503,-0.6067 -0.00664,-0.217 -0.00175,-0.4331 0.014672,-0.6484 0.041641,-0.5458 0.1587225,-1.0163 0.3512432,-1.4114 0.1919345,-0.3874 0.4365396,-0.7051 0.7338161,-0.953 0.3043762,-0.2397 0.6537364,-0.4102 1.0480815,-0.5116 0.3937553,-0.094 0.8135701,-0.1235 1.2594461,-0.089 m 0.349369,4.0861 c 0.146645,0 0.290916,-0.013 0.432813,-0.048 0.141303,-0.028 0.269287,-0.084 0.383954,-0.1679 0.114071,-0.076 0.210981,-0.181 0.29073,-0.3141 0.07915,-0.1255 0.126356,-0.2881 0.14161,-0.488 0.01466,-0.1922 -0.0073,-0.3601 -0.06595,-0.5037 -0.05095,-0.1431 -0.126712,-0.2649 -0.227295,-0.3653 -0.10059,-0.1005 -0.221862,-0.1832 -0.363814,-0.2481 -0.134859,-0.057 -0.274438,-0.1022 -0.418737,-0.1364 l -0.173309,2.2717"
         style=""
         id="path3125" />
      <path
         d="m 10.514291,1015.1118 c -1.0928064,0.1459 -1.5851291,0.6239 -1.4769692,1.4339 0.023466,0.1758 0.06935,0.3447 0.1376522,0.5067 0.069318,0.1696 0.1455098,0.3034 0.2285748,0.4012 l 3.0835432,-0.4118 c 0.0041,-0.086 0.0012,-0.1946 -0.0085,-0.3255 -0.0021,-0.132 -0.0133,-0.2744 -0.0337,-0.4272 -0.06225,-0.4662 -0.269666,-0.7963 -0.622255,-0.9903 -0.344957,-0.1951 -0.781082,-0.2574 -1.308376,-0.187 m -0.18679,-1.7485 c 0.466158,-0.062 0.899471,-0.05 1.299941,0.036 0.409124,0.093 0.7691,0.2552 1.079929,0.4859 0.318461,0.2297 0.580133,0.5292 0.785017,0.8986 0.204872,0.3693 0.340472,0.8023 0.406802,1.2991 0.02754,0.2063 0.04465,0.4218 0.05132,0.6465 0.01532,0.2313 0.02198,0.456 0.01999,0.674 -9.84e-4,0.2257 -0.01113,0.441 -0.03045,0.6458 -0.01169,0.2038 -0.03025,0.3852 -0.05569,0.5441 l -7.9438489,1.0607 -0.2280507,-1.708 2.2696712,-0.303 c -0.1095715,-0.1799 -0.2010577,-0.3699 -0.2744589,-0.5701 -0.073402,-0.2002 -0.1259184,-0.4188 -0.1575493,-0.6557 -0.1142806,-0.8559 0.077411,-1.5465 0.5750755,-2.0719 0.5053046,-0.5264 1.2394023,-0.8538 2.2022951,-0.9824"
         style=""
         id="path3127" />
      <path
         d="m 10.409396,1025.7686 c -0.179033,-0.2469 -0.379536,-0.5763 -0.6015097,-0.988 -0.2292311,-0.4091 -0.4300247,-0.8531 -0.6023815,-1.3318 -0.1749704,-0.4861 -0.255927,-0.9158 -0.2428701,-1.2892 0.015667,-0.3662 0.1056161,-0.6854 0.2698481,-0.9576 0.171484,-0.2748 0.4060794,-0.5108 0.7037869,-0.7081 0.2977043,-0.1973 0.6424163,-0.3665 1.0341373,-0.5075 l 3.188157,-1.1478 0.583667,1.6213 -2.992297,1.0773 c -0.522295,0.188 -0.874697,0.3927 -1.057205,0.6141 -0.182514,0.2214 -0.205871,0.5207 -0.07007,0.8979 0.04178,0.1161 0.0898,0.2381 0.144067,0.366 0.06151,0.1254 0.117804,0.2362 0.168876,0.3326 l 4.417718,-1.5904 0.583667,1.6213 -5.527589,1.9899"
         style=""
         id="path3129" />
      <path
         d="m 13.326486,1025.495 c 0.458764,-0.2843 0.901183,-0.4632 1.327258,-0.5367 0.436682,-0.071 0.840777,-0.063 1.212287,0.024 0.3715,0.087 0.707601,0.2418 1.008303,0.4636 0.304751,0.2284 0.554584,0.4999 0.749501,0.8145 0.454781,0.734 0.588039,1.4541 0.399774,2.1603 -0.181727,0.7021 -0.708415,1.3232 -1.580066,1.8632 -0.0852,0.053 -0.182266,0.1084 -0.291182,0.1668 -0.102373,0.054 -0.19491,0.1027 -0.277611,0.1448 l -2.058734,-3.3227 c -0.281176,0.2195 -0.433087,0.5086 -0.455733,0.8673 -0.02265,0.3587 0.09596,0.7478 0.355845,1.1672 0.166482,0.2687 0.351845,0.5166 0.556089,0.7438 0.214851,0.2297 0.409083,0.4041 0.582694,0.5233 l -1.067699,0.9336 c -0.08805,-0.054 -0.192346,-0.1348 -0.312878,-0.2415 -0.120539,-0.1067 -0.244671,-0.2339 -0.3724,-0.3815 -0.130226,-0.1369 -0.262017,-0.2911 -0.395374,-0.4624 -0.13336,-0.1714 -0.256888,-0.3488 -0.370584,-0.5323 -0.288305,-0.4653 -0.471248,-0.9143 -0.54883,-1.3469 -0.07352,-0.4261 -0.06338,-0.8269 0.03044,-1.2025 0.104429,-0.373 0.285974,-0.7168 0.544636,-1.0312 0.262719,-0.3079 0.584139,-0.5796 0.964263,-0.8151 m 2.692177,3.0935 c 0.120456,-0.084 0.227489,-0.1817 0.3211,-0.2941 0.09766,-0.1059 0.168006,-0.2266 0.211038,-0.3621 0.04708,-0.1289 0.06357,-0.2707 0.04947,-0.4252 -0.01005,-0.1479 -0.06786,-0.3071 -0.173433,-0.4775 -0.101521,-0.1638 -0.218317,-0.2865 -0.350386,-0.3679 -0.125528,-0.086 -0.258529,-0.1391 -0.399004,-0.1609 -0.140486,-0.022 -0.2872,-0.017 -0.440142,0.014 -0.142337,0.034 -0.281855,0.079 -0.418555,0.1369 l 1.199913,1.9366"
         style=""
         id="path3131" />
      <path
         d="m 18.884371,1028.9205 c 0.26365,0.1533 0.580294,0.3733 0.949933,0.66 0.375204,0.2813 0.738504,0.606 1.089902,0.974 0.356709,0.3737 0.60201,0.7311 0.735906,1.0723 0.14478,0.3414 0.197167,0.6698 0.157161,0.9851 -0.04002,0.3154 -0.153425,0.6209 -0.340208,0.9165 -0.186799,0.2956 -0.430754,0.5871 -0.731866,0.8746 l -2.484236,2.3719 -1.189939,-1.2463 2.333675,-2.2281 c 0.401487,-0.3834 0.635298,-0.7079 0.701435,-0.9735 0.06612,-0.2657 -0.03924,-0.5435 -0.316086,-0.8335 -0.08519,-0.089 -0.181277,-0.1787 -0.288258,-0.2684 -0.101416,-0.095 -0.194966,-0.1763 -0.280651,-0.2437 l -3.395958,3.2424 -1.18994,-1.2463 4.24913,-4.057"
         style=""
         id="path3133" />
      <path
         d="m 21.010766,1035.1196 c 0.25343,-0.359 0.547988,-0.6559 0.883675,-0.8909 0.346425,-0.2367 0.712119,-0.3938 1.097084,-0.4712 0.389402,-0.084 0.790478,-0.084 1.20323,0 0.412741,0.084 0.82067,0.2679 1.223789,0.5524 0.264535,0.1868 0.489247,0.3831 0.674136,0.5891 0.189322,0.1998 0.35679,0.4171 0.502405,0.652 l -1.086528,0.9175 c -0.09671,-0.1437 -0.210454,-0.2901 -0.341236,-0.439 -0.130794,-0.149 -0.293817,-0.2924 -0.489068,-0.4302 -0.415715,-0.2935 -0.818643,-0.3844 -1.208786,-0.2729 -0.383853,0.116 -0.724725,0.385 -1.022615,0.807 -0.315682,0.4472 -0.465742,0.8603 -0.450181,1.2393 0.02185,0.3835 0.272129,0.7442 0.750828,1.0821 0.170058,0.12 0.363834,0.2332 0.581326,0.3396 0.217484,0.1063 0.432564,0.1826 0.645241,0.229 l -0.615244,1.2927 c -0.212677,-0.046 -0.45962,-0.131 -0.740832,-0.254 -0.281219,-0.1231 -0.569845,-0.289 -0.865877,-0.498 -0.453503,-0.3201 -0.797332,-0.6619 -1.031489,-1.0254 -0.229714,-0.3698 -0.369392,-0.7468 -0.419036,-1.131 -0.04335,-0.3798 -0.0043,-0.7627 0.117278,-1.1488 0.132274,-0.3879 0.329574,-0.7676 0.5919,-1.1393"
         style=""
         id="path3135" />
      <path
         d="m 31.806525,1037.7565 c -0.801364,0.9228 -1.586402,1.7725 -2.355119,2.5492 -0.768727,0.7767 -1.556246,1.5109 -2.362557,2.2027 -0.291119,0.2487 -0.559871,0.4483 -0.806257,0.5987 -0.249586,0.1574 -0.494035,0.2664 -0.733346,0.3269 -0.24251,0.067 -0.490408,0.082 -0.743696,0.043 -0.249467,-0.029 -0.521552,-0.1104 -0.816254,-0.2446 -0.245587,-0.1118 -0.462449,-0.2402 -0.650588,-0.3852 -0.184317,-0.1347 -0.330355,-0.2605 -0.438116,-0.3774 l 0.843917,-1.1279 c 0.135827,0.1297 0.262099,0.2337 0.378816,0.3123 0.116717,0.079 0.245243,0.1498 0.385578,0.2137 0.280669,0.1278 0.529822,0.148 0.747459,0.061 0.221457,-0.077 0.445511,-0.2249 0.672165,-0.4436 -0.03838,-0.8646 -0.03842,-1.8134 -1.24e-4,-2.8465 0.04149,-1.04 0.15195,-2.1757 0.331385,-3.407 l 1.662969,0.7571 c -0.05443,0.3056 -0.109517,0.6406 -0.165254,1.0049 -0.04553,0.3605 -0.09075,0.7296 -0.135647,1.1073 -0.04171,0.3707 -0.08023,0.7343 -0.115539,1.091 -0.0283,0.3598 -0.05084,0.6884 -0.06762,0.9858 0.206225,-0.2111 0.428741,-0.4486 0.667549,-0.7127 0.238799,-0.264 0.477289,-0.5366 0.71547,-0.8178 0.248382,-0.2851 0.486558,-0.5663 0.714529,-0.8437 0.23817,-0.2813 0.45464,-0.5428 0.649409,-0.7845 l 1.620868,0.738"
         style=""
         id="path3137" />
    </g>
  </g>
</svg>
